<mxfile host="Electron" agent="Mozilla/5.0 (X11; Linux x86_64) AppleWebKit/537.36 (KHTML, like Gecko) draw.io/24.7.5 Chrome/126.0.6478.183 Electron/31.3.0 Safari/537.36" version="24.7.5">
  <diagram name="Page-1" id="FBMquGPimPrA5BVdNW5T">
    <mxGraphModel dx="1687" dy="1024" grid="1" gridSize="10" guides="1" tooltips="1" connect="1" arrows="1" fold="1" page="1" pageScale="1" pageWidth="1169" pageHeight="827" math="0" shadow="0">
      <root>
        <mxCell id="0" />
        <mxCell id="1" parent="0" />
        <mxCell id="BNxZD7-ABw7rXMvJ1Ow9-2" value="" style="rounded=0;whiteSpace=wrap;html=1;opacity=80;" vertex="1" parent="1">
          <mxGeometry x="10" y="19" width="1150" height="790" as="geometry" />
        </mxCell>
        <mxCell id="BNxZD7-ABw7rXMvJ1Ow9-1" value="" style="shape=image;verticalLabelPosition=bottom;labelBackgroundColor=default;verticalAlign=top;aspect=fixed;imageAspect=0;image=data:image/png,iVBORw0KGgoAAAANSUhEUgAAA60AAAGQCAYAAABF3oaFAAAAAXNSR0IArs4c6QAAIABJREFUeF7snQeYVNX5xt9zZ2YLHaQjdiyALYgGBV27KKDRQNSgUWOLxsRoNP/EGIJJTDHFEhNbYldkbYCCYmFVFAuKvUQFCwIiKMLCtpl7/s+73NFxmd25d3Zmp73nCRF2zj3ld86dve/9vvN9BioiIAIikGMCJ4xfsbWxtk9dZfS16urB9QBsjoek7ouHQBcA93nTWQbgXABftJheGMCvAIzxfv47AE9mEcF3AZwHYDmAGgBXA3Db6M8B8AMAx3t17gFwTUL9SgBbA9gHwM4AenvtrQbwIYC3ADwFoDaLc1LTIiACIiACIpA1AiZrLathERABEfBJYPKEpUdY6/wHxtxiY+G7huzRe9HUqaath3ifLauaCKBHgkh9D8BoAJ+24FIG4A4Ax3g/nwjg7iyyOxbAlQD6AHgFwEgATSlE6yUALvLq/MMTvfznZgB+DuA07++tNbM3gAVZnJOaFgEREAEREIGsEZBozRpaNSwCIuCXwOQJy4+AtQ8AiAF4FdbOjIadm6bdP+ADv22ongi0QqBYROsvPCtxFMB1AKZ686VV+JcAQp6HwioAKwHQetwJQE8AnQEMSCLWtWlEQAREQAREoCAISLQWxDJpkCJQ3AQSRKs3UdsAmFdduFc1VQy6u7ra1BU3Ac0uiwSKQbQSD62ycbdfujdTmPYF8KznGswXPrQWX+FZlvn7nUKWVuR+AOalcEHO4hKoaREQAREQARFoHwGJ1vbx09UiIAIZILCpaN3YqOX/XMy0cM5btv6tj2pq9qeVSUUEghBoj2iltZIWyp0ADAbA87F04/0EwHMAaNVM3JP8ndoNwK4Ahnr1N3gWzjcBvO1ZQxPdg18FMApAhXcedUfPSkoxys/ibsODAAz0Jr4CwMcARgCY4wnaxQBOB/CYDzgR7xq6JbNNniHned8XAHzWYk79vbmzWboys+7mXh9LvHGTMX/OaymSyYrM2A/P076bwv3Zx5BVRQREQAREoJQJSLSW8upr7iKQJwRaE60Jw1vnWnt5zMamr3Ub3p0zZ0hDngxdw8h/Au0RrUd5AY9oqWxZaP2/HMDfPfHKz/cA8E8AewJo+fuVllCeP/0SQKJopQB9GMDhnpCM98N6p3pnaxmIKdmZVordmZ4F9jUAP/SEZ1urshWA8722KZQTCwM30fX4Ki9IFC21PwNwmVfpFE8oc/y06P4ewPcA3OkJ3bO8f+/rCVZe1gjgZm/8S/N/u2iEIiACIiAC+UhAojUfV0VjEoESI+BDtNKME4XFK7DunSFjp93ywGBau1REIBWBRNFK6ySFF8VZYqFF9Y8ADvR+GA/ExGi8fwKagzkx8i6tqt0BbA+gHMDnXkCkWzxLI8XZid7faVWlIGW9rt7PaIFlSRStbY3/QQDjAPgRrbTKUrQubKNBzoPzIQNaQdcDoJDkvLYBwCjEjN79B48Hm0oUrXRL5hlZln8DODtBtPJnDJ5GyzAtsORFTrQ88+88k0tBLG+JVDtWn4uACIiACGxCQKJVm0IERCDnBPyI1q8HadYa4A0bc69abQfeO2eOkdU15yuY1wNIFK20+jG4V0vhxN+FdL+lwGKJi1a6A9MyycJrKcponbwgQZzS2sqovrS8vuG5BdNtmG0w3QwFMV1mKTxpDWVJFK1skyJvLoDnAWwJ4GLvPOo7AOgunCnRygjCN3iuu2u9AE5PewHQhgH4rxe86X0Awz0BmihaOXa6Oz/qiV+6MMctrfyMIp3i9GWPF1P7MFAUC9tmlOOW6YbyevNocCIgAiIgAvlBQKI1P9ZBoxCBkiYQTLTGUdlGWDO7oSl2QfXDg5nKREUEkhFIFK1+CaVKeXOyJ8LiYozutmsAUGTSukjX3v0BLGqlw0TRSqG7n3c9BSzFM0UfXYkpsJl/NVOilSl9aCFlUCeeNaUwjaeWokWYbsocC8+n8iwvxXeiaOW5VwpP5omNn7VNFK03eVbceJ7lbyek2aEbM8/ctkw35HdNVE8EREAERKCECUi0lvDia+oikC8E0hOt8dGbZbCxv7muc8+yDe98omBN+bKqeTOORNFKd95nALS0zlMUjvHOhnLgiaKV6WIYtZcWVtZjOTLBffZGz0WYovV+7zPWoTWX1lMGSqLLLt2FWYelrTytDIzEgEfsM9Oilf1StJIJA0lRVMYLrcH3AjjC+8F2Xv+JopXX8tzqVzdfC0srral0UY4Xnu1lPyxMacVcsrTGqoiACIiACIhAIAISrYFwqbIIiEA2CLRPtH41Iro53hI1kQemzey9HDBxa082hqw2C4dAomhdAGBCQuCk+CxoZaTL62jvB3HRugUAWlUP9iyPdPVloZClJZSFQi1uaeWZ2N8C2N2rE2+fFsu7vXp0r5VoLZz9o5GKgAiIgAjkAQGJ1jxYBA1BBEqdQIZEK6y1XxrjzDfWvba+8unZ1dWTGLFVpbQJpCtaaTU9A8CfPQHKYEIMWsQ9xTbpxsvyH0+M0iWYopYWSp5DpZXxAE/A0orJ6w71UtJkQ7S+7lk5eS62tUJXXlpLGUwplaV1W+9MriytpX3/aPYiIAIikBcEJFrzYhk0CBEobQKZEq0bKRoXsLXWunOt6/z8jtkDGQxHpXQJpCtaHwHwF+8cJukxKjBdfWnBp/i7OolojVPm71Zab3sBmJLQBl1rKRozJVpp0eU5VJ5RpaCmyJ7dxlIzMBL7p+sxz83y+nihsKYLL63KLHRTXtniTGtQ92Cm5KE7NgsjITOFj9yDS/de1MxFQAREIG0CEq1po9OFIiACmSKQWdH69aisxSpY/CEWikzfYffeK6ZOpaBVKTEC6YpWugv/zQssRGTM2TrPE6MUX5d6HK/3ognT0jrYC2zEtDE808oUMr8CcI5Xl2c6Gb03U6KVc3vBs+6yi8e8vLEMTMaUNky10xfA5l6+WZ7b5XiHeC7SDMzE87MU4gz4xOvp9syAS7QYM2JyEEsrz8SyPq9j4flW5nJlUSCmErvxNF0REAERyCQBidZM0lRbIiACaRHIlmj1BhMD7BPWNTeWuebhG+cM+CytQeqiQiWQrmil1fFCL/0M3X4ZSImut8xnuocXmIlMKAIZUZcpZGo84UrRyHOsFK2MxkuLK6PtMuUMgzJlSrSy//M8Yci+2io8n8u0PP/w+g8B+AjAU55oPQRAP09wXuGJbYrZIKKV/TMHLvPhsgz10v0w8BVF/mXeGAp1L2ncIiACIiACOSIg0Zoj8OpWBETgawJZFq3xjtZZax8yjvlveG1DzU01W9MaplL8BNIVrQycRPdWugHvRr9zD9U6APO986mMJnydZ2nlz5nyhmdB41GG43QpFu/03Hdpgc2kaGVQKFpwz/QENS2sLQvHdpAnunfxcqfyfC1dmBML6zGdzSVe7lgK26CitWXfPMtLF2YGq6LwVxEBERABERCBwAQkWgMj0wUiIAKZJtBBopXDdmGx0sLeE2vEn6fNHRS3CGV6SmovfwjQSrqPNxxaQxmwKJ5jND5KikyKue7eD94EQIs8BSDdZo/2BCFFFy2TtFDSxZaijq60i71ASzsAoEVzJIAtPfHKtDW85jUAX3jt02WX7rdsnwGeXvKsnfyYqXWY45Vij+N91hPMO3lj4csWtvl+AmKeR2VgKP7hPNg+XeGZE5VCmudIOWZGLmahRZV1q7x5sC6tw3R/Zj2Ok1ZWPiNs5QWW4nX8jHll44WfJ+ZpfQjA7Z6FlWOgKGbaH7pacyxyz8+f+0IjEQEREIGCIiDRWlDLpcGKQHES6EDRmgjwC+Pas9A0cNatc/kwrxQ5xbm7NKssEmgpWilYJ2exPzUtAiIgAiJQogQkWkt04TVtEcgnAjkSrTQlWWPt4wa4or7Jfbr64cGf5xMXjUUE8pyARGueL5CGJwIiIALFQkCitVhWUvMQgQImkCvRGkdmN7ouPuTE8M9bZw9koBwVERCB1AQkWlMzUg0REAEREIEMEJBozQBENSECItA+ArkWrRy9tTS8mhtvf2AA03SoiIAIpCaQKFqZ5uY/AJiLVkUEREAEREAEMkpAojWjONWYCIhAOgTyQbQ2C1dgxu2zBjIfp4oIiIA/AgzUxPy0i7xATwq25I+baomACIiACAQgINEaAJaqioAIZIdAvorW74//eGzMOCti5e7b1dWDmbZEBcDo0Q/0DIUw3Fq74sknx78rKCIgAiIgAiIgAiKQTQISrdmkq7ZFQAR8EchX0Tp5/LJbrbVVxtrrYo5Tvf23Bvxv6lRTspakqqp5FbHY+v2MsZMAM9pa+4unnhp/v69FViUREAEREAEREAERSJOARGua4HSZCIhA5gjks2j1UnjQyvq6tbi+sTJ2W+lZXa3ZZ5+Z24dCzo8AcyRg6RK6zFqcLdGauftALYmACIiACIiACCQnINGqnSECIpBzAgUgWj1Gtg5w3o8ae/K0mde+BEwteqvriBHXRiorBx7nOOZPgO0DIOzBkGjN+Z2jAYhAxgk4AHif9wLQFUBn7w9f3MX/rAXwpfenKeMjUIMiIAIikISARKu2hQiIQM4JFI5o/QrVeljc4Ljuvz7aMGhxTY2J5hxiRgfQbFntEgphd8D5K4CRSZqXaM0oczUmAjkhUAZgEIDhAL4D4HsAOvkcCcXrcwDmeoG43gewFECRfR/6pKFqIiACWSUg0ZpVvGpcBETAD4ECFK3etMzrFvY/1nVmDtmj3wfFcN61qmpe2HXX72mtnWwMJgHYrJU1lGj1s7lVRwTykwAtqjsCOBrA8d7f2/tM+CCAMz3hmp+z1qhEQAQKlkB7v6AKduIauAiIQP4QKFzR2szQBcw8a+1djfUV06sf7UW3uQIs1uy99/3bhEKhnwLmAGPMUMC29TtCorUAV1lDFgEAEc+qeg6DgWeQyO0AzgWwKoNtqikREAERaCYg0aqNIAIikHMCBS5ayc/CmLWw9jnHhC64ZWa/V3MONcAARoyY1alTJ5wI4MfGYIeEc6tttVIoorUcwE8D4MjHqjxL+DiAN/JxcBpTQREIAZgI4DLPLTiTz4GXA/glgPqCIqLBioAIFASBTH5ZFcSENUgREIH8I1AEovUbUK01f4k1NF0R6zH40+pqE8s/4htHNHHi9LJPPglvHwpFLjcGBwYcZ6GI1h4Avgg4t3yr/rlnwbo13wam8RQcgd0A3AeAEcAzWfg99xsAl2ayUbUlAiIgAnECEq3aCyIgAjknUGyilZZXC7xpgKuiJjpr2swtluUccsIAhg6dXtarV2RnxwlNBMz5Pi2rLacg0dpxiyrR2nGsi7knRv6uBnBUFibJYxE/B3BDFtpWkyIgAiIg92DtAREQgdwTKELR6kG1dTDmIQvc2/jZB/dUL9ibbp45LWPG3DMAKDuJUUKNaY4YSnfBdIpEazrU0rtGojU9brrqmwQOAzArzZdUqVjyxdzZAO5PVVGfi4AIiEA6BGRpTYearhEBEcgogeIVrV9hWg2LGtfij0P2GLAoF1GGx46dXb5+vT3GWvdCAEOM8Z3WorW1lmjN6F3QZmMSrR3Hulh74vNeDYB9szTBdwHwZdgzWWpfzYqACJQ4AYnWEt8Amr4I5AOBEhCtccz1sPY3DZUDr6iuNo0dw96a0aPvG2JM5F/G4IAMBuCTaO2YBWQvEq0dx7pYexoCgAHiKrI0wUVejleKVxUREAERyDgBidaMI1WDIiACQQmUkGiNo3nfhT3fmvCz28/812dTMdUNyixVfeZbjUY3bOM4se8A5hcAeqa6JuDnEq0BgbWjukRrO+Dp0mYCPwBwvZfuxi8SBlf6GMD7ANYBaPJeevFsLKNydwbQ3cvl/BbQnNd5jd/GVU8EREAEghCQaA1CS3VFQASyQqAERSs5brAWs13YW6KV7qPV1YMzdN7Vmn33nbG5teGjjLEnA9g9K4sGSLRmCWySZiVaO451sfbEFDc/C3CGnQL1bgDXAXhyYz7qTQrPww8Ems/GU8TObKVesTLVvERABDqQgERrB8JWVyIgAskJlKhoJQxLS4a1eD7kuhfdMnvQu4Dhz9Is88JjxtSOY15SY7AHgC5pNuTnMolWP5QyU0eiNTMcS7kVCtCjAxwPeBrA6QDeLGVomrsIiED+EJBozZ+10EhEoGQJlLBoja85hepqa3FNY2X4z9XVfWuDboaqqtmbx2LR243BSMCpAGy2v98lWoMuUvr1JVrTZ6crN1pBZwPNZ9r9FH4f/QXAxZ5LsJ9rVEcEREAEskog2w81WR28GhcBESgOApOPXDbGuqg2Bn1g4eRqVhaYcfusgV/lMJw8ftmtACZ38Hiejhk7NVoeWZBKvE6ZYp25cx8YEA7j+8bg/7JwbrWtqReSaKXoy1QJ+nuzHZbzr4a8GsB5ALgfVUQgKIFuAB4AMMbnhesB8Bz81T7rq5oIiIAIZJ1A0F++WR+QOhABESg9AlVVNrx5p+UH2ZA908DsD4APWR1e8kS00oMvaoF/w7oPRGobn7ypZuv6ljBGj36gpzGx7xrjHAuAzDr6+7xQRGslgL9mYDMx+Mze3vk9v83RYn6L38pt1KOIoHvn8xloS02UHgEGYWN+1n18Tp0veXj+NRN712eXqiYCIiACbRPo6IccrYcIiIAItErg2AkfDXRizj7GOL8wpjmAUIdaXfNHtHqILD40BveFmswVNz004AP+dOLE6aEVKyrGAWayMTgCAEVZLkqhiNZMsWGkVLpMnhWgwY8AbOWdXQ5wmaqKQEYJbOYFSeJLFz+Flv2fArjdT2XVEQEREIGOICDR2hGU1YcIiEAAAtZMPnpVfzQ1TACcP3jpFAJcn37VvBOtG6fSBIuTb3tgwB0M0lRV9WD/WMy9wRgcngPraiJcidbUW02iNTUj1cg+gaCidRWAcyVas78w6kEERMA/AYlW/6xUUwREoIMJHHvU8q1CUft3Y3CQFwk3q99ZeSpaAcecsu2Ma25mPtdRo2YNikTsLYDxG1QlW6sm0ZqarERrakaqkX0CEq3ZZ6weREAEskwgqw+AWR67mhcBESgRAidMWD7RWnsSYEYDNmvnXSVaA20oidbUuCRaUzNSjewTkGjNPmP1IAIikGUCEq1ZBqzmRUAEMkPguPHLejsW3wVwsjEYAYCJ7TNaJFoD4ZRoTY0rF6KVv9czEbE49exUww8Brkd8TXK1LoUuWvOBoZ+1LsQ6ZMvYEdybbgdNQN9RHQS62LqRaC22FdV8RKCICVRVzQsP7rrTYNdEjzbWXAKYTpmcrkRrIJoSralxZUu0MihUHwA7A80vcIYB6AWAP+fv9QYAjAD7PoCFXtThTwFs6MAH09R0Nq3BsXcBMAHACgCPpdNIGtcwMvTWXsTcIIG2ON4yAPwe6g5gJ+/PtgA2987j8/N4oTBoAvAxgCUAXvXW5zMAjDQdS2Psfi4pBNFK4cS1Hwg0B+Hjvt4RQA+PMedJfoykvcxjt8j775fens/VSwE/a8A6nMuh3vo/4/eiDNWLeN8P/Ty25LsdgL7eC2AK1je9iNHPAtgkYn3AcXA9GSSQnlFcx728e2NL736JAviflz/4EQBcw44SzQGnour5QkCiNV9WQuMQAREIRGDioR/3Kit37oBrDjQGfOhsd5FoDYRQojU1rkyJVj4AVgAYDaZCArZJ3XXSGnxIvNATg+0VsCcCOMbHOD4E8JMU9eg1wYfpqQB+4Ak75h2+qsV1FOrMHzrER7+XAZifoh4F5bcBXAFgNwB13jjWJbmOaxBfBwrS4wGcCmCAj7H4qbLWmy/Xly8Y+FAfpPwIwGGtXEDBQtHAFxt+SiOA1wEs9VPZExt8wfBPn/Xj1fi9TbF/EoBLPDETsInm6hSrT3gvHd7xBGx7BBCjsp/uYyAvAfgHAK5da4V7mymH/ujtF4rBswH8N8kFd/pgcB2AB1OMjc/2XHN+ZzA3768AjAoQuO8LAGMBvOBTSMatteXeSwfuxZMD5A3nyxpGqv6l90LCB3pVKUUCEq2luOqaswgUCYHTRyyMrO/f/3g4zinMoWnQPvEq0RpoY5SiaP2z98DpF1R7RSsfOik2aJ3hg26mznPzgf5yAHxIfsMTa37nFK/Hh3AKy1TlEwC7eJbfxLp8/ujtWYuP9kQCH7RZKJooOn/dovEtANwDYI9UnXoC+LdJ6rEPWphoFb0UwA4JdSgoONZ3E35G0TEUAPMh/9ATtT66b1cVWhB/41kRaZX1Y0G8BsAZ7eo1/Yvj++l8H01w3Wlto3cAX2YcHEBM+Wi+2ZvgagD3evz476Dlx0lemCRrgxZJCm4K5ZaFVtWRQPORlhNapCYjJ95/LYU1rY2p7vFHARySZE/wu4Ivs/hChVZUCsfBQSeeUJ9C8gbvZQIt2y0L15EvQXgfcT35O7i9wQH5suY0AA95L67aMXxdWowEJFqLcVU1JxEoMQLHTVjcLxSrPN0ae6RxzO6wNq38rhKtgTaORGtqXOmKVv5upnia6KUeodtvNgpz/97oWW/pohqk+BWtbJeim0IsXugGyp/RUss5tvSU4MM8LVF8gE0sQUQrRUtLSzAf4r8PYBKAXZPkgaZbNQXBkwmdUgxQPF8UBE4G6tKN+HEAf/WsiPx3WyWXopUChy8Ifp9ijF2B5tzSXNf2CpxUiOlefpcnvGg1DlL8ita3Pevp0wmN814dD+BAT6zS+tiy8GUJWdGyn1j8iFZ6AfBFy3LvQrqm86UPPQUYZZ9HBtL6/ZdknHyJcwuAiwGs9D7nvcq++LKBgvVIH0I7CHveg3xBx++l9ljLg/SpugVCQKK1QBZKwxQBEUhFwJoTjvh4mGuc4wHnDGN8u8J91bBEayrG3/hcojU1rnREK38v7weAVl2e7YtbH1P3ll4NPjjXeJbEttwcW7buV7Su8axRMzyLGsU4r+WDb1uutbSoTm5xti6IaKUrdNyKSjdguhUztzH7pRBNVigMaRWj2IkXrseZngtxttci2ZgWe6LhjhTLm0vRSlfmn6VwD6YFkS7Ax3nnKNPbrcGv4suSv3vup34s1uzBr2ilMKZ1e6a3t+kBQO8DuuTSlb21QhdfuulTpCYWP6KVe5Su+TwHeo53ZIB7mueWs1Eokjmna70XaRw372HeWxkPhuhNgHueXg38XlIRgW98GQuHCIiACBQNgSlVNvxO2bIBoTKe+zHDjWkOTOOrSLT6whSvJNGaGlc6opWuqDyfx4dQ33s39VDarMGHeVqN6FbY0vrT2oV+RSvdM/nQywd1nv/jmVUGaEk1t7newzldBuMliGhlvxTFDLDEvr+VxKLbcm4UXxd4rpuJn9FiS1FId+ZcFFqfeF61rYf4XIpWCim6h97WChyKGwo7WtezJXTaWpdV3ksLWu/8CFe/ojV+PvVmzx39PO+FSKq9TS8Auu/GrZfxsfsRrRw/Xe754oUuyBmJ55BiU3OcZMh7if2mml977xHO8VZPlAd5kdbefnV9nhPI9sbL8+lreCIgAsVM4Pvjln3HMeZ3FpZnffignOrJfcbtswYeFa80efwy/uKktSe3xTGnbDvjmpunYqo7atSsQZGIvQUw2XavSzVnidZUhICgopUPhc+lsNKk7jW9GnxQnOZZjpIFImrZql/RGndz5QM2z+f6LYyuyvOCiedLg4hWnotlUCMGhEl1TjA+Jrq5/s0TOInjpOWM5/u29zv4LNRjNGha3rmnkpVcilayprB/IMnAGGiJ7Hi2M5eFVlEGV+IYUwlXv6KV82EAoXikY7/z40sp/l5pGejKj2j120eh12N0bd7/ia76hT4njb+dBCRa2wlQl4uACOQ3gWMPW75VJGwnu8aeaGAYgKXV7z1ZWgOtZSmK1j95roN+QQURrbQK8gF4f7+NZ6EerSm0itJylCp6rV/Rmu4wmQ6GLoJM2RMvQURrOv3GLTy0BicWpuyglY6RhnNVeL7veu+Mc7J0JLkUrbQE8wxn4tlOcuKLwp97UWFTvjTsALDcUxTX76XoK4hoTWfYDH7GtE50g00sEq1f0+B+p8v5v3x8F6WzBrqmAAlItBbgomnIIiACQQlY5/sTlo0yLg6CMTzblvQBSqI1EFeJ1tS4/IpW/i5mugcGPGntvGXq3jJTg9FJGSiHQZraKtkWrbS0cByJuVqzLVo5X0YuHdciZypdtel1wTQguSx04aagfj7JIHIpWimieZ6TYiyxVHlCmy8L86Xc7wUuasvamm3RSqsvPWXeagFFovWbQBjdnOfJ5SKcL3dPjsch0ZrjBVD3IiACHUfgnLHvlq8xXXdzndgfjTGbWLQkWgOthURralx+RSsteYyWy1yKuS509WSwnPtSuFFmW7Qy6jAfWHn+L146QrQytyutYMxVGS+MxnqT59KZy+cmWjSZc5OBhVqWXIpWnoNm7lyetYwXumT/AcBZGYxmm4l7gy7gXN/ZbTSWbdFKLwaK/FdajEGi9ZtAXvMiIrc8+5uJfaA2CpBALr98CxCXhiwCIlAsBCaP++THMA6tW30B2xzMQqI10OpKtKbG5Ue08vfwqV502qAulAw2xOi8dOulyHwJwHoA/T2r4N4AenoBW1KP9usajJ7LKLptpVnJtmilEIqnvuhI0UqGTMPT0nVzqnfWlSlMKHzInn8SGcWD5PCsIteEf/g514BrwpcTtNpSBPNnTFcStDAFCd0mecY1sXA9Wjt/z/4YRIpRlP0UumZyX/nNcUpLKyPYcu/FC1Ov0Go90E+HLeqQLwVca/0zmBPPyqbDj13Rm4BW89Zc4LMtWjkGBtZ6uMW8JVq/CaTWy5HMXMUqIpD1CGBCLAIiIAJ5S+D7Y9/tZsKd/mSBg3je1QIzFYjJ93JJtKZG5Ue09vKi6jKNhd9CUfGOd97rPyki/jLv6LkBXVtp5WQOxtVtDCibopWihecPaVWk8ImXbFtaKbooCnl2uWXAI4ocWqAp/ChGeX6TwaI+9LtoCfWYOodBgejqS7EXJJUI/5dAAAAgAElEQVTOAi9ADVP6+C0Uyozey5cYfgoFMYUxWaRbeH0yi3Bb7XHd3/S4sm/yTVY4H+bb5XyYL5T3UJDCteVattZ+NkUrPRloYT0fwFMtBp1N0coXKhSB/K/fwGRBmCary+8peizw5ULQF3Lx9hj1OzHHc3vHpOsLmIAsrQW8eBq6CIhA+wmcfrqN1K5YPsrwIcai7+2zBjJQR3NR9OA2+ZaaaOWDF3On8oHWb/EjWnneb5ZnhfPbLgULrbN0ZU0VCZVtMmckAwkd4bcD71zng23Uz5Zo5XlNBoKiOHu5xfyyJVoZLZnuvy967sjJoifTG4Oiyg9vv5iHe+l4GODJ7/MYrbj8jkp2rrW1fnMhWhn1lVGXgxTm5uULA66DH860IDPVzk8BkKXfQgvuFAB/beWCbIlWii++ZGLqIp5npahLLJkUrdyrr3vfLXwJxb7YPrnSys/jMd/xC8xnPXpH0O2aEdDpys4xsO8uAPp5L0Layl+brJtkFmmfw1G1YiPg90uy2Oat+YiACIjANwhMPOj97hWVnXvdOqs/A8A0F4nWNjeJRGvqe8iPaN3Xc1cMYm2jlYlBSvw82MdHSWFEa5vfh0amfmHk19ZKpkUr3XF/66W4aM16mWnRyodqvjCgUGIQIVqiOrp8zwvy5Hf96W5Mq29igKpUY+5o0cr0Rgw2RFdqv4UinGdNE/Py+rmW3CYBuMzLy+vnGt43fDFCcZro0hy/NtOile6tbJNnNLm3W4rVeL+ZEK18qcH7li+22B7PGVNAtix0VWdk3vZGK2fb072AWwyYtMzz0Gg5R770Gd/ijLqfteLaVvupqDrFT0CitfjXWDMUARFIk4BEa5vgJFpT7ys/ovVH3sNj6tY21mC6Dga9CVr6AmCwHr/WFVpx27KUZUK0UjzwofcKzxW4tYf5+FwzJVp5lpHiiNFtU6U/Cco5aH1Gi6a7cecAF/JB/u4ALy06WrQe2sKtO9XUuO48A0vX4HQKxTHdiXkW2e9zLc+10kX7q5eUCR1nQrRyb1PEXQ6A90oy4dhyrumKVp4pZu5Xjtvvfua54PMA/CUN4Lx/+PLk994Ln1T3bWIXtDBTMPstPFt/m9/KqlfcBPze3MVNQbMTAREQgSQEThi34v9g3Ats8DNTmeXpmFO2nXHNzVMx1R01atagSMTeAhimTMhV4QPZS9a6P33qqSNb5mbM1Ziy3W+23IP5UEv3Rr+FD4pMjRO08EzZb7w8rH6upVsfXfpas+a2R7SyTVqfuHcYbCkxUm9bY2uvaOV5QlpUr/asm/x3PhRaGUcGGAijKjNnq1+x0NGilbl+uT/8lsc963F71oPng68C0NVnpzwzTddiuiK3LO0VrbSm8twqIycnRlRONbQgopX3EL0TuJ9pWX03VeNJPiczWlv9BrSK3z9M/8QXYHQHDloYMO6oABfxrD/7UxEB32+khEoEREAESo7AFFjn/XHLfgBjeIaMAT/8Rt/MLKv8Eq21gLnBcfBgTc04uigGcVHNLJeObY0PdnQjPSdAt34srXSto4XIb+FeTEwD4/c6nv/7iRccx+8La865tQfTdEUrXXL54MoUP9w/QYRKe0Qr02ZQ1NBCyXyn+VRmeK6xfsfEIEdX5rFopaDmmWu/5VLvhQr3RrqFZ1q5n+hR4KdQWFK00ULZsqQrWnlWlhGBrwXwSID1ifcfRLTSukpL8e1p9BPvj8cM/h1A6NMqze+f9gRG4rGGY/0skFdHojUArGKv6vcXV7Fz0PxEQAREoBUC1hx7yLLNw2U4FMbwzN2gDkeVB6LVWopT+6AxkX83Na2bt2DBpHTesnc4ugx2mC3RygftIFbzfdqIeppqunzI/WeAaLWbt2EpSke00upE0c8gS3TPDfrCIx3Ryj7oOsoAOOy3tTQnqdhl83MKj+MDdHCh9/LBr8jraEsrA3gdHmA+FLgMFObXcpysaUbEpXux3+9nRsam6+mcDIlWpgii18A87zxv0L3NYQQRrQwWNs47Ax4A9TeqUrTS0uo3mjD50qWeXhjpFonWdMnpOllatQdEQAREwA+BKZjivFl1dqeyLk1/N8ac5ueajNXJvWhd57rm3HD4sztqak7m2ax0HsgyhiNHDWVLtDLtxqgAc2pPCogfeq6xfgPk8OwZU+skK0FF6zTPjZGBWtLdP0FFK0XARZ4rbRCLboDlyEhVimoKKL+F7reMfJuvopXWSwYY81voacDIwenui3g/tARu5bNTnjdlXlsG4mpZglpaH/BS6DCoU3vmING66VrI0upzQ5dCNVlaS2GVNUcREIG0CJz4naWb3XLf5sxZmPAgYs3xR60Y6cRwKWD3DOBaldYYmi/KjWil1WOZtWb+l19GTn311UOTRdlMf06Fd2W2ROsLAPYIgGN3LxVMgEu+qhpUtDI4DtNmJCtBRes/vLO47dlHQUUrI9jS+pWOO3U6fNO9pthE67MA9goAg8HB6CLdHsHH7niukymk/BS68tLSeH8GRCutldxn7S0SrZsSlGht764qouslWotoMTUVERCBzBKYfMTSi61xVli3fu4ds7f5RhqO749d3c2G6k90DNM0GJ53zV7pcNFqvgTsA66LG8LhhfNraqbmo0tl9ngnbzlbonUhgBEBJsNztUxrkU6hRZcpVph+wk/ZzQsok6yuRKsfgv7qBBWtvwDAlET5amkNGlgqV6KVllaer25ZglpaJVr97XPWknuwf1aq2YKARKu2hAiIgAi0QsBLefNda+3TxnWuW21rZ8yZMyQhdYE1xx61Yksnao90jP0xYPy+5Q/GvENFq51nLa6IRsueWrDgMFqZVTYSoGilUGMwI7/FTyCmoKK1Pef++Ds/yO99iVa/K92+ehKtubG0SrTqTGv77lxd3aEEgvzy6tCBqTMREAERyDWBhDytFtashbEv2+j6CbfPGcLzUF+VqiobHthp+aCQY35jHZwAa5nwPnOlY0TrKmvdn0WjDbMXLJjEFCTtddXL3Pzzo6V8Ea0dSUOiNRht5lxl0CMGtgnyfEXr+fgAXcnSmhxWUPdgiVaJ1gC3narmmkCQL9Vcj1X9i4AIiECHEkgQrV/3a9FgDf7qNDhX1nfvt7q62iS46Flz3ISlO4dcpxrGDATQJSMDzq5oXWUtU0VEfvbUU4ctz8h4i7MRidZvrmupugfzuYmilOL0u57lnX+ny7Vft+v23iESrRKtih7c3rtI1xccAYnWglsyDVgERKCjCCQVrc2dGxcWL1jrXmcRve+OB7ekZfKrcsIhr3R2y3qfBJiTjcEuAVKMJJ9adkQrx/xMKBS6bN68554CprbH7bSjliSX/Ui0SrRSlDKVC/NM8hwmLau5KPme8kZnWtPbFQrEtCk3BWJKby8V5VUSrUW5rJqUCIhAJgi0Llq/an29tfYBYzCjoWLg9ESr68SJ00PhhlHDQjFnrDXmQmPQK+0xZVC0WmtdYwyje15bX9/04PPPH818hSqpCUi0lrZopXX1AgBnelbWXD4/SbQmv1/lHpz6eyyxhvK0BuOl2jkmkMsv3RxPXd2LgAiIQNsEfIhWNsCzn6th7cOOay+5Zfbm/0tsdeJEWxZuWLljyEbPAJwzABsKzD1jotUwiNRPYjH3oYED6z+prp7kN/po4CEX4QUSraUrWmlRvQQAo8pW5sHelmiVaJV7cB7ciBpCxxKQaO1Y3upNBESggAj4FK2JM6qFGzv/Syd026xZA+oA81UwI1peKzaMPsg6+DuAHQD4F6/tEq0cg2201t7b2Gh/9txzR35aQEuQT0OVaC1N0crnJJ5dvRpAnzzZkLT4Mu+t35dOPHM7E8DePsfPqOE/A8CoxukUuQenQw2Qe/Cm3OQenN5eKsqrJFqLclk1KREQgUwQSEO0wjLOsDGvwXUvNk2hZ2+d239l4lgmTlzZpawuepFxcBgsdvYlXtMXrfXW2hrXda6vr/9k1osvntGUCS4l2oZEa2mK1n50pQdwZB7te4nW5Ish9+Bgm1TuwcF4qXaOCUi05ngB1L0IiED+EkhHtMZnY639EjAPGjd8622z+z7UcpbHjV8+LASXwZomAtiyTQoBRSuFM4AnrMUswNw4f/64bwSKyl/ieT0yitZLAfw0wCizkac1QPftrqqUN0AVNuYQ5ZnWfCk/9yytfoOnydK66cptAKCUN0p5ky/3tMbhg4BEqw9IqiICIlCaBNojWjcSM66BXWqteSYaxS+nPTTgg0SSJxyyojPCGG5DLoXQca1SDiBarbUrAeeKaDQ2fcGClxYrKnDG9m6+iFa+5OB5to4oz7TRV6mkvPkdgF93BOwAfUi0JoclS2uATQRAltZgvFQ7xwQkWnO8AOpeBEQgfwm0X7R+NbfmYE3WtZc0dvri2urq4Y2Js+Z517L6Md8C7HQDbLUJEf+i9YlotGnSM8+8skpiNeP7Kl9EK61mPHOY61IqovXpAGdB42uyHsCDAOYDYO7jVG75PD+6X4AFlWiVaFUgpgA3jKoWBwGJ1uJYR81CBEQgCwQyKFqbR2eBqLF2gY2FLoyU17190/1br0kc9skTl/eJ1tvzLEBr2rZffda2aF0P2Ldc11wyf/64B5tzyKpkg0C2RCvTD+0VYMC9m6NV576UgmhlsLTPAPT0ibsewGUA/gyAwtVvYcCjE/xWBpDvovUpAKMDzIffd/d4kdgDXPaNqnyeXYxkL/2St0jRR/dgBqhqWRgl+qoAA/kXgLMD1G+tqgIxbUpGgZgysLGKpQmJ1mJZSc1DBEQg4wQyLVoTBrjeurjNGDNtdax2wZw5Q5iKprlMnGhDkbqlIwxCpxqDwwEMQuui9WVrcacxsTuffPLIpYnRijMOQw1StP4BwLkBUPg50/oEgH0DtLkNgCUB6meraimI1r4AgkTbfhTAeAAUr0FKsYnW2QDGBgDwQwA3AWjPC7euAN4EsLnPfumtwBcFHGvLItGaHCL58ow3X+SkW+4EcGyAiyVaA8Aq9qoSrcW+wpqfCIhA2gSyKFo5ppi1drGBmW0izqW33tcyyrCtLG9YTpfBH1qL+7abde20qZjqjho1a1AkYv4OuK9Go7EHy8p6vF5Ts3807UnqQr8EsiVaZwEY53cQnlWWKUVyXUpBtDIQ1aIAoC8GQC5+U9HEmy420fpfACcH4PZ7AL9Ng1tiF0MBzAPAFw1+ylIAFES8pmWRaE1OUKLVz85SnawRkGjNGlo1LAIiUOgEsixaN+IxpgnWLrewf7191qAWLmnWTDxocTdEu8aqa/rWsvqIEddGQqE+3Wpro+vefHPSN87GFjrvPB9/tkTrfwCcEmDurHtjgPrZqloKopUurnR19VtO9dYmqMUwqGg9H8DlASyTHR09+DcApvqFBmCuZ6Fuz/cZXX3ppkuLq5/yhiesX5Bo9R0ZW6LVz85SnawRkGjNGlo1LAIiUOgEOkS0fg3JtdY+YayZ8qWDF2fNGsiUDCr5QyBbopXWuUsCTPN+AEe38/xfgO5arVoKonV/AI8HgHUSAApQBl4LUopNtNJzgB4EfgsDVe0OgEIyncJ783rP7dTx2QAtrKcBeF+iVaLV555RtRwTkGjN8QKoexEQgfwl0MGidSMIa7+wwPXWiT04ZPfB86dOVWClPNkh2RKtFKAMQuO38Pzz3gBe8ntBluqVgmgdBYBpf/wWpq76ZwALaLzdYhOtA7xz1+V+wXkvB34AgG67QUqEoQC84Fd+z7Oy/du84ElrJVolWoNsONXNHQGJ1tyxV88iIAJ5TiAnonUjE7oXLoE1t8EJ3XbbzL7v5TmqUhhetkTrrgAeA0AXTr9ljhcQ6n9+L/BRj26VtJAx8BCtUKmshaUgWocACML4Ok8IBTljzj6mAfiWjzWKVzkPwBUBxHFHuwdznAt5miHAnLjf7gLwJwCvBLiO51IvADCMhy18XsdAWTxHe2kr+1xnWpODlHuwzw2matkh4PcGz07valUEREAE8phADkVrnAofrt5zjfnJHTP71yg6cE43S7ZEK61DtPoEydNJd8oXAfzaE5hBz1ASZBjAngC+C4DCmdaxfgDuAPArAEwJ0lYpBdFKSyFT1zD1jZ+y0hOfn/iozHXn2VRG2WV6K66H31IIopV783d+J+TVo9hn2hq6Fv8VwIpWrqd1lZHVKS7pVtwrgGBlk1wfit3WXL8lWiVaA25dVe8IAhKtHUFZfYiACBQkgTwQrRu5JaS8KUiQxTHobInWSk98/jLggzep8iGfZ/Ie8lJ38ExgYn5Q/o7vAmAwAEZXZTTcXZrTKAH9AXBOLQutuGcCYLqetkopiFbOn3yZZshv+RAA3Vxf9qx4tCByHfinhxdwiGdfd2qFv59+CkG0UkzWAL5dT1vOmxGYKVpXAeD5fr6YoVjt7u3dbmncL/E+mBv5AAB1rcCWaJVo9XMfqk4HE5Bo7WDg6k4ERKBwCEi0Fs5adcBIsyVaOXRa2+haGuRMXrIpUyBRyPKBnwFpaCH0ayWMt/e2F9AmlYtmqYjW2wEcH3B/cQ2YB5QRv7kWZd7LAwotCq/2lkIQrbR+/sPLhZpPz5q8R2hlpXdDa0WiVaK1vfeors8CgXz6IsnC9NSkCIiACKRPQKI1fXZFeCVFK8/B/SzA3Git3MrH+VCeOWQAHwaUCSoyAwzHV1Vaao/0ztm2dUGpiFZaTZliKJ+el7gHr8zzM618aUIXXqahoaU/X8qjAI5q4ZHQcmwSrRKt+bJfNY4EAvn0JayFEQEREIG8IiDRmlfLkevBZFO0cm7MCXofgN65niiAswBcm0IUlYpopRvvAwFdhLO9hIUgWsmgs3eu9WzP2pxtLqnaZ2TiQwEwoFBbRaJVojXVXtLnOSAg0ZoD6OpSBESgMAhItBbGOnXQKLMtWjkNRkH9SwfNp61u/ETBLRXRyqjKfwBwTh6sS3wIhSJaOV6eqebZ1iCRhLOBmqmiTgBwtw/PB4lWidZs7EG12U4CEq3tBKjLRUAEipeARGvxrm0aM+sI0UqXyssAnNqOADZpTG2TS57zohnzQb+1UiqilfPf1ztzvEMm4GagjXMBXJXn7sGJ02RUaorFbweMkpwBVM1NrPbyuF7tBXVK1a5Eq0Rrqj2iz3NAQKI1B9DVpQiIQGEQkGgtjHXqoFEyyi/PtDIIjt/i90xrYnsM1vNTAGd4UX799pXJemsBbO0FE5Jo3RhIiS6uTOFCl9dMF0bJfcbLk8u+UpVCE62czxYALvHOSzOKckcVRn/+G4BbUpxjTRyPRGvy1VGe1o7ateonKQGJVm0MERABEWiFgESrtkYCgY4SreySLqn7A/hNDtwqGV31NQCHAVjexg4oJUsrMTDVCsUMhWumnp0YXZh5ce/yUrvwvzv6uOsKUbSSWR8AE7w8wHwpks1CLwEK1ZsAPO9F1fbbn0SrRKvfvaJ6HUggU1+8HThkdSUCIiACHUNAorVjOBdILx0pWomErsIUSozk+ycAdLHMZqF19T8A7gHwFoA1CsS0CW5aQScBoJspLeLpFuYcZdAtnl/mCwLmC2UALrr8HuujUVriGW2a7fgpjE49E8Defip7Fnaem6Xoy3RhdGzuZZ4v/VU7OSYbG5m8AGAKgPkBrKuJbUm0Jl91WVozfTeovUAEJFoD4VJlERCBUiIg0VpKq51yrhUAaOE6OWXNryssA3CAj8AvqZpkMJsDAZwCYBgAjoVuqjxn68edlNbTJk8cUSDRCsU/73li5mkA73h1Uo0l/jndpE/3W9mzeDFNy4YA17SsOtBL9TLcZxufeZbRuT7r+6nG56ahAH4JYB8APT3LOF8ytCzkTs60qDKV0EoAd3qC9YMWlZm/lWeZucdSFQaGYp5Rv6KV7rj/BvCtVA17n/OFBS3p9/usn2415nI9GADTCvG8MPc19zpfEKXKZ8u5N3pcyXYdgNke39cD7uWW4/8+gIsDTIrWcro+t7e86M3fTzucM++/hX4qt1JnPIDfBuiT3xd82cAcxOmWvwM4IsDFFwKYEaC+qhYxAYnWIl5cTU0ERKB9BCRa28evCK+mlShIHtW4WMwUCv7OpkVuS0840ZWUVis+7Ie9sVE8sV8+1Me8h/d6ADw3SaH0LgCKaQooWlfTLRxLMqHWWnvxMaXbX/w69hnk2YUc2HemC0UVXVyZqoiRcSle+TPujzh3CvQPAbzspVn5BADXorXid3+xff4JUji2INyiAURxkHEkq8s17eude90FwHbev7mv40w49sQ9TZHKfUyBSs8AsqWQy8Ra52pv+3kBlciPL6LaM19y5/eG35KJ7zP2F+R7oyP3oV8OqpcjAkG+wHI0RHUrAiIgArkhINGaG+7qNRABPgDyYZeihH+Pi1Y+YPKBj39okWrPw22gAZVgZTIv99aBf4+LVlpZ/VpDSxBbm1OmWCVT/je+r+NiXXtau0UESpCARGsJLrqmLAIi4I+ARKs/TqolAiIgAiIgAiIgAtkkINGaTbpqWwREoKAJSLQW9PJp8CIgAiIgAiIgAkVCQKK1SBZS0xABEcg8AYnWzDNViyIgAiIgAiIgAiIQlIBEa1Biqi8CIlAyBCRaS2apNVEREAEREAEREIE8JiDRmseLo6GJgAjkloBEa275q3cREAEREAEREAERIAGJVu0DERABEWiFgESrtoYIiIAIiIAIiIAI5J6ARGvu10AjEAERyFMCJ4xbdos1zcnUc1scc8q2M665eSqmKn1GbldCvYuACIiACIiACOSAgERrDqCrSxEQgcIgMHn80kmwzo9hsLeXLzA3A5dozQ139SoCIiACIiACIpAXBCRa82IZNAgREIF8JDBlinXeX7RsCKw5BsAZALbIyTglWnOCXZ2KgAiIgAiIgAjkBwGJ1vxYB41CBEQgjwlUVdnwgK7LtwtZXAqD73T4UCVaOxy5OhQBERABERABEcgfAhKt+bMWGokIiECeE5iCKc7icace5iJ0iTHYAUCXDhmyRGuHYFYnIiACIiACIiAC+UlAojU/10WjEgERyGMCkw/9bIAbbjzRGBxrjNk165HYJVrzeDdoaCIgAiIgAiIgAtkmINGabcJqXwREoCgJTJxoy8rrlg03xhztAqcaoF/WJirRmjW0algEREAEREAERCD/CUi05v8aaYQiIAJ5TGDixI8rnTpnp7AxFxlgPIBIxocr0ZpxpGpQBERABERABESgcAhItBbOWmmkIiACeUxg7Nh3y3uFOx9jYKYCllGGyzI2XInWjKFUQyIgAiIgAiIgAoVHQKK18NZMIxYBEchjAhMPX9m/LNz4E1hngoHZHrDtt7xKtObximtoIiACIiACIiAC2SYg0ZptwmpfBESg5AhUVc0LD+gyZGQIzvdgcDyAPu2CINHaLny6WAREQAREQAREoLAJSLQW9vpp9CIgAvlLwHx/7OquTqh+FwtcaGHGGYP0vnMlWvN3lTUyERABERABERCBrBNI7wEq68NSByIgAiJQPASmTLHO4oWfTrIh+3tYuzUAJ9DsJFoD4VJlERABERABERCB4iIg0Vpc66nZiIAI5DGByRNWbmdt9BwDMw7AVoD1J14lWvN4VTU0ERABERABERCBbBOQaM02YbUvAiIgAgkERoxYGBk6sP8YC+d4C4zzld9VolV7SAREQAREQAREoIQJSLSW8OJr6iIgArkjcPwRH/aEE97XWPzYGFMFINzqaCRac7dQ6lkEREAEREAERCDnBCRac74EGoAIiEDpErBm4sSlFWV1mGxM6C8AeiRlIdFaultEMxcBERABERABEUgzkqXAiYAIiIAIZJTAsRM+GhhywxfDmAkGtv83gjVJtGaUtRoTAREQAREQAREoLAKytBbWemm0IiACRUzgpKolFdFu5VWwONFae7gxpnvzdCVai3jVNTUREAEREAEREIFUBCRaUxHS5yIgAiLQwQROOOS9vra80xhr7ZnGOPvBwRnbzrjm5qmY6nbwUNSdCIiACIiACIiACOScgERrzpdAAxABERCBZASsOW7Cyr6OtZMA+95ts/o/ZGCsWImACIiACIiACIhAqRGQaC21Fdd8RUAEREAEREAEREAEREAERKCACEi0FtBiaagiIAIiIAIiIAIiIAIiIAIiUGoEJFpLbcU1XxEQAREQAREQAREQAREQAREoIAISrQW0WBqqCIiACIiACIiACIiACIiACJQaAYnWUltxzVcEREAEREAEREAEREAEREAECoiARGsBLZaGKgIiIAIiIAIiIAIiIAIiIAKlRkCitdRWXPMVAREQAREQAREQAREQAREQgQIiINFaQIuloYqACIiACIiACIiACIiACIhAqRGQaC21Fdd8RUAEREAEREAEREAEREAERKCACEi0FtBiaagiIAIiIAIiIAIiIAIiIAIiUGoEJFpLbcU1XxEQAREQAREQAREQAREQAREoIAISrQW0WBqqCIiACIiACIiACIiACIiACJQaAYnWUltxzVcEREAEREAEREAEREAEREAECoiARGsBLZaGKgIiIAIiIAIiIAIiIAIiIAKlRkCitdRWXPMVAREQAREQAREQAREQAREQgQIiINFaQIuloYqACIiACIiACIiACIiACIhAqRGQaC21Fdd8RUAEREAEREAEREAEREAERKCACEi0FtBiaagiIAIiIAIiIAIiIAIiIAIiUGoEJFpLbcU1XxEQAREQAREQAREQAREQAREoIAISrQW0WBqqCIiACIiACIiACIiACIiACJQaAYnWUltxzVcEREAEREAEREAEREAEREAECoiARGsBLZaGKgIiIAIiIAIiIAIiIAIiIAKlRkCitdRWXPMVAREQAREQAREQAREQAREQgQIiINFaQIuloYqACIiACIiACIiACIiACIhAqRGQaC21Fdd8RUAEREAEREAEREAEREAERKCACEi0FtBiaagiIAIiIAIiIAIiIAIiIAIiUGoEJFpLbTM57O8AACAASURBVMU1XxEQAREQAREQAREQAREQAREoIAISrQW0WBqqCIiACIiACIiACIiACIiACJQaAYnWUltxzVcEREAEREAEREAEREAEREAECoiARGsBLZaGKgIiIAIiIAIiIAIiIAIiIAKlRkCitdRWXPMVAREQAREQAREQAREQAREQgQIiINFaQIuloYqACIiACIiACIiACIiACIhAqRGQaC21Fdd8RUAEREAEREAEREAEREAERKCACEi0FtBiaagiIAIiIAIiIAIiIAIiIAIiUGoEJFpLbcU1XxEQAREQAREQAREQAREocAJTpkxxqqvfDFdWLg6j5zaRShvtV9+wYQvj2H6xaLRTLOo65RVl9S7sZ5WdKpeGInbZ5x9+WLdh0KDo7l26RKurq2MFjqCkhi/RWlLLrcmKgAiIgAiIgAiIgAiIQGESmDhxYujt5cu72Tq3V3mn8h0b6qNVsVhsT9d1h8VisV7W2la1TTjkrHec0LuO4ywsKyt7qrah7oXKCmf1DoMGramurm4sTCKlM2qJ1tJZa81UBERABERABERABERABAqOwNCJE8vCH346yIU7DDF7SNR1D4tGo9u1JVJTTTIcDq12nNCjjuPMDsF9Kdql7IM3a2pqU12nz3NDQKI1N9zVqwiIgAiIgAiIgAiIgAiIQBsEmi2rS5ZvGXPdfV3rjovF3INc1+2eSWgGpj4UDi10HDPThMof6dsZb9fU1NRnsg+11X4CEq3tZ6gWREAEREAEREAEREAEREAEMkhgt92qejSGogdHo9GjrXUPcF23D4CsaRdjnFrHMS84IeferqHIjBdeePITAG4Gp6Sm2kEgawvfjjHpUhEQAREQAREQAREQAREQgdIkYHbdY8zI+mjTSTHXPchauw2sDbWFonOnTujfry/69umN7t27oaKiolndNjY1Yd26Wqxa/TmWr/gUX65dC9dtW4caYz51HOfpsrLw7b07HzSzpmZqtDSXIb9mLdGaX+uh0YiACIiACIiACIiACIhASRLY88ADN1u/pv7sxsamYyzsEGttZWsgNuvVE9/eaw+M2G1XbLv1VujRvTsqKytQVlaGcDjcfFnMjaGpsQn19Q1YV1uLpZ8swyuvvY5nnluIJR98CGtt8uaNiTnAR+FweF6XThV/f+HpeW+U5ILk0aQlWvNoMTQUERABERABERABERABESg1Ajy7+s6SFUfVNTVeaF13J2tt19YYbLvNVjj2u9/BfqP3Ro8e3UErK4WqMallTVNTEzbU1aG2dj1ee+NN3HX3/Xj62edbtb4aoAGO+ag8XHFDn26bXVdTc/+aUlubfJlv6tXNl5FqHCIgAiIgAiIgAiIgAiIgAkVFYMSoqh3X1zf8JtoUHWdhu7R2bnVA/34444c/wFHjxqKyshKhUJsewykZ0U24sbEJC19ahCuuvg6LXn2t1WsoXkPh8IudKiqmbDe4zzzleE2JN+MVJFozjlQNioAIiIAIiIAIiIAIiIAItEaAltWPPvq893q37nuNDdGfxVx3q2R1HcdBt65dcdjBBzQL1s0HDfRlUQ1Kfs2Xa1F97wzcMf1uLF+xEtFo8mOsxjFfloXLbo2EzVXhWN2SF198sSloX6qfHgGJ1vS46SoREAEREAEREAEREAEREIGABPbc88DNat36PWNR99xYLHqAtXbjAdSEQlffrl27YJfhQ3HCcZMwetS3UV5eFrCnYNV5vvXNt9/BTbdNwzPPPo/PVq1u1W04FAq9EQmHL7fA3DfHHbQUU6cqynAw3IFrS7QGRqYLREAEREAEREAEREAEREAEghAYMX58pw2ffL4LYI9tikZPtK7bM9n1ZWUR7LTD9jj0oANw1Pix6NuHmW46rtTV1eGxeU/i3pkP4uVXX8fadeuSdu4Y0+REnAdDNnxdeZduCxc9Neezjhtl6fUk0Vp6a64Zi4AIiIAIiIAIiIAIiECHEKAr8NuLPx3aaBvHWteeFIvGdkrWMa2rW2+5BcaMHoWjjhiL4cN2yoorsN9JM0XOzAcfwmPznsBrb74NBnFKVhzjrA6HQrchYu7t5G628MUXZ23w24fq+Scg0eqflWqKgAiIgAiIgAiIgAiIgAj4JLD7PvsMrG9wx8ai7jGxmFuFVlLY9OrZE/uOHoWxBx+IffbeCxXl5T57yG41ugy/8urrePixeXjk8Sfw4UcfJ02TYwyixgm96hhzb7g8ct/QLfq/o2BNmV0bidbM8lRrIiACIiACIiACIiACIlDSBEaNGlW5rskZ3dQUPcG19gDXdQcAcFpCoSvwt3bdBUdNOBz7fHsv9O/XN6fW1WSLRuG6bl0tFi56GQ/MmYuap57G2rXJXYaNMWuMY56LlIXv6h7uOmPBgoc/L+mNkMHJS7RmEKaaEgEREAEREAEREAEREIESJmB2+3bVlg2NDWc1RaNHwrVbWmATsyldgQcO6I9JRx+JQw7cH1tssTnKy7IbaKm9axKLxbDys1XNQZpum3Z3c9Am/myTYkzMAJ+GQ84TZZ0rr9xhYJ8XZHVtL31AorX9DNWCCIiACIiACIiACIiACJQ6AbPLnvueUN/Q8POYG9sWFp2SASmLRHDQAfvhhz+YjCHbboPKyoq8s662tZCNjY1YsXIlqu+diVvvnI7a2vVJqxugEcasLCsvu6Vvl4F/rKmpri31DdKe+Uu0toeerhUBERABERABERABERCBEicwcp9Dh63bsPafTdGmMbAItYaD7r+/+eUFOGC/0QiFQgUlVlvOyXVdvPf+Evz20r/g+YUvtbUD3HA4/HFlZedzX17w2P0lvlXSnr5Ea9rodKEIiIAIiIAIiIAIiIAIlCaBESNGRMLhrv1q3egZDfUNP7HWdktGIhwOoVvXbph0zJE4+/RTUFlZWVTAeOb1/lmz8e/rb8TSZctBS2yyYoCGcCQys6Ky/NI1ZXj7g5qaBgC2qGBkcTISrVmEq6ZFQAREQAREQAREQAREoJgIVFVVhT9dF+tjbOzAWDT605i1u1lrwy3nGHIc9OzZAyNH7N7sCrzzsJ2aravFWChcly1fgZtvvwuPPF6DTz9dicbkKXKscZyPwpHQteWh0D3rN+v64Xtz5lC8qqQgINGqLSICIiACIiACIiACIiACIpCKgNmtqqp709qGvaLW/X4s6o631vZoeRHFRZcuXbDz8KEYP/YQHHxgFXp0756q7aL4vL6hAS+8uAj33D+r2WV41erPQTfiTRgZNIac0PxQKHRjpLxi3isLHl8mq2vbW0CitShukSKYhLVmSk3Nxuhyffq4U4cPT+5bUQRT1RREQAREQAREQAREoMAIOMNG7jci2tRwpHXdiTHX3T7Z+GlJ3WH77XDQ/vth7CEHYtutt4LjbJLppsCmHny4jDL8WM2TmPvovGYRSzGbrDiO+cwJObOcUPieHpGB8xYsqK4L3ltpXCHRWhrrnJeznDh9euhbaNj62bmPH7565WejK1wcsKF+A8rKKz+vbWx4bPsdt3tj2KgR1Rcdf9qneTkBDUoEREAEREAEREAEipzAyH0PGVxbu/a7sZj7Hde1e1lrk+am6dWrJ4449GAcetD+2G2X4aioqChyMm1PjxbW/733Ph6veQqzZj+Md99f3NoFNuSE3jaOmVVWXjn9tefmLQKwqXm2pGkq5U2JL39mpz9lypTmV2l7jB9f8dHixc4bn30GYGVzJ1X7TWycOGxYkzGm+cD535+ZXrlqwce/mHv3zF/vtvuI0H5Vh6Bv375Yv3495j78MJ568hEsXfoB+mze/8uxk46+YMx2O/130qRJSZJhZXYOak0EREAEREAEREAERADY5ZBDOtvVGw6vb2qabK0dY63bMxmXSCSCqjF745ijxmP3XXfBZr2SVitZpHX19Xj9jbcxZ+4jmDn7YaxZ82VSFgzU5IRCC8OOube8U9dpi55+hC7DKh4BWVq1FdpF4MpnZ3frscE96IkFz/Wq/Hz9WU+9+jI+fe/9QU11G8r5hskJOYjGoug+ePDq44857qntqvY7L1ZWtu7hq65+dq8Ro3cbOXKUE3MtYuabriNOyKJx/Tr8/pLf4K1XF7nfmXzs/GNOPHjs+D3Gb2jXgHWxCIiACIiACIiACIhAqwRohLh/7rxd6+saz4q57sHW2s1hbdIIStsP2RYnHDcJo/feC5sPHFjQKWyyvSU+//wLLHr1Ndw+7W4889wLiEajybp0jTFfOI5ZUFZefk3vTts+VlNzU322x1YI7Uu0FsIq5ckYb3x+Xv/XHpv/w2efeXrYp+99sMO6+gbHccq2X7dmTWW0rIvp1G8LhLr2RafNt0bPQVshWt4F0VAZymwIq159BF8+Nxd9u4XXVHTqtPJn5/16+y22Gw7XAsa4/D+Y5qjfG/+fPhEO/9ZUh4dm3YcbrrnaHnXK8Tftd8LJZ5yxxx5NeYJEwxABERABERABERCBoiEwatShvb5sXH9SU1Pj6a7rbgVgY7yRFqV7t644cvzhOG7i0dhy8OYoK0vqMVw0XDI1kVgshs9WrcZDjzyOm267E0s/SW5MNQZRwKyKhCP3de5c+deF8x9bUuqBmiRaM7ULi7gdvnFzenW76Jp/3Xje+lhlj8p+A1Cx1XBE+mwO03MQum23K2yX3nANxWYI1lBuGriGAtQAxsKxUUSWvYdlt/8Rja/Pxd5jqnDK2eejS5degOsiGgIcl0IVcE0MlLAbvdc3pq+6+b834IG7bsRZF1140l9+8aubixi3piYCIiACIiACIiACHUtgyhRn90fm71W3Yf1fm6LRUd5D2CZjYKClnYcNxfk/PQt77fGtkgyylKmF+eDDj3Hlv67D3MfmtRqoiX05IefjyvKKiyOx9Xe8+OKLJWu4kWjN1M4r4nbO/+ufRl//16tqdjpkcig89kdY06U/YA3ccKhZXMZoFqU2RRSO5ZZqGSWOP3MRtUBnNGDV3Nuw5uEb0LPxS5z2kwvxrZF7wITDcGwZYsaFY93mdpub4pWui1i0CT/6wSQM2Wm7TydfdvHQU4fv/XkRI9fUREAEREAEREAERCDrBLYbO7a8bGVTP9i6CxqbGk+z1ia1rEYiYfTp3RsnHD+p2brapXPnrI+tFDrgMy6jDF91zQ1YsuRD8PxrK8WWRSKPVXQq/2XDF3j7zTdr1pea5VWitRTuiHbMkVbWNz/8+J6nVnU+at1bz6OhdgWG/+wa1A07BI6pB0wElmdXHYMYQjSqbiJZYR2EbAyusYg5ttkS27VuDVbdexWWPfxf9O5ajr9ddRO6b9YHTiwKEwI22loTtqd1sXzpYpxzxg/tXkccOPXx26ZNbce0dKkIiIAIiIAIiIAIlCyBESNGRNbHIoPCIWdsUzR2YTQWoyvwJoWW1X59++DbI/fAmaedhG222rJkmWVz4mvXrsMtd9zVHGV46bLlaGgtRY5xasOR0L/DJnKraapY/OqrcyleS6JItJbEMqc/yRsXLerxu1NOXdL7nFt7rOu5BSqeuQdv3XUZOm0/FIPP+RcaQz2ahWpooxcvYq2k4tr48cYzqxED1LlRhMIGnZf/Dx9OuwLuG49jl+E74kfnXoQu3XrBOM2Oxd8orhvFJb/8Ob74fEXt+dP/uf0ZQ/ddnv7MdKUIiIAIiIAIiIAIlBoBa4aO3L+fiTbuE7P2pKZo9CDAJs1N03uzXth1l+E45sjxOLBqDChgVbJHwFqLN956G9Oq72sO1PTJsuXgGdiWxRgTdRzzWigU+o9TXv5wReO6D0vBbViiNXt7ryhavvi2G3e+6heXvrLjvxeY1aEeCCGGsmUfYN3DN+LTV5/ANqdOgd1pNBxUoNFahAxdht3m861073Xs18GV+HNKUd6UIYPmGzEUCcPEonBfeQzL770ckZX/wyGHHonjTvohnEgELmiltTwpiybX4sP338YFPzkTo8dWTX/ozru/VxSQNQkREAEREAEREAERyDKBXXY5pHMssn7PWCx6TMy1R7quOyjZ2dXKykoMH7pjc77Vww46AP369VVU4CyvTWLz69bV4smnF2DO3Efx3Asv4Ys1a5L2boxZE3Kcx5xQuLpruOLR559/jEfnPDNSBw64g7qSaO0g0IXaze+uveKiv//l9t9vd+UjWItOiDA9DcIoQx3q3pqHD2/8IwaMHIvO404DOvWCtTE4CDcHU7I0wdqIFw+4dQLN0YKdGLrWf47ls2/Flw/dgj6hOhx/xrn49qjRKK8IoyEWgmOAsrDBBeechtp1q9aedt8Nm/9ix9HrCpWtxi0CIiACIiACIiACHUDA7LbXwdvVN6w7PubGJlhrh1uLTcL9Oo6DwZsPwhGHHoyDD9gP22+/HcoVFbgDlmfTLmKui6VLP8ET8xfggTkP47U33kJTU9IYTK7jmA8cE5pbXl5+x6tjq57G1KmMNlN0RaK16JY0sxPa85gjfv/RsvBFPc6/GU55542Bl0ysOeCSiTrojLV494oz0bT6Uwz5+T9R32MoTCi20aKKEBzQraHtbUbR6vC8q+s0W2l71X2M1/58LqJLXsAWgwfgx+f9GsO23RaNTgWa3Cjum3Yz7rrjBvvrW6+v+r8jjnkyszNWayIgAiIgAiIgAiJQHAQmTpxY+daSZcc3NEQnW7i7WWt7JJtZeXk5Dj/0IBw17nAMG7ojenTvVhwACnwW9fX1eH/JB5j7WA2m3X0fVq9OHofUGDQY47wVjkRm9arodM3TTz+SPJdOAfOQaC3gxeuIoQ/f81v3fdZr16N6nHkdELEwNuSdX43CGsMw3LBNUYRemY3X/3kxtj1iMnoecRq+KOuFcFMDomVABJGUQ2XgJVpmI24THBtBNOSi+8ev4NWrLkRo+Rvo078f/nnNTQiVd8EbL7+AX1/wE+x26OiXBk2cvGf1pEmbOvyn7FEVREAEREAEREAERKB4CYzYp2p07fr6C2Kx2F7W2r6tWRGG7bQjzjr9ZOy+6y7gOVZaXFXyiwADNb27eDFuunUa5j72OGLNqTs2LcaYtcaYN8vLy68e3LtL9Zw5cxryaybpj0aiNX12JXHltjvvMGPDjuMm9DjxMriOi7DL6L+0hxqErMvMx+ABVSfaiIo1K1Bbcwc+ee5RDDrsOFTufzysKUfU0oK68WwrXe3jzvbfjA68sd3mXMowzZmsefa14vMPUDvnGnz08K3o3KU7rr7pTjhuDJOPmYCuPTrX/vKxf/f+yZDDi+aGLIlNpUmKgAiIgAiIgAhkjcDu+xw8sL5u/U+bmpqOt8AAWJs0glLPHj1wyonH47vfmYBePXso0FLWViQzDfO5mOddn372OVz57xvw7nvvt9awNcZ8EQqFH6+ojFz6yoInF2VmBLltRaI1t/zzuvfp06eH/nD5P174fNvDd+/8vYvgYONbna9F58bhfxVqiUdY3RjCS9/AJ3ddhqZ1X2DziT+Gs8uBiNpwc6obx9Y3C9lmEdscYMkFYlGE6z6Hu2oZ1n3wBtzPliD02TKsWPIO3Lp1qOjaC055V9R98Bqm/O4SDB+2M4478lB06lJe++t510m05vUu0uBEQAREQAREQAQ6gkBVVVXFZ3WxIxrrG37rxtxhrVlWw+Ew9t93NM4750xst+02CrLUEYuT4T5WrVqN/9x8O+66936sW7uu1ehLxnFWlJVHrujSreL65x8r7EBNEq0Z3kTF1NyV784u/88Jl3y6avj3unc98pzmQEipihtyYaJA2DSh8dkZWHLrXzDw2wei5yEnItqpFxptCOXrP0Xss2VwP3obdR+8jk9eWwin7gugsgxlnXqgrFt/oHt/VPbqi4ZQBE3GQcyNYcPzc/GHX5yDHbcbgu8dcyi6detce/G8GyRaUy2KPhcBERABERABEShaAiNGjO/UGP5ip2hT9NymaOwY69rKlpM1xqC8vAxDtt0GJx7/PRx60AHo1GmTakXLqBgnxiwcCxe9guv/ewteevlVrKutbfZSTFLcUCj8THkk9EdUmAWvzZ/PcMQFF2XYhwwpxmXWnPwQuGfR0yPPHH/cs11OvtLp9O3D4Ta7+bZdQq6LDRGDshjrNqBz3Rq8dsERCNWvQV20HiG3E8qjX8Itq4Dt2hume38M3GlnfOmG4aISMROCNVGE3Y0uyNYBoo5ttvI6C2bjsj/8H9wmi5+cfhL6Dey97ucPX91H7sF+VlN1REAEREAEREAEionAiBEjIk2mYhumr2mMRs92XXeLZPNjftWtthiM/fcbjeMnHYMtBm9eTBhKfi5r167FjAcfwv2zZuN/776Puvr6pEwc49SGy0K32XDoBqcy/M6bNTW1hQQvlQYppLlorBkmcNWMe/b5v5POnL/b5c9gbd8t0MS0Myn6iDoxlEcN6iMuwjEGbgqjYvHTWDL1e4gNGILyIbuiCRUwkXIgXIYYrajWoNx1EHMYjsnAuCFYh2db6ULMLRqm3zHqH/8vLrv8b3h94XOovvW/OPbs0x79129/fwgMc+uoiIAIiIAIiIAIiEBJEDC77733Fg31GBN1Y6fForExrbkC9+/XFyNH7I6J35mAvUaO0LnVIt4e772/BNPvnYGnnlmA9xd/ANdNHqwpFAotDoVC14ZNeE4Z1r/94osvJs2lk2+oJFrzbUXyaDx/ueu2fS4567z537r+dawOdUEszMjBDmj+dI0BjIuWcpH/jjpAyN2oN5mvtaeN4tWzR6DHyKOxPtwVxkSb3ReMcQBjPFcGJsmhTjXNbVO4htAE11C6ugjbKOpr7sCVV16Bi8//KQwam34145ahZ4/Y/708QqahiIAIiIAIiIAIiEDWCOxWVdWjaW39mJhrvxt13SOta7sn66xL587YY8TuOOzgA3Dogfuja9cuWRuTGs4fAtFoFM889wJmP/QI5i94Dis+XZl0cAZockKhmpDj3NUlHJn7wgtPLs13l2GJ1vzZZ3k3kmufmbfj70/40Ss9zri6rGnomOZ0N7S0Mv4vBenXEYFbHzpNoF2j6/HKj0ehx96T0OBEsInSTXK5tRGE0NDsIuxai3DjetQ+fiNG7rYLXn/tFfQf1P+Dd157beu8g6YBiYAIiIAIiIAIiECGCdAVuCFUsWtjQ/RYWDvOtXZba224ZTd0Bd5ph+1xxGEH44CqMdh6yy2UwibDa5HvzdEwtPrzz/HU08/igYfm4oUXF2HDhrpkw2aU4U9DjvNoJFw2ze0aeiKfXYYlWvN95+VwfFPmzQvP//sfFy58p3bXIVNvQW2XrWgYBczGtKj8rnRSnuO26P7xIiz8ww/RfZ9jEDVlzRbaVIVxhYHoxgQ51qJL/SqsmXd7c5qdcMSJ/fGmG047c/zRN6ZqR5+LgAiIgAiIgAiIQCET2GXvQ/rG6td/vzHaNMladzgfi5LNp/dmm2Hc2ENw+KEHYsftt1egpUJe9AyMvampCR99vBTznpyPu++bhcUffJjUZdgAjcaYJaFw6MHOFRXXjztkv/9NnTo19cN6BsYYpAmJ1iC0SrDu32ZN2/WKC6bOX7k+1GX331fjy17bIGYicBCDNRYO3YXbLC5qq/+EdS8/CbPTaMRQDmPoOp/qOmxMsPP/7J0FWBVLH8bf3T1FiWJ3d127A7tbroXd3df4vIjd7bXFFgFbscXAxi4MFDsQkObE7nzPLKCAqMRBAWeex6vA7sRv5nD33X8RERzhkMH/EXyvuILnOFSrXePakf0HqnAslvUPPJFsyYwAI8AIMAKMwB9DgCtVpXZDnVY7VhKl8oQQq7hiV5VKBSpXrIBetp3xV+lSSJfOgllX/5gj8vOFhoSG4rn3C+xy2Yd9h1wRFhZ3oiaOQzDH814qlWpt5mb1156xt6cJZlJMY6I1xWxFyp3IhCULKl0+fnzzrZsPipvXtkWWDiMQamIFwikgEBE0GvV7B4kjEp5NaYVM6cwRlLM0CFHFS7TS+yS5rit1EBYg3jsKvL6PQiWKfe45eljDYR06e6RcYmxmjAAjwAgwAowAI8AIJJ5ArcaNs/v6BM3S6vVtAZiDEOqC9k3LkN4So4YNQosmjWBmZgZB+LlRIPGzYnemVgLUZTg8XIsbt+9gzoIlePjoyfeWQh/rwxSC4qa5ebox192PX0kpa2aiNaXsRAqfh4ObW3rnzeum3jhzsW+YJrNZ5ub9YVm7A0I5M9B8SmKE33CkfKUlamjmYAJe1MHrnwYwzZwD2jzlwEs0pFUOiP1hi3AL5uVSN5AMCDy1AaXyZw1u3L1Lw3nDx1xO4bjY9BgBRoARYAQYAUaAEUgoAa5ChZYmOsHPNjzcME2SxCxxdUBrrioUCrRq3gQTxgxHhvTpEzoOu/4PJkDru27athOr129CQGDQd7MMg+PCNGrVGisT83nnz1f9APxel2EmWv/gQ5uYpa87saf1yn9nz/B68LqUlKcwCve2hyF/FUiCEhxESLwQKUppCiYChUELr/ENoMmRH/pspeTkTfERrfReTuJh4PRQGkIRenILWbp+2aQBHWzmJGbe7B5GgBFgBBgBRoARYARSKAG+SpUq5qGcsrJeK4416PV1CaCOPVcqVs3MTFGqeHEM6NsD1atUYiVsUuiGpvRpUcsrjXFdvc4BZ90vyuKVitk4msQLwkOlICzgleKRTCYmvmfOnPktbsNMtKb0U5UC5+d0z0l13/3dhlX2MzuFaXmFRZ0uyNZ1DMI0WUAkSba8cnLMKgeFIRze462hzFcaolV+EFrOJh5r4iUJIpTQcSJMPr+A+vaRsKrtWufeu3KlbzxuZ5cwAowAI8AIMAKMACOQ4glUqFDBNJxXlxRFYiPqDV0lQrLHNWkTEw0K5s8nZwVu27I5MmXKmOLXxiaY8gnQeNez5y7Aee8B3Ln/AIGBQZGlKGPOneP4YEHgXRU8t5E3Fa7edXf//KtL5MRHP6R84myGv5RAfw8PZRWfN01vnjn/39a1m3IKRA+9ZX7k7mMPZYUG0EuCXKoGvACFLhTeGbmqUwAAIABJREFUo6qDFK4OtVVuiNQSG5Fi6YeNQAFeCoUlr4ffrXPIpgp+PXT27ELDmzXT/uxe9nNGgBFgBBgBRoARYARSOoHSNWsW0IcYmkuSZCtKpHxccas8zyN3rpyoU7M6WrdoipLFi0GhiDO8NaUvl80vhRKgVtfXb97i0JHjOOl2Dg88H4FmHo6rCQLvzfPCTkGh2nv/2hmPeNWxNNK6mWg1Esg/oZvNV65kPLPPuev1M+593zx/WZIoFHzd2vWRK3tO7HDchqDQMKjLNkKxnhPxOUMBKBVKKMIC4DWqOkwqtoRBlR4STwCJgCb+paGt9I8oEYAmdeJEKEU9VAY9dO8eI+yTN8w5naFMySKuHXva2A9o1enGn8CZrZERYAQYAUaAEWAE0i6BunXrKnyD9Y20erEHkcSmEiEWca3W3MwM1nVqoknD+rIrsIVFnJVu0i4otrJfSkCvN+D23Xs4dvI0jp10w9t37+Men+NEgecvCpxiizq90uXWmTPU6prsjYnWZEec+gewu+ekCtr3YPjJg64Tnj18kjFXngJo0bYD6jVoBE6hkeuohgYFYOvm9Tjp6gLRJDNytu4Pde0OIJoM8B5eGVa1uiCEU0PkBNlFmCZXEiQDNAoOurBgiME+gN9HCCE+RGkICs2fO5tn9iIFnTt363bhfs26F+25eBR3Tf2o2QoYAUaAEWAEGAFGIA0TqNCggWWIb2hfUTL0lkSpRFxLpdbViuX/QpsWzVC9aiXkypkjDRNhS0tpBAICA3Ht+k0cPnoCp86cQ2hoWJxT5HnOhxeEnWYazfIbl848Te51MNGa3IRTef9OHicsj+44sGnHqk1tVGYaNGnWGr37DgOvUEMCAU3ATkSqQSUIHEFgoB/mz5mCxw/uQ6/JgcK1muHxyU0wbTQQIuGh0QVCCvaHoAuG1vctwj6+lMzVQqCJCf8me6GCt8cMHeH5OZPJqgEVrT+lcnRs+owAI8AIMAKMACPACHwhUKFWrezBQYbxoih2IUSKMzNw7lw50KFtK9SvUxuFCxVgiZbY+fltBN68fYdLV65h1+59uH33ftxZhjkuVOD5o2bmJrNvXqDuwsnXmGhNPrZpoudOA/suPbDdebhCZYLJdrNRvmIViBHVaAAqW+kJiiodxhHwRAdIJjjsshPrVs+CoFaDEzmQbIWh++wHNQwgSkNoiWLF/Ju2bXFRnTfnnMs3PD3L25Fwe+73ptJOExvGFsEIMAKMACPACDACKY5AmSp1c2m14XaiKNoQQtLFnqCpqQkaWNdFF5t2KF60COjXNFswa4zA7ySg0+nw8tVrHDxyHM579uOjT5w2JZ2gEM6aqTR2N6+evZRc82WfhuQimwb6XXrQuf6coaMPBwaEqNt16IQefYdBTy2qAiDSREsRyhWgVVmp9y4nwqDVw2m7A/Y7bkGVOtXdK1SpFLp7x67q2Qrn8y5bsuTB4PCQy7XbdXV7mT691r5UKV0awMSWwAgwAowAI8AIMAKMwHcJVK/eKItvaKCdQRR7gRCT2Bfmy5MbQwf2RQPrOjA1NQXPs8dzdpxSDgGaqIkmZqLW1iUr1sDj5q1vy+NwnKjg+VMapXrCbY9zN5Nj9uxTkRxU00afXNmqVa+9ePSkQq4CRbF45QYYaNLfOE4MkQWsBI4YcHDXZjju2CJVbdJgSeuRvacNqNgwYM6JE5ZhCkWIvbX1b6nrlDa2g62CEWAEGAFGgBFgBFIbgQoVGliGiMGjDKL4DyFEE33+SoUClSqUx78Tx6BQwQKpbWlsvn8ggYCAQCxc9h/2HXKNM9ZVKSgclUrF5Lse7s+NXRKHidY/8MDFZ8l2bm7pV3fr/iYsJNR06JjJqN2wKc239J1GqK0VXo/uw27CSLHbwD5z0xF+ir09c/eND2t2DSPACDACjAAjwAikPQL56tbVaAJ1nUS9YYFEpBiFVdVqNZo0rIf//TMaGdKnT3uLZytKswREUcT6TVuxzmErPgcExlwntbgqhAWc0my+59VTvsaEwESrMWmmob4mrl/eZu3kmXtNzSyxYZszRE75ndVx4IgEfXgwuvzdRhy2bFbjWZ16nJZr2rDGCDACjAAjwAgwAozAH0nAji9Vya2qXqdbYxANpaIjMDUxQeuWzTBx7AjQf7PGCKQ2AtRl2NF5D5avXv9NnCvP8wEKlWqYKQlzvH79etwFXxOxYCZaEwEtrd9iZ2fHm2fL5DFtkn25pi3botegkXLcapyN8OBhwOmjB3D5hvulLN171HK2sRHTOiO2PkaAEWAEGAFGgBFgBL5HoEKFupmCpfAVBr3h7+jXqNUqtG/TEhPHjISJSQxvYQaTEUhVBKhw3brTCSvXbISvn1+MuSsExT21UtP5jseZe8ZaFBOtxiKZhvqxI3b87b7PHx133l9o6KhJqNukVVyhrJGu6hx4ImL6lLHisBmT6vxdrfaFNISCLYURYAQYAUaAEWAEGIEEEyhVsUafcK1uRfQ4VpoNuFnjBpgwZgSyZ8ua4D7ZDYxASiMQEhKKdQ5bsHHLDoSGxaznqlKqNpYqlLO/s7OzUYxZTLSmtN1PAfOhovV8p7uPrhw9VWj0xOmoVqcROMTl7RvxPU4S8c+4IW/aXDibx56jaYRZYwQYAUaAEWAEGAFG4M8kUKV+q6z+Pu/PipJUNDqBMqVKYMqEMShbuhR4/jsebH8mMrbqVEqAWltpPdeFy1bi0JEToF9HNZ7jg81MTdrdunL2hDGWx0SrMSimsT6oaL1i+/CR+6EThcZOnoHKNet/R7RCPpxUtE6cOPx163q187LkS2nsMLDlMAKMACPACDACjECCCJSuVOvf0LCwqdFrLlhapsP4UUPRpkUz0CRMrDECaYUATcx06co1zFqwBI+feMVYlkKpPG/Ol65//fraJMe2MtGaVk6MEddBRas0R/Vo8Zz5hcZOnonKtb4vWmmtVh4i5k2fbGg3YWSBIXXqvDLiVFhXjAAjwAgwAowAI8AIpBoCtZp2zPzu9Ys7hEjZok+6dfMmGDNiCHJkj/HtVLMuNlFG4EcEQkJDsWHTNqzesBk6ne7LpRy4cHNT8w63rrodTipBJlqTSjCN3j9l/X99F42euG7kP/aoUa/Jdy2tIDSmleCk6x6SLlf6WVMGDflfGkXClsUIMAKMACPACDACjMAPCZSqVHN4WHj4IhAIURdmz54NE0YPl+NZaVwra4xAWiRw6849zJq/GDdu3Ym+PKJSqfY/vHGxbVLXzD45SSWYAu63I24Ky2PadO8/vspayNSy0bVr1yzefHyPFz4fvszOVKVC9oyZUbJgYQSl1xxNb2oRkrdIfr/XVQTfB84+JHbG3xUXDue1t+n/xLbnQGX9Fh3kOqy0iA355pct9V3n4PP+NebMmnR/6rhxZW1Y9uAUcCrYFBgBRoARYAQYAUbgVxKoUKG/Mshw55woGqpEuQZHJV+aPH4UsmTO/Cunw8ZiBJKFAA1bJUQCOA58NF1gMBiweMVqbNq6E9ro1laOe5M1k1XjC27H7idlQky0JoXeb7q3o5OTUB7a/NfPuJd54/2ikqWJpuv9h57p/N98TMfTd3j0EPHyv+QZSpIE6m9O/1YoFADPEYmIMMuYIaRs6ZLBmTJl8fT0/bCuTsXKgbmLlrj+uV27D3B2VmwY/8+LajXrZes9eAzVpeAIRw2rsRoBB3pogSXz7bXF2zUourBr3xe/CQ0blhFgBBgBRoARYAQYgd9C4K9q9aoHBQXtBsgXH2ArqwwYNrAfbDt3/C1zYoMyAsYgoNPrERQUhODgEAQGBSMgIEDWGhmtMsDCwgLpLS1hamqCC5euYMbcRXji9ezLsBy4QJVaOe3B9YsLkzIXJlqTQu8X3mvn5qYwvHyZ9d2zBzV8X7+bdt71ZEEpXK8ARBApwtrJRdZSpdZQmiBJEGJmppMIAZEkWczKb0io9RQSBJ6DRHjQnystzPTN2rW5nLVYwbl+T7zHnD58ynqNww6IHBXBXzxdvq6cRFRw5QQe/j6vsXvvNu/ynZr+NaGhTcAvxMOGYgQYAUaAEWAEGAFG4LcSKFGxxiRduG4CAbGImshfZUphxr+TUKxo4d86NzY4I5AYAlqtFi9evsa9Bw9x8co1UBfg12/eglpVaTPRaFCqRDHUt64D69o1kD69JaZMm42TbudkYxltHMcZBIE/VKZwnr+dnZ2/BrwmcEJMtCYQ2K++fJmrq5oPDejr7LB58L0rHgUNBCqDwcAJglKWqeF6EekzZEKO7DlQrnwFVK5UBekzZZAtqtHTTkfNmx4gg0GPmzdv4tKlC/D2ego//09QgBpgI8Su3mCAxsSEWJqb4dMnP27Zms3IlisfOGqljdWoyzD9YyCASsVhw9I54DJo/tm5YvW8X82KjccIMAKMACPACDACjMDvIFChf39lyNU7uwyi2JIQIj8w0WexFk0bYebUyVCrVL9jWmxMRiDRBF6+eo0z5y/g2Ek33L57H+Hh4d/tS6NRo2rliujToxuuXLuOzdsdERQU/OV6juduZkyf/u8r5048SeyEmGhNLLlkvm/+sWNZ3HdttXt841bb96/eZZMMEkd9yCVeiQKFi6BV67bImDEr8hYqDBNTc/CyVTVCdFKL6fcC/anHsFxCif6HI1AKAvw/++O19zME+Pvi8KEDeHj/LnhIkHRauV+liQVKlS2P3v0GIWv2nCCcQvZjp+9P6HVffIY5HoI+CJP+GW0oXa3cUIdFS9ckMybWvREILHviqtY8J8VDJJHPlM4i0LZaXS9w9FUEaymNQH+PNcoKFSrI07p+HVhbsWKSU8intDWy+TACjAAjkBoJ1K7dKPdb/897CJEqRs0/vWU6DO7fB727d0mNS2Jz/kMJhIaF4cy5Czh89DguXLqK4JCQeJEQBAGVKpRD9SqVsNN5D969/5pbh+O452qNesT9a+4H49VZHBcx0ZpYcsl036qDB3Me3LFt6MvHT4Y8e/zEglcIABGQv0Bh1KpVFzXr1kfWrDlgAAeR6k4aTGqUxgNEhErBIzQoEG6nT+L2jcu4c/sWwkLDwAsctFo9qlSrCZvO3VC4eCmIsvClLxMj9A2dCXU19n78AAsXzvjYsY9t5xnDRp02yvRYJ8lCYMzyxW3e3Xu8/qX3CyutXof0Vul1GbJmcqxp23P48KpVA5NlUNZpwgkQwg22mzI6wO/zsLcfP5pRr4iCefKGFfyr1MjxXWz3cuwlQ8KZsjsYAUaAETAigdKVatUJCw9fSwgpEtVtzhzZMWvq/1CjWmUjjsS6YgSShwA1fFE34N37DuHs+Yt49eZNggei3gW1a1TD7bv34Ovn/+V+juc+KRWKmQ9vXFqS4E4jbzCW4kns+Oy+SAJrPDyUl3bvbPno6o0VD2/cyR6u1UJlYoocufKgR+/+qFbLGqFhOih4nipVGEQix5EiMjY1qSAlObZVAM/x0Gt1MNGYQiRaBAf4Y8umjbh6+QKCfH0ginoQjkejpi3QrUdvmGXIKg9No2Npo7GxELU45boXLk5bfWesWFivR9PWMXJfJ3Wu7H7jEJjrtL2yy7otFxSCShESHgalSgVRr4O5qRotW7e6FVq4SCV7a+uIoAXWfisB+80be5zYtmuDXuAF2eOCJlVTKpDezFys3655jXGdu1/5rRNkgzMCjAAj8IcTKFG+RledXjeHEJIrCkXhggWw/r8loOKVNUYgJRPw//wZBw4dxX7Xo3j0+Am02kSHnsLczAxanRZ6/ddHSI7jwhQK4T/Pm5fHJpYDE62JJWfE+9Z4rFF+OBd4ap7djFqCQgkCBSTCYfmatciZJy94QQWdSEDAR7jjyioxMskSF/l1kucTkZgpwl7KRdpOeTlRE3Uh5oiIvc6OcFi/CjwvwaDXQ6XQYKL9LFSsVAUip4AoeworqA0YCk7Egll2uH79kt+0bYvzDrG2+erYnuS5sg6MQaBpj27z/d76jqXu3VFZoQ2SCLVGA21gALH5d3AGllDLGKST1oeDm5tm27LlPv6fA80VypjJ1Whce+FiRbdtW7bMNmmjsLsZAUaAEWAEkkKgRIXqo/U6/SSJkIxR/ZQpVQK7tmyAUvltTpCkjMXuZQSMRYBWF6HJldY6bME1j5sIDgmGJCd4NXojAi9sfXznSs8vLpoJHIKJ1gQCM/blG04cKrByyvTD3o+fFNWJBo5TqGHbfQCat2oPTqkGpxAgiQbwPPelTqosK+XAVEAyUpFqWs4m4jAQSHI4Y0TEKhWwBlGEUqmShXJIoA+2b1qNE4cOQCA8DEoOlSrXwMgxk2BmYQWdJEboXkgIDfiEIf16IW+BnHf6TB1Xf4B1y0/G5sf6SzyBen93WBbsHzQseh0jSd48HoJBiy79e9QY0dn2YuJHYHcag4DDwYOF1yxb/tAgKAVOpIEBX39tU1ceC6t0LqednFktBWPAZn0wAowAI5BIAsX+qjrVIIqjCYnIHEzLgdSqXhUbVi1NZI/sNkYgeQkEBAZh6w4nbNnhCP/PAXEmcDXmDBSCsLtGhZK9Nm7cGJSYfploTQw1I90zzXFr2a1zFu7w8X5dgpauyZGvKEaOGYd8BYtRZ90Ia2cKyocTYYcl4IgBr7yfYeWyJXjx6I5cAzZz9twYMX4y8hcvBSVPLbMSaKbrT58+YWS/rshbNL/7ILtxHfo1aP01KttIHFk3iSNQr3PnZcGf/IdFv1vO0cUBApHQvkeXmuO79byQuN7ZXcYisMzJqcS2tWvvyYHl3xZKhkWGdC6nnJyYaDUWcNYPI8AIMAKJIFCifI35OoNuCJGICb2dJqVp0rAels6flYje2C2MQPIRoFmA79x7gLmLlslZgX9V4zjsU5sr+9y/dMkvMWMy0ZoYaka4Z/HOrc03z1/q6P3smbkBPCpUrobxE6dCodLIMaMSF2mwNMJYxuqCuifL0atEAi//LWLnto04cmAfgoMC5SRMfYaPRr2GTcEJajlGVtIbcPW8G5YunoWchXJdGDh9YuuhDdr5GmtOrJ/EE/iRaOWJhA5MtCYerhHvZKLViDBZV4wAI8AIJBOBYn9VXWQQxUGEEA0dgiakad6kIRbOnpZMI7JuGYGEEaD5cmiNVZrZd6fTbuh0v7YAAc9zBzObZ+h78eLxjwmbecTVTLQmhloS75m4Z3PGTf/MuhH84WMehVIN6yYt0G/ISAC0hhcBiYxTTWmbEyFaI42/nASeENn48/qFF6aMH43gzz7QEw51GjTD4FHjwXE8eEKtdjwcNi7H/j07kb9k0Q9dpk0qO5lZXJN4ipJ+OxOtSWf4K3pgovVXUGZjMAKMACOQNAJxidYWTRphwWz7pHXM7mYEkkiAekS+ff8B7hcvY+tOJzx5+izZXYHjmjLP84esMmfre+XUgUR5XaY0XZTEbUn5t6866JRz+sh/7ob7B2bQGYAuvfuhTceuIBzN3Juy3yN8G5ZNQCQDBEEJXVgwFs6ejns3L0Ov0yN/kZJYuHwVtCIPgWY5Nugxf+ZUXL/mDrVG4b/+4J4qLctVTXSB4ZS/0yl/hky0pvw9ojNkojV17BObJSPACPzZBJho/bP3P6WuPiAwEB43buGg6zGcOX8BwcHxq7maHOthojU5qCZTn/OPHTPbv3LJ4TtnLtWROAEdutjCpmtP2ZWWloyhmXqp8TviTQKNHk2W7F3GXR0tucNFWGCJqMfpI/uw7r+lEA0GFChaCktWrEOYKNLoDuhDAjF2WH/4+LxCloJ5r/af8W/LcY3bJcpFwLiL+DN7Y6I1dew7E62pY5/YLBkBRuDPJsBE65+9/ylt9TSJ6tOnz3DA9RhOup3Fi5ev5Bw0v7Mx0fo76SdgbDs7O/7GU88lZ/a7DhOUalSsaY1R/0wGL9ASN1T0RZSXSe1NyQEHdjti26b1EPVaFChcFNPnLQOvNpXjYH3fv8LgAbaQDHoUKlXs3Kg5Uzt2r9GYCdffsPFMtP4G6IkYkonWREBjtzACjAAj8IsJMNH6i4Gz4b5LIDQ0DPsOueLg4WN44PkIIaGhKYIWE60pYht+Ponxyxe02TR74W5tmJ43S58Raxy2QakxgygSOS26nBU0BWUK/vmK4r6CFhLWqJRwO3IYK5fOgSSFoWSZaphsPwtqMwvZdvzi6X38M3o4iC4MpatWPJm9d98mzjY2v/f1T2IXnIrvY6I1dWweE62pY5/YLBkBRuDPJsBE65+9/yll9bfv3sOq9Zvk2qu+vn6/JXb1eyyYaE0pp+QH81jm6qqeM3zo9RC/zyUFpRk27XCCwjQduMjERvRWmrCIZgxO7U12aCYclDzBuVNHsHzxXIg6PZq2aIv+w0YhnHoTAzhxaC/Wr1oKlcCR4XYTt5Fho3rac5EZqFI7hFQyfyZaU8dGMdGaOvaJzZIRYAT+bAJMtP7Z+/+7Vx8QEICNW3fAZe9BfPL1++2uwHHxYKL1d5+Sn4xPCOFGTZuy2WHJcltR4tG6fSfY9hsKAoVsdeRoBt7I2NW0IFppqRSRZpQigALAvl2O2LZhGRQqNbr06IdmbW3AK1VQQMLiOdNw5uRRqNS81GvKhE6LRo53TuHbmaamx0Rr6thOJlpTxz6xWTICjMCfTYCJ1j97/3/X6gkhuHDpChYsWYmHj5+kSLEaxYaJ1t91SuI57vQtW/Iv/eef24awUIvseYpg2SoH0CRMaUGgxgcBEUUsnmWHq+5uUGpUmLfCAdly55dL+4i6UIwb1g/vXj6B2tRC13PMiDrzxvxzOT79/qnX2BHC48zUiMxXsVrJuiWJDRd/N+vfKVp/tI4HdUsS5wSs43eeBTs3O/puBkUsa+c0hBC1ln6hUkOhJP4vAk750y/tre0NSZljmhCthHB2Z6YKeSxrZPng7WcepAuUkahU6ZAunQW8ddyL902DDall35Oyn+xeRoARSJsEmGhNm/uaUlelNxjw+vUb7HDajT37D4NmCU7pjYnWFLxDazzWKD12PnJy2bSlDT1c4yZNQ9Va9SFFZttNwVM36tR40YBRg/rg1aunyJI9L5av3wzwSgASXnp5YvyIwVAQoGz18o8GTZ1exaZixQCjTiAVd2bn5qbISsILvrj1sNwTz8els2bMUJknfKmXPu/kVfEcD4HnYarRIGtGK+nF+3dOgkbzpErlinczFMt1t1c568/fW/6vFK12xI4v4F6r0MPrt8s+ffykdBarjNUkUSwVHBIKrV4PrU4r+xvkzJQFZqYmIZ7e3i4WlhavCpctfSdr7vwPfM6f97e3t//tmcq23D5m5n3vXbEHV683DgsNy5Y5g2WHl+/ec4Effa1UCoWS5wXotFoIKmVI+kwZgwvlzYfXn3x2ZMuV5cZfNatfOvrO/0VC47eTQ7Q6nTtXYp+LS3tteLipwWBArfp1rwUpNYfsbWx0xvq40D3n9hbM9P7u89b6oOC6omio9/KZt2V4WJiGBgno9XqIogFqtRomGdL5FC1QKPyt76edWXLnvlG5SpVrhRqpXllz1kkS/MZaCwjh1l86lsH35ces7168LvnC+0UenpDMYaHhoCkJVKam2nIVyt8wFCjsam+dQuZstMWzjhgBRiA+BJhojQ8ldk1SCVDL6kefT7h09Ro2bXXE/YeeKSpu9UfrY6I1qbufjPcPXzqv8I4ZCx7pdHquUPHSWLB0FXSiAJIGEi4lBBtHeLx85okxw/uDGHToOXAE2nTsjHCdASoFD6dtW+C4ZT0AAyrVqb7Z7cDhngnpPw1ey9m5brP4/Ph1NTEgbMm18xeLEk74acSz7G4e+YcysTA3Cy5Zq8q/JUsUO/5GbfEo9sP0LxCt3Ab3/eYPr3s10PoHTPO4fK2oJEpKOs+oYk4/WxR1n1eplNp2Nh1uBOhCxpLCJW7YW1uH/8o9p1bhzK6uub29PJs8vXFv+rs37zKRaGnTYq8h7kJVEn25IDVs1viR0sJsUO78ha/0iuc6jCpaCeFmO26rc3LPoW1Bvv455SRwAERJjwq1qu/NOnWajT3HJUkoOri5aZ55eRYXg8Nmnjl6vKEoyu+kYhTw+h6zqPNLDHpSulrlg5mzZ1lauk7Fm13L1JKt1r+6bXB3t3hw/XIRDacccfH0mfZhIaEmkpw1T35lFGM6PETUatJwR6VqNfvaVK8e9qvnysZjBBiB30uAidbfy/9PGD00LAx37t7H3oOuOHLsJOjXqakx0ZqCd6tl7+4z3fe5TqIZde3nLkHJspUgcQqAkyJrsabgyRtravRpVU6+JGH71jU46LIDhFNincN2WGTODslAcNPjKnZuWQtvr0ewtEoXPsdxa63uVWp6GGsKqakfu3v3VLh1ra/rhm2zVUqlRbjewClVakjSj5Mry6KAi0joFSUI1GoNgoODQIvm1m/e9GaJxnVsepWr5h3FIzlFq909J1X6R9KAHSvWzVAqVRYiPfKRL2vkIxH12B+PUsREpAZWiWbZlvIXKfiqRttmPYc1aHEWXPK//XG6cS7zp8evNzis3thIoVCpDYTOI0KAyWbfSObRz1jUXkT/HidFbAwt9aRUqaQSJYu/rNm2Zafetepd+dn5NKZoXXR4T5N9KzftD9NpVRz3VTpSTxCVwJO+QwbM6Ne2/b8/m9P3fj7/7LH8N50OuDx9+OgvXqHkOV6AaNADHK07HZUknXyzdVKkAIw6v0qVCmHh4VDxPLFIZx7QfcTg2SqrLEtsSpUymiX4R2ukLyrM9uzsfWzH7pmhIeGZdFodr1IpIREiv9Gm55fONXaT9Dq07mrTe0q/gQ6JZcjuYwQYgdRJgInW1LlvqWHWkiTh8VMvnHI7h70HD8P7xavUMO1v5shEawrdti1XzuafN3jE7RdPX1pkzJoLK9dvAa3PSmRJEY8n9RS6rsRMi6cPeeAQHOyHXn+3g5IjqGldH4NHT0RgsBbPnz6GQReK1UsXwP/TexQoXuTG3WvXKiRmrNR8z54L5zq5JOjeAAAgAElEQVRtXLl6qo+PX1EqKGhhaF4QIEkENLdV7Bb9FEX8OOa5IoQDx3MgkgRIBGYWZp8q1am23TRXvvHUDbRR587LAj75D4t+11fxK6FDjy41x3freSGhTI/cuNZpxaJlEz699ylLjzs98xFW4G/tbbE/CbGXycl3RVxFNRb9l4lCMGTMme18s14dO/St3sQvofOL7/Xzd+3odnLvAbtP730KqdQaGKjylicY20v5Z/biyK2hVa2oP4FokPcznaVFWMHSJf9baz9j7I/mZCzROnTe7Pb33a/sCA3TqQhivgQhnACBSMhcINfag2vWD4gvo6jr/jt/PsMdt1Pznty40yUoJNRUPo00IzohEGIdXnk3Y71v4KKMl5Ed0nsJR99zRLzgo58HywzpbnTu03Nqr8bNDiZ0fvG9ntbTLmpdc8j2DVuG+nzwKcSD4+kMCH1pRKjY5r++FYr1eeN4BSCJKF6m5H+bFi4cEt8x2XWMACOQNggw0Zo29jGlrcLXzx9uZ8/j8LETuHLtBnS6X/LuNlkwMNGaLFiT3mn/SRP671ixcg0hCoydOA1VrRskvdNU2kNUOR9CJJw8tBtrViyGQqnBfxu2IszAw8/nI2hc3aO7HtjnvAMKBS+tPeTSv32VmhtS6ZITNG3qguhx5Mi8ezdv9w7X61VUqCVHowJWqwsjNatV965gbd1658b1/T5/ChgWfaykiNb9np4Wh7ZumvX0jme/4NBQNRfpemrstRCeAyeJyJM7V0D+8iW7zB8y+ogxra4Obm7p3fbvnf/M82kvnUEUIpWqcZdBLXY0EZFSqe3+v1ElB9So7/W9AYwhWkcvnPf3rXOXNgWH0nhS6tYaU3jTr2hGqfS5M689unFr/EUrAfe/lUua3/e4tfCF96siglKZTKc3Qiuam5loi5Uts7JMy5ZTBlSsaNRq6Ycf3ipy1HHPtJtXr9no9BKX0H0XQSAAKFqsyL6ty5e3Ne6BYb0xAoxASifARGtK36HUNT+a9+H23ftw2XsA7peuyHGs1OKamhsTrSlz97jyNWu4ej983IRXaLDZcT94jUnKnOkvmJVsVOGotRUI+fwJvbt2AM0q3KFzL5SqUAV6XYT7oBIGrFq+AL7v3yJrnqzBA5dMzz3Kuu13Ewn9gqkn+xCTnTbn1D19c/LcyVPFCC/AIBEoBProa/wmSiLUJmq5bm62TJkNinSmN195vaxkDNG64ODBTB/u3T3lft69DHX5pgKDWtni06i7ZVSL7rL6vXvD9FqolCpIei00GrWhfedOC4Ly5JtijAQ40zdtKvjM8/7Ou9dvyVx4WYb8uEW5CctXyda4L57QP7gxwvZMjZDNu3YcPqVHn+XfuziponX4otlt75+/ujMkNExtINSt9VvRKjvw63Vo0rbZ9BkjxsTLPZhaJYXsWeaePHhkeHi4VgVBAVGSIERzO45xtmh5L56PmTAikle8TorAgxgMEAhB9Tq1bucuXbruqLbG+f0w22lrobtuFw49fOhZFAoFlDSMIwGNnmEqWnlIKPZX6fHbFiyen4Db2aWMACOQBggw0ZoGNjGFLMHXzw9Oew7gwOEjePnqDbRauTZBqm9MtKbALdzg6W6x8O8hb16/fG2Rr2BRzFq0BoIyYQ9BKXBZiZ+SHM4XIVoFHpg0ahCePrwPtXl6TLCbjcCQENC4TZ6IeP74PrY7rIWJikezft07bpm90CXxA6fsOzefO1nm1PbdHo+eeSnpy7OEWiapAKBuIvTvqIQ6P1txlMASqOtmtKRNUfclxtI69eBB08enjl9+9vBJaSq6oyxUccX8xZ4ffdinfwSBGjS5eL1FjBFLykkIDwnFsLFjVvVt02YIl4Q416Vux0qdddhx9c2HDyZi5DriswbZDxaAUhFRe1l26+b5n6wl0uUZHIYNGfj0SeubRe25uLMjJ0G0cotc99Teu9zhhNagV0btt0B4SFzMt7X0JUO+Avm8Gtl2K9enZs2gn50jGvNpumXD8r3bnAaJkuyHLu/fj5rs8m4wyC80os6sHB8qSfE6+1FxpPJ5UXCoULmiV+5aZSpMaGiTpGzjq92PV9y9aO354OBgjT7iXUKc8ao/Whs9v9R5Xa1UaLuMHlq1v3WjWz9jyH7OCDACaYsAE61paz9/x2ro/988btzCouWrcP+Bp5zbIfqL/d8xJ2OOyUSrMWkaqa8RS+Y0drCfe4RA4KbYz0S5KvVgkJKUkNNIM/v13UQYWTnQzJoRlkQRYZ9eo3+PLiC8BiMm/AuNefoIqxwhUECPlYvnIMDnHarUqfax2qhxBe2trYN//cyTd8R1ty/nOr5w7a23795n1EoGOe5UoVDIoX7xqOFLRINBUms08sO/aDBAlMSoVKaRkZPfzj8qmpr2T0VrXNathIpWmjjq7pL57i+ev6mkUWlg0Okh8Zy8BjpG9BapByK/RcUKITSjrompqSy+qaAhhPAR2ufHCihqLbRPvUEPS1Mzcfi4kWva16k3NDJ4NkEbOP/2sSxXF++89+zVu8ygSYmUSog/9dKOdCEQJcnc1BRCBvMXYX6B2QSOV4fpdYAk0ZRNkb18J18uAWwG9PhnbMcu87434cSK1rH/LWt+cd+RvQaJKKmopI2KcF6SYIhlQM6QIb2uYad29ce2s3H/GTgqWLm1Kxef2L1/qE7ieBrnKW+aFJGgKKpFbf+Xb1FrpCgSExMTiQfnT4j0juN4cw4kT6heT1M1RQ8Y/WYaX84vtc4KPBSchJKlil2v1Mm2/oBElslasH1Thf3bdh0P1eqslAo1iJw0jn4Gf+aC9fVw0/cuVJCXKV/27V/VKrUf0rr91aS8PPkZf/ZzRoARSJkEmGhNmfuSWmYVEhqKxctXYetOZ/r/ytQy7QTNk4nWBOH6NRe36mm70233vk4mFlbY6nIIIqeSs+eyFkFAAQm9u7SHv8971KzfBDUbtpQzstJnVmqPfvbkHnY4rAAvcNJQ+8n1ZwwbdyYtsVt00cnk4qbj5154vaxItVlsCxV136SCSSTUYkfAiSIszC30tarXfPDu1csdZcr+9WhI315XPgNfSr9cP+Ne1WHnVitLS8uyz56/GPLR18+MWm6pqP2p9ooGNyGitb+HhzJ402Z3L8+nlWOXcYouWGQLG5Gg4AUoOF7XvGmjh15eT3eUK1360d9dulxVmJp+ydl+49zFyo4uzpkLFSrY/9qNmxVfvH5pwisVnGigyajoIZElxTdimLo+m6pVYa362bYZ37bT8YScFzsHB83102fOfXj3vtKPrIV6SYRKoQQxiKRgicJPwvS6DY0aN7wbkMnkssZgRh4+fhxSsE5JjeqdXlCamgom71/XOHX6dBV9SMhAb6+XGZQqNafT6wGBgyhSq5wSJipFaNvJo4sOr2r9OjGiVeI4mFtZupxxdOz4VS0SbtjcWbY3zl5YqzcQdcT3v/uKAiYqjb52+yYNp/cefDY+3OasWzfzwO49E0N1Ok4l0HrLX5ucdIvKTyLJvhXU/VnBK6QKZcq+0IeHre7Y8e8bDWpWpZnBtRzHhREa9A+YX7p+N/c2x+3VLcxMu7tfulxFpOmEOV6OLIhKxPVNAixCUXL4q2qFLVl4oVdC6/jOctpW4tzew+d9fX2taFmuuBp9cOAUgpxMShceDlMz05DipUq+8/3sv0MSRa1SqYBCY+LdvnXLV+9y6q4OL9wsbfhwxecgsGsYAUYgBgEmWtmBSCgB6mkUEhIK90uXsWDpf3jxMnVmBY7vuplojS+pX3hd7uLF7ga9e18qb6HimL9iA8CrIIr6XziDFD6UKGLymKF44fUQuQsWgY3twMiShzwtGInQID8sm2cHEBFFqlee5XHkxOQUvqJ4T2+Nh4fy/QX3C4f3H6oEPtLcFcuoGJVdlT5GZ7RMH1K+TGnH8ePGzrNQq5/Ex4JDCLGau3j5qMs3rvV/++F9FgqXCgnaflYkJr6i1cnJSbj03Gv25ZNnxxpEcNx3Qj8ljsglTzJnzBRSNF+BfTOnT52eTqN5FB9gdB1zliwbds3jep8379/mppZ6KtLoGqIL8SgLLpU4uXLm+NzcxqZcr6ZNv5T2+dFYTvfuqZ6eP3P64O6DNUS5lk1McffFhZpmseUBi3QWD+o0arhcrF5zo308y6/M9XS34C4+HnXm+PEGOr2hVNDnAEu1WkUsMmR41KJ9m4WD2nXY+KM5/sjSSkWiRQZLl9NOX0Xr4h3bZu3b6TQmXKtT0QzScYlWKgSpy765qal/u2F9mg9t0PJSfPZk6a5dzQ457nL2Cwg0VShVEZmpo7WvrtsEaoUg5s+f/1KXDn8vaWxd6wDHcT/9JUgI4d6/f198zMQpwz5+9useFBxiSs8u7Te2rJQzS0sSNCoF6di764hhHbt8Ny449tpcrp4vsHv91kPPvV8Wpy7tkeb9L5dFuCLTGFyaxduAjOnTB+UpUtC5UtOGc/vXavA4PqzYNYwAI/BnEWCi9c/a76SuNjgkBI+feMHRZQ+OnjiN0NDUVXM1MetnojUx1H5wD32I9fK+bWb44JOFBj5b5squEzJp3o+q1jE8PoKh/5o1ysNz53oF+QXkplbEoWMn0wKVRp5l6u6OWv9ctq7H7p2bYZLOCsPH2clJTKhcoFZGnlAX4ZkICvyMbAXyeNvMmVvYGEl2UgK1WVscmh3c6nhQkj01I05GbBuYXtRRax4K583n5bRlkzXHcYl69RZAiNX82XNOu507VypcLwo0e/DP7K7xFa2LnB0bHd7qeCQoLJyPKxstZU1dvvUGLfLkzPlszYoV9XJkyPAiMXtACDFfsmr16QNHjpQP1WkFWn0kbouoRC25KF6+7KZcak2f+FjeJi5Z0urMQdd9Ih9h1fvmk0rdr3U6aFRKUqF2jUOF6pfvNrxqs8DErIPeQ6265iUKZFcKvDiyYi26rz/NQRRf92CaGEmXPXMT94NH92h1BjUVXtQ1PyoRWvQ505doZqamge1G9Gs+smGrn7oEy3N3c1M83rXr5rOnz0pFvAT59veaHLlOJKQ3N/9gZ2fXu8Zffx2Jz+/NuHj6h5G8o8YO2/f0+fOyeoPEfRvXEzk+oZ4Ipm9rjhhBQwm+eB98d48I4fr+M87xrsctGyLEnWtALxqgEHioBYVolcXqWrV+nZpNrNXCP7H7zu5jBBiBtE+Aida0v8fGWCENhXr56jVOnTmP3fsP4tnzF/HK52GMsX93H0y0GmkHVly5kjHDpzf2C2ctbH//ziNLE41GrRQkhISFi2bmZtohE8e5ZalcbuTgSrWe/yhmzu6ya7oNfw/86OsboO45aARatOsqZ5Rk7SsBmrflyd1rmDJ+BBQqE/xvxkJoDRIIDbiTRSuBGO6PGVOnQKHkDEuOuZTrW8n6XmpnSGtZ7l267M2nT34mNDEXFZBUUMQqUQmBI+jXs8fpbJUqNWtWuHCS3A1pjOjlW/dqj5806bhONCh/FtAfH9G67MnldB5Ltr+5feeuOY2rjUu0UrdKjUqFzh07nG5cu2azwkZYx8Pnz2sOGzH8WHCYXhNlOY46E1HzNuh0MNGYSO0H21Yd26rTtR+dGbqOC3M3vnzm/cqSnr3YFlx6r2zJUyrRyLb94Jo58q+ztrb+5cHp8RWth65dWj5jgt0gIiiFqH3mZTfdb8+YiUala9Tbptnktt1OxfdztcBxxwSn9Vtm8kqBl5NNxSG3VQoe5cqWetGrT79K5QsX9olv39+7zsODKB8+37tm8bKlPZUmJlxMQ3iUaKYvKzjSoEv7KdN69pv1sxcBqy+fLLFz+pIbIeFaNa2tGlE/OGajceIqgSetO3VYWKVPv4nWHPfL9z2p7Nj9jAAj8GsJMNH6a3mnxtECg4Jw9vxFHDpyHJeveciuwX9SY6I1kbtNrQbp+ZDCz85cHnbIZV+lEANKBZnm1ZRs3ROhqnSQeJrN1gBV8Hs82rsJ4otbyJJBYzDJnvVytz69t+QsVW533+rV/WIPv+yAUx37PsNOhWl1wsKVm5C3UBH54S62MEnktNPEbfQRMdjvI3p3bguDQY/p85ZDz6tirE3FiVg8ZzqCAj6hcoM6G0+67O2T2hdvO3bs8Ee37y6VcwzFeE6mcYBEdo2mD9A9unbeWyJ/fhtjCqRtzs6NXPbsO/jmo48KkZlO43IVjo9o7Tnpn2H3r9xcRmNmv1onaTYaukP0pQPkOqr16tRymTnlf504jjNaRoGNO3dW37t/v8ub9x+yc0oVHe2LJfHLXAhBkSIF72lX1v3LmbP57ti9J08e/eCqx0JRdjyNiJ6k1kPZOikvhQPRh6Ntp467qxYp1smY+5GQs/wj0UotzmZWlnuLVSzvfPes+2ZduF4Z4bMQ5Q4e4QgsNx7QacNgZmIi1WnTpNGsgSPiLVhpwq2LU6c9DwgIzCGL+agRCAeJpwmWDDBTqlC+TGmnDjYdR9auWPFdQtb4o2vpi5dVDltstzrt2iCKUjRH9MhoV04AkURYWpiFtu/TO9fgFt+3iHp4eCjtlix56PP+Y8Go5FRy1Cz9SBJ6nomc4VwpivrGNu26Zy1fafeAihV/6tZsrLWyfhgBRiD1EmCiNfXuXXLPnL5Ivn3vPvbsP4Rz7pfw+s3b5B4yRfbPRGsCtmWuu7uF+ORhrT0Om1oq1JoWd+49y2FevDqfoWw9mFZqBCFdeoRJPESFBrxIH/UkcCIHlSIc4S/uIPySK3yunQD32hMFihUMFiwzuIwYN9r1cyH+QFQCjvGrFtuumTBzC83lusXxMEzSWYAnNBaPWVu/bBUPSOHh6NSmMTiiRe+Bo5ElT+EYO0lNKg6rFuP9Sy/kKpjv6oObN6skYKtT3KVrPDwsz6xzeOz1zCtLzMlFuVlK4IiI0sVLeKxbtqSqMYVe1HjL125out3Z6YAEThGnK2yUdJPj+SR06NGl5vhuPS9En+/828fMHm459vjenQeyePnaqEWPrkUAJxlQKH/e09vXrW3MJYOFasO2bU23OzvvDgwNM+HoePIkYlrL1EoF6TtmaP8e9Zusj+swdHRyEnDmzP1nnk+KysmqaPKgKNEKQbaCS6IWRUsVdmvZf3ATm3jGrybHwfuZpTVnzpw6Hx8fpU6n+04cwleLpIlaGVKrffMWQs+B5+y5eP5SIoRb6OI43nnt5tmRyXWjLTOifA79XVm8QH7voUOG1q5cunSi3Nm/x+7cpUvltzg6ut59+ChrTEtrxJmj1VHpSxIBxGDdumWO2cOHf9fCu/X0CZs1C5ftCA/XCl/LREkRyaNoTV6JJj+DrmmHNrb2/Qc5/8xqmxz7zfpkBBiB1EmAidbUuW/JPWtac9V5z34cOXFajmHV04SMf2hjovVnG08It+ro0by7tznUC3z7cdat63ezWJaozpGCFVGi3QB84k0hqk1p3QwoVAo50YuoJVDSCg68CAOtCUg4CAoBkmhAOqLHu1NOCDyzFfzre9CGhZMK9evezF+q+PDNs+ZdHDpvxv+2zFoyzcTCAludXOUssEy0xtwkalXU8ALaNq0ji9ZyVazRsGWHWFqOx7F9u3Dz8jlkzZPjY5c7d7LH+yH7Z2fiN/x8q+uhf5bNWzqHU36bsYgKLxA9smXJHOiwfl1pK1PTl8k1xYPHTy2ZOX/ucJp6hsacxo4N/ZmldZnr3kabF644IvDKWHlxIlIWiQYR2TNl0s6bP6ddiXz5XJNrHZucdrZas37TXpF8jQ2OPhaVaTlzZb+3x8GhTFzCY/mRfY23LF7lSvMrf+syzctlYayyWPk17G9bYZR1/JI6JddafyRaaebBqJqn9N9xNrkcjZywKKDdqAEt4hvDGtXXnBNOlqfWOL0JDAg2i+1IS9nR7s1NNcGbN2yonztTpqvG4kCTMjlsdax88tzpoy/evktPMy9/mx+AZiqmsbuypTV4sN3w3G3LWX+Oaw4Oz900V9cce+bhcTN7zHMfcXYliUCjVklNO7RaXtg8/Rgbm+9b6Y21RtYPI8AIpB0CTLSmnb00xkoMBhEXLl2Bw7aduHPvPgIDf1oC3RjDpug+mGj9wfZM3LwioyIgbNL8/00fQRQZBfPKDVG8+2j4muaAqDCTrSk03pSDHgZeAC8Jcjyl3DjAwAFKKeJtvoGPiD9UUgFLJAj0Ocf7Ku7M7QlNqC9y5MvpOX3ylFKPX758NG/a7IJWWbNg3ebdch9MtMbaJB6gzsC2HZojOMgX+Yr+hU49BsS4iHACfN88x5ql86ExUUgTnJ0KjatT53mK/jT+YHItetju9Pv4uRN1h44pruhjOA+DLpRY16o1ZP6MaauSc42EEE3Xvv0eP/J+npvnld+k0vmZaO05cqTjwweP/6YlTaI3iZY3AQ8ztRrN6tf737hRI2Ym8zq43oOHHb73+GFTxLEOOjurdObhDf/tl2lc2cYhsefSZdjg3U89n7aLnZOWrp/+RjDhOVStV3PUgn8mLUnOdcSn759ZWn/WhySKMFEpxQGjhszv1rj5xJ9dH/vn45YubXZu/+HDkhBHGi+acNlgIB1atVz1z4gRQxLa94+ud3O/MnTW/LlLA0JD465HI5/eSBkr6Unbft3GTujUY9H3+ly0Y0fJXRs23SU0JXCs00vPgVIQYJHe4lqVnTurpuYXZMbcA9YXI8AIxJ8AE63xZ5XWr3z37gMctu3AwSPH4evr98ckWvrZvjLR+h1CB65eLTm+T69zXp9CrKqOXQ3/nOUgmqYHLTOi4Hk58Y+KluOQ62QaIuLiaH1M+fGIQJAiymvQ1/g0JI9+nwpVmt1WxxEIei2sArxwa9YACB+9YJUlQ8jI3VsL+h48dWHZvMUFM2XLhg1b9yLMoJfvoaU/WIsgQAWOIEkY2MMGfp/exilaqbOfCafD1EmjoeCJ9O+RnYVHV274LDUytCN2/MO+r948evoim1KljFm6Qy7fwqFowQIhi1evyJGR4xKdmTa+bO55eeXpO2jwQ5HjTTkp5rn8mWht36P365fv3ufk4hCtVHxnzZAhfOas6XnLFir0Mb7zSex1vr6+6Tr27vM6MDTUggrm6I1+rnmDAU0HdKs37e8ebrHHaNe7x6vXr9/nih1sLtPggNw5s+k6DeqR16ay9fvEzs9Y9yVNtNIYTV7q3qfXv+87dpydGDE2dtasXWdPnbWhfrOxkxYZJD0K5MoVuHDatHx58+Y1SnZdQoiwav3G0TudXaaHi6IavAICQRwhFlR70lgDEeXKl32QrVmTsj/KMt5jwrj29zxuuQix6jNFvXBRKnjRdvigVgObtkw2DwFjnQnWDyPACKQ8Aky0prw9+dUzCtdq4X7xCpasWA3Px09+9fApfjwmWuPYIjs3N/OsPj79Jw8atlBvkRVmWXMjY7sxUBerAJ3CDAatHpyKPghRCyqgoA/ukQlF5IQ4JKI0SISVVAIkPXiVCZR6A0z9X+H1uf2Q/F7BvPBfMCtdBx+XD4Qy6OXj7itXltRfvOD53/yFBTNkzo51W52gJ9R6Sx+4UvxZ+mUTpDFoKs6Adk3rgiMG5CpYEl37DI45vkSgVKtgN24QOFGPKYvnbJrQd1CvXzZJIw604sKpvFtnzH8iilDGzrhKE8AoeJDxw4cPb9us2QojDvvDrjrY9jj3zs+/ll6ni3Hdj0TrrCsnM56cv+plUECIaVylYRREIgN692zbo1On/b9qHd369Tv15MWrerHKq35JFVTFusbtZRP/Vy562ZVFFy9aHZi38GVoSIhZ7HlGxLUS0rVf70kjO/49F9zvf9uUcNEaEWdK6xyrOI40bNu6NwYO3pIYwbro4kWTYyv/8/T/+ClPtPRLX7FxEiqXLbt3+bx57RNb2ib6HrwlxHSZ3bQtZy9faienFYjW6BfUgk4/M3RXZHdoIqFilYqXWtl279y8RInvllSi5YA+cuTAjQtXmsfqNiIWmxiQJ1/uC3+va1LH5gfJu37VuWbjMAKMQOojwERr6tszY81Yp9Ph5es3cNi6A/sOukKrjflsZaxxUns/TLTG2sF5e7f/5bJsw34TXpXH4+5tWNXvB/HtI/g9ug3Lon8hU4tBEErWgCjSjJE0dk02dX1x/6WiIsLaKkIpUuFKg+ZESA/cEXblEMLDRVhZt4a6ZFWEc2bgQkPxeYENzINfe5b993+lCj95/GjlvPkFrbLkwprNOyFySiZaY+0RFa1EH4K/WzWkyVNQoFg5dOweMzkw3QdaY2LNInsEffZDzU5tHA+tXNc5NX5gpx11KXlo0dp7csKYWAZ3KpJ4IobNnDAhf4MGDT78qvU57j0wcv7S5YuFWDG2PxKti66eL7B5/JSnCoWaE+Q6nV8bFRNKSKHDevXM26VLl0+/ah2up8/0nzpz5mrwQpwunzwkfZdRIzMNb/a1turyK2fzO9ovfKrX62KYZ+XYVg7QmKiD63Vrldfepu832cF/1bqij5NQ0Uo9RKgl3FStMvQdOmC2OjDUPrHxmWsO7yu9ecU6D4NBVMUlWmkd3n62tr0H9+7tkFQ2T1+9KjRt2sx5j549bSvXT/3msxKVhZ1+ZgjUapVUuUb1nTnr1O03unr1H1Zlp0n4bm3d+vbZM2/z2KKVxnbTvMGValWesNJuxtykroPdzwgwAn8mASZa/7x9py9P3757jwuXrmLNxs1y/VXWvk+AidZobJbv35lj6rCJ3rbdeisbt+yATi3qwLxuLwSZmkFp0EJ6eQuhj2/BtER95Os5GVqrfCAKJWjJCx56OaGIIPGQiAgt0UPQamH+2B2ejvOhMM2McqOWwsc8G0SOh0DdhuUaHwb4TmuDvKpgzysX3IvbTBs//OjCNUvTZ8qOjdtdmKU1jrPLKwRog/3RrV0L+eG6YYsOKF+9TowrlbwAAwgcNyyF99MnKNyg+n4P5wNtU2M2z1Uuzhsc1qzrTV+SfGO3IwRW5qbuR/buqW0MS1V8f1mGEJKjcdNWL3SiXh3PazAAACAASURBVBH9nh+J1hM3r6+ZOG5Cf/rQL3Ax3XF1BhGmPOd14eSxYsmRMfh76yKEZLRu1cY7NFxrHvMaKqN5UOnTol/vrJNsbL5klHW7f2f1uGHjBnyjc6nwViqoBe95zxnTiqaUUicJFq1EgolaZahh09xmTo9Be+N7JuK6rvvkCW0fX7m1W5JDR7/NOc2JBsM2hw1/Fc6b935Sxtl//HgOF+c9J594PytOvVKIXHYo5nsIvSTK+0PdgS3MTMI79Oo+clDLdmvjYw2novXYokVvQ4JDzWNb5TmOh6jXEtsxQyuNaNH2elLWwe5lBBiBP5cAE61/1t77+X/Gzdt3sHvfQZx0Oysn82PtxwSYaI3Gx2bEoEmHt+yZuWuvKzRKE7Tr0ASZ6neDv84cCk4E4UzBiYEI8jwG8aU3crTsj9ydBiNAyizHs+qVOtC37hYGEdK1o7izbDwyVG2CIt3/gX+6zOAVPKAXYKCZhGlcK6HJZ3Twm9YeubgAT4/LF4vbzvrXdv/cpVuUmnTYvucQCK9iltZYZ1gkInzevsTgXp3l4iJjJk2D2jJjLM1BwCkE7N26Co8fPoBVlozPbVetKvKjmLWU+sti/Lw5e8+cON0mLtFKYwRnT522vV6NKt1+5fxpZtauA4a8f/r8WYwSPD8SrUu3b3XZvmVbe/qLOXYMKZ17nx625wZ06xrz7cMvWFT/kWOe37p/P1+copUQ2A7pU2VQW5svWW23HDjgtHLZfx3lnLHRdRHPwaDToUnLZm6zRo2p/00A5y9YS1xDJFS06sPD0HvIoDnDOnWalNSXPP3GjPnf3Vv3pkty7qJvRWuB3Ll8dm5Yl5vjOG1i8YSEhGRv3dn2ekBIcHYoaNmZ2LbQyJ7lKUgwM9UE1u8/oMz/mjf/rjtw7LkcvX29lv24iW46vSQIihjvaaDT6pErT47P7cf0zt/rO5mHE7s2dh8jwAj8OQSYaP0z9pq6Aj989BhHjp/GkeMnZUvrt1UI/gwWCV0lE62RxGZsX5931fQF98aPnWpepEQZ2aI1dlgP+Ocoj5B0OcFJtJKgBE5QgDNIEII/gHh5IFgP5O3YH4J1d1hpQ/By7yp8unIK+Ru3BlemBvgsxWEgCrmOHydJ8kNuxCMVjXulCZv08J3VHoXMdZ5nT54svv7oYdsxnbps0UkCVm/aiczZ88o1DGW/Q9a+ELh09gQWzpwCcAIm2s8DT8sORWs0Oy3PK+C0aSmePfZE+oyZnvdctzZVitbWg/vvfffkRZuIR/7YXqwSuXLyWFGO4355xH6/0eMO3r57t0UM7pExg3HVaR0+c5rLJTf39qAW49hnmRCsXLKwSqVSpYxW8iS+H5e2tj1WvXn/YWBcopW6n1duVKPq0nH/Xon6+X/Ou5w2rtrQkRdiWosjvIMltOtvO3KCje3S+I6f3Nf9ULTKAZ7UMilHe4LGPVi3bNqr4qgx22xoBrkktjZ9+0559+LVtIjfed+K1rrVqj+faz+FWtcTHMBDCOGddu9vuG3Xzn0f/AM04DlI8ovAr6dLjgHnIsI0TFUCcufO5Vemft3G/3To7JGQpf2317nplv/WHZb1cCwvAerelato/oPKuvXbOrMyNwnByq5lBBiBaASYaE3bx4EKU59Pvjh6/BRcj5/E/YeeCAsLT9uLNvLqmGiNBNp5xMD2RxwPuTjuOwaJlqXheMyxG4Nr/gK4whUgEPqAGvNRm4pOhd8rhL68D1NTU6hyFoembC2Yla0Nos4APU8Tfnyn2kLkuIJkgN+sDiicTut55viJ4lPdDmZa3X3g65CgcPXICf+iWp0mkaLVyDufiruje7Ni0UycP+UKTmWKiVPnQB/r8VouLWkQ4bx5BZ57PUbequVP33Y92eBXutAaC3Gjfj33fvZ+3yauh36e48ilY66/RbR26N132ctXr4fFV7QOmWHvcvW0e3teoFIwZqOfrA0rl5UrVaTILWNxi28/7Xr0WP767Yeh3xOtpWtVrrr23+lfROsqZ2endSvXdlTEjueVAIWCQ9k2jaxXDxp1Jr7jJ/d1P7a0RvxOoxZ7WnC2Rft203TFiswwlkdCq769p3x48ea7ojVXjhxL9mzeOCqhDKhgXb52/fR9Bw9OCAwL52mt2bianBePvm4kBHkL5j5XvX2rbmMat3mV0PGWOzs23bp24+GI0sSxX1YQZC2Qc9mhtRtHJLRfdj0jwAgwAlEEmGhNu2dBFEVc9biB7btc4HHztlzGhllXE77fTLRGMqvcstFkn8dvZqzYsBO8EFF/8r+F03He2x+kaDVAivVQRAioTqLpW4hBRPC1Iyiy0BWSKl2ERUHBgzOAvvz/YaOi1XdmexS21HmepaLV46Dpps6j3vh99EvftE1H9Bg4EjzHscMdjSIniRg7rC9ePH2ILLnyo+fA0YjtskctRyqFCktnT0BwgD/Ktm3qeHbjjlSZiCmlitY2tj2XvX3/PgGidZrLldPn28sCI1YippQqWhUcUK5mpaoro4tWF2en9SvWdvwmCZVshiOo3KGp9YpUIlrlGdMM1ABMlUpd6x5/Vx9h09VocZk/F63ZluzZvClBopUQYj5x2oypZ86dHS2C5xQaNQw6fYxXihFJsejaJAgcJ1WpUuV2kdq1Gw5t0MA34f+bBH4mWjPny7nMdT0TrYlhy+5hBBiBCAJMtKbNkxAYGIRV6xxw+NgJfPT5BIOBpgllLTEEmGiNpFanaSOnj299Oy5duxVE4iCCYOOK+Thx1wtSiXoQuJhxTPQ2mrlVkAjCBRX0Nw6h8IIjkGAm12NVwACtQg9OUn3r0hltp6ho/TSjHYpnMHiePna8OP1R9oIF7oX5+ZUsWrIc7OcthwgF+N9fOSMx5ytZ7uGJDj07tUNYkD+K/1UN9Zu1h6mZJsZYgkCjJnnMmDRULjk0YNxox3mTpqRK0dp+2OC9rzyfxWlpJZJEzp88VlTzi92DaUzrhBmznridO18wOvgYMa1du9Qc37PnhaifD5890+XyqbPtZT0RyzImiQasW7m6RrnihS4my6H5QaddBw7Y8cTrRayzEZGIScVzqNq0XtUFI8d9tbRS0bpybUeaECz6OykiERBJxOhJY5y7NGz6d1LjQY3FIT6WVrm2NCHIlCmjvqVt18r9mzc3isW7w8D+U155vfiupbV+7dpes/43sUR83YNfvXplsmjt2gtn3S+UUyhUMiKaeCl2KSiO4yCKBpoUWqrVqN6WhWMnJKnc1Y9EK52DVd7sy46ud2CWVmMdWtYPI/AHEmCiNW1tOn15evL0WcxdvAxv376HTq9PWwv8DathojUSerX6dZ0+fwrquOi/TeB4hRy/umHlAuw/dw2mNWzkTL/0QSh6U0g66DlTQAhE6JULKLHwKHSCCpJcWJVAEY9MLFS0vrdrgZKZec8zxyNEa9NunfdcPHC4rZllRmx2OQS9RHuiD9Gs/Z+9qwCrImvD78zcIiVsFLtr7Q7MtRu7AwO7axFdWwxU7EDFuHaxdrfY6NoIBpg0l3vvxP+cmYsCooTgsv/OeR71gXvmxHvOXM97vu97P4JAUMBjjHTpAxUDOPcYgMJlqoFjE8YFkAOrIVaPBe5jIYDlvY7sa9qvbuPj/0YEXWfO2Hf9/OUkSSvZkasXL17+W+kSCSyeGT1PQlpbde0e8u7jp+8KMY2ZNrFWpzr1v5BWj82bdm/fuLU9nUjIhoyVEgRMHDHidNuWzRpk9NgTt991wICAZy9fJSnERKz6rbt1qDa5r8sX0rrj+FHtgtke31haiYMFQ1OoUb/maY8JUxum4PX/JVNNLqaVXDTwjCB6hZB1yGVvE+Y83KVht2r1f9riOmjq1Gm3rl6fIcWBfhvTWqJwoQ+bvJanSIjp/pMnJWbPnXXi5Zvg3LGsQCkZRmwyLlo2PpicqICs5tp07rDIUW02Ka0pe+LalEnrL9mqcicyAv9pBGTS+v+x/BzP4/XrN1i2ah3+OnYS+kT57P8/ZvnPzEImrSbcazRurH3/+l1Hr3VbwVJqUcxDu34JtvmehrpeZ/E6n6IYKa5VIE6AJLiJ2GPJz0ZE3zyBkotOgaWU8VZSygfI0ox4GCSHK3J0izUaoVQrYRsTghfe8xB1cTuKlCm2/vb5S/3Jw1PXL2u1fJzbAVagMd/DE/mK/QY6OT/jf2b//IJeRdsdsQOJ4lgCG4vhQ/rg/atAKFTmmOA2C3qOgUKZ0H2b4wVEfnwDr0XzoFCCn7J3b+FxdesG/IIBp3sXO48e3efhsagNT/ICJwoGJXuqRuWqFxbNml73V8brCoJQolrjxv4CEqkRkSROnAFgWaHjeBf7SS26hcYBsvfW1b5/jpq0TqAVlJKovMYrjJJGbjv7gN1bNhf9lSlvSOqeZi1avdQZjPFfXPGKSKB5KFhe6D9+eKEBTVp92Tsrbl4p4T15hr/AE03crxdZxCVdQVNQaNRPZowaVcrJySlT+AClVj2YKJtntbML7jtuREvnitV+irj+sdqr+dHd+w/xJBJUTPGVsCgpSj97xuwydauV/6GQ2IEjxyt579i67+Wrt3kYYuFOdIFI3IBJEXiemPFhb2nJVahTw3nOqLEkZc9P5xGQSWu6f63JDcoIyAgkQkAmrf/uLUHiVj99DsXpcxew3nsrXga+kkP70nlJZdJqArRpu3bae7fud9y8Yx/0vEROb54/iXlLlsKsXicYaAtQAieST3JOlTQqeZG0CpwROr+/UGLJObB0grMvWDEnK6AQjOCIiiUYWOrDEHF2K97s84Qy6jOKlioWMHTq5E59mra6QYaz2s8vyzKXgQFBL17alixdHm5zlgLEqvCfLKbzpkCL6RTDPoagf+8uYDgWZStUQYuO3QGaAfmyiF/Iuvju3oo7Ny4hV55ckUO3eTmO+pemo/A441tNO3vJFZLf91vSSpF4xKjNO33yFLKzC/9VW2T52vWrt2p3DiTvwTeF4kGxnNBt9hib4dWaRcR9vuj6hYLaKX8+4ymGIqlH4heKxB7yfNQ8NzfH2rVrfyG6GT2fPQd9Z8xbsnha4vdLcnPmQRlZof3gQbYTnZ2/YLvg0rHse2YufclzvFnCOVDgjEao1YrwWn3b5pvn7PLL1uNHOKWWtIqWS4FH1mz2H9sP6NWwX/3f76Z1HU7cv1/izylT7sTE6lVSXuqEheRZ7tm967ihvXsv/F4fK9dt7Lz30KF5nyMjHBmVWiSm4vdwvMJT5LsYIN+SeXLnftOyi/PgPk2aHU4Pwkq6kUlrWneA/JyMgIxAShGQSWtKkcpc9YgbcGRkFO7cu4/d+w7izIXL0Ol0mWuQ/yejkUmraSEbdekwxu/U5YXbdx2EoLIU1SajQz/CdWA/CIV/A5WtqOT6S1LXiFkipJg3kbSyRsTePYniC09+Q1ohGECDQSyvhDmrg0XQFdz0mgjN++fIlit3VNOeHZfbV6/r7u7klMC/tXqDBrse37nXAYwaW7SHQKsTxmz+n+y/lE9DoEALLHwPaLFmpScUCiU6deuLgiXKibSJxLUlOMQajaJ79/s3gShZtkzAjSuXCqa8s8xV0+3MGc2JxYve8XrOmqTXiF/IQd1MpeI6t2lZdciAAT9lFUvNrFt27Hw3+OPHskm6+lICipYr+aLg/EVF3AkbNZWBq1cr3126EvLmTbBdUp4DGgUjuA4a2NK5desjqRnLz9Rt27XX9dfvQipTSXgyENJqmzdnQP8mLYokdi9t26tPyJu3wTkSUTCRI5HEK637dBs8uWuv1T8ztvR6NtWklUQ3UAJI2LGtdRZjs05tqw7v0OV2Wsbj5uZG330fciL4eWB9kp83sYWU/K5kkUJ/ea9c0YKKt1dIX/7+/qoLfrdbbtPu3KY3sirpHae+eK3EHw+joMDzHPI4OLxo2n9A5f41anxOy3i/94xMWtMTTbktGQEZgaQQkEnrv29fEML696MnOHryNA4c/gtv3gb/+ybxLxqxTFpNizVvlVcf9zGTNnTrNwTO3ftAbxCgVgl4F/gYgwf2gcEsG3JVbIBIsxzQKzRgYBQPT3GkVXfrKEosPpuAtBJCYRQEqHg9ckS/xLnJ3WEd9hocxfGDp47bqSvxW59lzZrpk9ovE1curuc5YdpphlJTU2csQNkq1f9F2yqdh0qsrOBhjI1C+1ZNYKFSgKcVmDpzPgyCAozAiZcJ8YsCHBbOnAqjLgJVGzfQHtXuJsI4/8riJgj0c9dhQQ8e/O2gVCa05BM3aJYzom+njndHDB7826+YoFEQatZt3Ow8K/DE/P1Nlyyrx/S5s8+0qlKtgWgej1c6DxgU+CIg0FH09Y5XGEaylhfOlzfQZ+2awr/CRVgQBEenlu2eR+sNCiK9lmD/MAxi9TqMnTzxXNeGjZwSz8OpdYfD0dGRzRPMXwwbIHdZAvLnzaNvMbCzQ6+qaVOrTc91TC1pjeub50j4A5AzZzaD8/BBlXtVq3MvLePqP/OPPrfPXN4gKnwnctRlBcDe2oLbtG5tPQc7u4tx7ZOUNj77Dm5d6uXVhQIjXUqJgktJx/azrBGNmjR4ntepSlXXDMBcJq1pWXn5GRkBGYHUICCT1tSg9c/XjYyKwolTZ7Hv4BFcv3n7G4+/f36E/38jkEmraU03+PpmW7tgwbN7tx9ab925BxorW6KqIrrJhX14D8/5c3Dn/l0w2fMje6WG+CBYgDj7ivGWHBB76wiKLzgLXqkCL+jBEUc1QYGsMYF4uHgijC+ugdK9Q9XfGy+sULeO10LXsS8TH4Tjb6/Nd49ZLB01W/vg8vVm9tkdsHqzFkqNOTjx0CfFx6atxJ0apRbi/0Tib0lJTADT1k/6PUXysvKcEadPHMLyxfPB0AzatO+GUhWrQTQ8mox5ov4VTYNYbwzh77Bw9nSozVTcrC1eTkN+73gh/Ub061vqMXr00if3Hg5P7GEpRfwCGgZcj44d67n06/fl4J8RoxQEQdOodduXkTp9DkG0cScke0SAwNLS3FivW9fC7s7OQYnHMNTNbenNq9eHs6a9FufuHCemQ963Dq3buEwYNmRNRow/rs2AgADN2KnT7rx+/7EYB0r0mYhfDEYW9rbWxsYD+hec0KzZ68Rj2XH62Lilc5fM43gpZwyJf5XeS4m4ChwHp9ZNJiwYMXZ+Rs4jJW0nqx5s2lQkpbT4KpneJ3FNSMg+eGS1t3vfc6Rr8y5Va/mlpM/4dRZt3Vpm+9qNd6FSfnPFQfYQxbMoVazIlQ0rltckcdmCIGQbPXnatss3bjTgvsmKSsSiCMbkGouHkiF+LAIq16/jXbhKNdehTk5RqR1fSurLpDUlKMl1ZARkBH4GAZm0/gx6v/bZgJeB2LpzN44eP4l37z/+2s7/w73JpPXr4lOuM9wGb1jouaJYiVIYO3UmbGzsQdIqcDzw5s0r3Lh0BgcP7EEESyNLoXJgc5aEkVKAYSMQfvcoyi28hiiaAUtTyBHzAW8ObcT74+uhigmBY6kyQV36dp9RuHq2Lc6lnQ0p2XNDp03uv2Xp8rXkgDbJfT7KV60JgUqYZiMl7cSv85XuSod0ciiNM3qRA7codpTJ0uvwhBcZdRjYrzPCPr0H0WWeOHUOGI0FiDaWpElKjr8kdy6xygJrPefiU/ArFCpZPKSHh0fB0TVq/KsDDNafONpw9WyPE0gkYBS3tuQInydH9mu7t2xpSVHUh9Tui5TUJ9avxV6r5u85fGiMkZjIJMfsb8IGVQo62HmYa4HhSXgR7Lt9o96cCZNOCQKRLIr38plaIpGJjtlyfv7TbWabUsUcM+Sigcxj1YYNs7x37Jwocs4kklJRDAM1g3dOY8fmcU9CUMntqq/1FY9NAZ8/htnRjEKMf40jreJ7RdLHZM+m696vx+/dGjQ5nxJ8M6rOj0ir9C0grQSxZpL4+8TmUOKSTthm9mzZQpyHDWzWq0bdVLkKa/39Vcc2el++f/dexW8t89IeUjEUN6BP7yntmjXbOHjMhL+ePntWQSCXhvG+nxLiI10PKGjKWLVOrWnVnJw8nTPwHZdJa0btTrldGQEZgTgEZNKa+fcC+b/9ut8trPPeiqvX/aDTJcxckfln8O8eoUxa463fGX9/yzWrvFYe9tF20ZhZMr369EfZ8pWRy8ERBh54+OghaJ7Fvp1b4X/nJqgcjlAXqQa9ygoR906i6LzTUOvDYbh6EI93LYV5VCDMLG1RqlL5q02mDPt9YqVGqRJm8T550n7TgvmPb1+/YZ/DoSAWe60FrSLaL1SaFcmIAq10QuXBMBR4YioS6QOxKksfZbb0OuRLYvNaLxzeuw00Q6NFu874rUJ1EHVlYhWiBHK4FR21SaYh6KIjsHj2NHIQRomald0vH/Sd/u9+TQE3QVC8GD7s2pNHzyqQeOvEsYEiDhyPOjVqHp0/Y3rzxPGB6TH/dT47Oq9as3o7SwFKlUa0eEmk9WshltJWnTosmzZg4PCk+uyo1TJZ79y+dNvvTlWyrvHtmxJfIrcmAgo65ju2ZsnCrlmyZEnX2ETShXb/oU4rVq3crmONlHjrkUThOANadWi3y22Iq/P3sOs6fLjHc/9HowWa+XrzY6pM1oeQvWw5s15uObhn28E1m7xPjzVISxs/JK0UBStLSzYyPFwhilGZVM7j90PmQtaGF1g45MoVWa9tizqj2jqnKo/r8msni+6csfSu3mDUiO19EVKiRYspyW9rqVGztrZ2MW9C3lmLW4GW+pWINMQ9Lz5HdAUEHhq16nOHrp0WDOvafW5acEnNMzJpTQ1acl0ZARmBtCAgk9a0oPbrnuE4HmfOX4TXmvV4+OgJWDZTJAj4dQBkgp5k0prEIiz12egxffT4vjDyNrFGAXZZs6Nvv4FwLFQML9+8A03TMFMrsXrRbHyIiEKOsrXwLvBvFGvSDXf3rIUl9xlqlRm69hmKgvkK4P6DG0EOIwYXcy9QINVXMkMXzS2lnbf4dqyBVfbqNxit2ncByzNS2sNUZnKQzn5SfCh5nCFEj6bACQKMLA+aJo520ueZpwiIifgMl57dYNBHQW2ZBaMnTgcopSgWI1pYBUI8eNEqYzAaEPTUH7u3b4ZRHyt47fJp1Ltpy1OZZz5pH4nbCs8Oxw747iLEnBze4xNXYiXjORZKisaIoYO2P25zt7s75Z5uC3nx2q1KM+fOvhwWFaXkTCbS+ErGcSTNNpv9p+qzZ+X50V6fusKzwxGfPVqVuYYSTIRIJCXxoCGiOqWLF3/gttyzUgGKSvV78z2Ur9z1q+A2Y+6liKgojZGXdntSrvZZ7bMYOk0cXabXb1WffK8t7dmTjRbOmHtUoJU0cVFIqh2jUQ/HfI7+tbp2rTauSZPotK9+2p/8EWklhNEqm+3eqhUrcScP+nZUqtWmEISk++N4I3LkyGls0cO5zJCmrR+nYlRUq769LwQHBdcke5d8h4prLtAQlX/FeNWvrUnqzdLPcb8XLzlEUi3AxsY6omW/bq2GN2t3LhVjSHNVmbSmGTr5QRkBGYEUIiCT1hQC9Q9UI4T17PmLmLvIEy8Dg9JsOPoHhv5/1aVMWr+znHN8fGyp2CiXo0eODrp/4YqjISaWUqiUMLOwRLO2zihYojSMnICn/newf9cOmLORiKBUKF60JNp36QGoLcV4KwMnICIiWLCwoGe5Dx85LbW7x+3MGcXrg3tPa9dtrG1hmxMbt+4Co7QARwJp0xDYKjp1knySEPCX70EEvAxAhQoVUbV6LfDEYimF6GWaQojYqMF98DbgKSiGRufeQ1CgaGkIImsn0YgCaF4JUBwImSJpiRbOmoLYqAh06tntabXevUu5VKpkzDQT+omBEBXhD6fPvLh68XIuIlwUn7SKcydZQwXAjBGEhk71zgwdO6GtPUV9STmT1q4/RUaW6til+2Wd0WhNYlbFvkz7SHIRJoZ74kJKoULdGstWT3NL0soa17+bv78q1vevK+ePn6pA2opTfiZj/xLbSpM4U6BA7lyBa5cuqWRtbf3TQSMf9RHF+/Tse/ldWJQtIf7EFZkRkiatlatX3LNixqwOP8KMCGTxyzzP/nX4r9pxY09cnxd40AwFM7XiXZ+Rwxr0rv/7g7SuQ1qf+xFpJdxRY221u12fPt0/vHyuPb3vcCuj6G+f8EtAWm+A5TkwahWK5sn5udng3vU7V6id4nQ4q6+crrpjgdeFqIhIZdzeVfBSDD1x05a+z75/zxL3TMEiBT7Wa1a/hUvzDtfSiklqn5NJa2oRk+vLCMgIpBYBmbSmFrFfU5+cb6773ca0GbMREPiNVMevGYTci4iATFqT2QiENOYyRhXYvWFLPcbA97ly+kw1mqapnLkc0KZbf1jb2IPjWHCxMVCo1KAVhEDFHfgkV0dyGDtyYFdAz1nTiqWFQC04dszCc+ig+5GfIguUKFcJM+YugsjCRHZpOuab3GTjT4fipZgwMd6OHJ55AdbWGlgogccP7mFA/34gArCEHag0GjRq2hr9B4+EzshJaStFFz5CC002WooCx0pkmaIZkagQ6ywpknVWDIiVxkRcd0VxmtQVUUyJItIvgiiw4uO9Efu3bxIbKVK8JDr1cQFHxhy/CCSNLQOWM+Dpo/vYtXk9VLQg9B4/6vfFk6YdT90IMnftxXu11bcsXn5BaW7BkFhr0QqVKAaZ5wSolQz5c3vMqJELmjdosD0tsxIEQblh247JW7Zvm6CLZc2ky4xEqr8mSxkvcChSpFCwU68O5QdUa/guuf48D+wuv33Zaj9WoGiKXEAkuiiRdp40tex2dp9aNG8xZWDPLuvToiosCIJqg4/PkK07dk2NNhjtiStqAvdqk+qvQAuiS7lDrpwRNXp3Kj6qzu/Jate7ea8pemrrngcspVCwHHkfEsnjmoBgORa2drbR9Rs38rbKk2d0UvG+yWHm5q9VVYxy7P/2VWCeXA65dE9V3MqxlZySJfPJqQdb2VrvPqXVms5qSwAAIABJREFUdnTTalWhD+77XLl0rT25vaIpWrygkFR7E46OvJ/5HHK/6TLCxalD+WpPkxs7+Zykv3lnMGy5feNWV/HSyfTdmNyz5FqB41nQlIByFX574lCtbO3p7Xr+0N2auKH3LVWsnt+lKw0unj2br3mrFo8/VXWY714gYWqx5PqO+1wmrSlFSq4nIyAjkFYEZNKaVuQy7jni3fPk6XNMcZ+FO/f8M64jueUUISCT1hTBJFUigiLP/e+U2+CxeEToq7edNOa2im69+8Mma04I31EMiaN8Qc8fRTFlc+Rf0cv1Uyq6/FJ1gsfc7luXrlwfGRWrGjVhGqrXdgJPFIpFiyM5URKrYyLrCOGQcSIrxlhktTFDhTJFRMGi6KhI5MqdG4zCXKSl9vZZ0KpNe1zzu4dJbrOgVJsBYqxrnO1LIrEKhoHBQHLP8mAUShAXS+JkyXyJDSQkXew4zZZg8iAZ490bF+H2xwSS8AKWFnYYOHQ0zLLYmOaciLcSV0+KxdqVS/Eu6CUq1Kz4dNga93LOef/dAkyJ94ogCNTcDeuX79+hHcxRjBj0l1j5lhcoInwtkn6GodjKFSqc6taly5IKpUodT0msqyAI5pt27Oh23e/meL9btwrRCiVFHMol6aWE7EUg6YgoHuZqJVe9WaMGc4YMT5G7JpmH567ti3es3zycIwNOtHfjVJHFHc1xUDAKoUr5307+/nsjj9+dnE6kcB70xh072t25c3fG9Zs3i7OcQNEMuVRKTCzj3hui+S2gYfuWvWYOGr45Je8pmYf76pULj+85PIo1ae0m9Rxxh5XeGwG5HPPcKlK6xOJs1WoemVS7dmhy/RDRp+jLD9p/fhUy9rH/gxKxRgMICc6XzzG8QPGi05ZO/WP5j9r4cUwrYGVjvfu0VttRJJZnzig+nTu35daVa51YXnLAJyWx84Xo4ksBjgXyPWvZr1/jnlWrBiQ3D/L5ar8zWU+s9LkeFPS6gJTpOgWF56FSKoQCxYvsq9W9R1+XSpW+qw2w9oxvnivHz3U3xsR2f/EioIQuKopSazSUTqcTihQtdKrK7826jWvXLtXxxTJpTcE6yVVkBGQEfgoBmbT+FHwZ8nBYWDhmzF2Ag0eOZUj7cqOpQ0AmranD60vtmVvWtVkzfc5GCAqbwSMmgFJZmlwkE1oXRdIq0NCFf+Bi7NWlPVxcHqWlS2KluBcUsOjknkMjBEaNFWs3InvOvKBolWiZlOhpYkJB4h5JSgkOVy+ewqihfWFtbi7W5XgOPXv1w5Gjx6CggFEjh2HihAlo2botzKyyYciosTAKNBQKBfQGFmqVEjRnQMSnEIwfPRIh74JFa2vOPPkwauw4OOQtBI3GAgKlACcYTQJJqfczpoi/osAjJPAFXF16gaYM4BkV2rbtidLlqoAlx+gk1I3JHB7c88Ou7d6wtbbUD9/vU3BChVpv04J1Zn+GuKU+GTToYcDLwGJExPdbK5gkVCNZE0UJHfI3X7NylWc5cuaYw9D0vX5dujyzs7MTDfYfP35U+N39u8CJM8csVZaW+W7furUwNCwsN/EYEHiSziXu8oL0lXCPEVEoGrzQwLl1rzkDXbekFrvWvXqeC3kTXIeQ4vjWT3HUJir71fVWdCLly5ct97Rk8eKbw8JDj9WvVjeqZs1KX/x1Lly4VuDE2TNmBhiLBAa+mvgiMKAsR2yGxA1YFPAhtJFPyMJIXDdL4oEhdOvbY7eqaMluqfGIIMS1adeuF8M+htYg8eHE6k+8EJK4cBC9MIhoGM3zgpW1pb5EhfIb3n/8fFFtZfaibOHiuuw2NrDJkQMBL17A7+H9/CUdC/Q5fuRIw5joWAsyAUIWRVzI2goCzDXK6GbDR5Sc2KjRd32WUkNa44ir7to1n3MnTzmTPMAkxRSJPU5QTOMgaBYtVcK/UOkydd3790+RaNZoD49qN86cPafneJXAst+JKv7aGwmFsLSy5Gs2qLf36YsXu81UzJM8OR05CwsLvH7/Gu9Dw6CmVMXsslg2vXvjVgd9tM6SfEuIZNsk3kT+pQUWZStW2Jtr7ryO7uSmJRVFJq2pAEuuKiMgI5AmBGTSmibYMvShLdu0mLVgEVjiZSiXfxwBmbT+xBJoL55t5D5klK/aPIuiQ/f+gOgqm/BQLyZmEChEhYZwH7Mxpde4DEsTaSXDXH/xotVZ7423fPceKmxhnwPrNm4FGDXIwVJSz014sJQsbgJevXiEl4/9MdNtEohaqsT5yDMUYvWxMOr1sLKyhsFoBKNUomTxUhg8ahJKV6wGnS4GWW3MkdU2C/LnyQaa41CyZFF8+BAq0SEeqFqtKoKCP8Jz+VpQjJlIcoi4StLRgj8GXMEooIv8hJFD+uHz+xDiwI5ipSujnXM3sCDpfkyW3ETNqGkai+dPR8THYNRq0uCc76699X5iaTP9o8Rl/OquXQ9DgoMdjYYkvkzjByYTd2uBFZXuzNQaUcWJNRg5MzOSaxiSBZChGU4kcxRl5FhxbRWUwuQeLu0XkQQkQkbgjOgxeODRT/4Pm7u7p174yfPpU/XlBQseBgQEFkwsZRT3JsX1KVJvwlqNHDQaDVijUWAoSmBomif7Rm8wwGjUMxpzM7KXKSKcwCgUIIrZX4jvV4nsLzMhcacCz6Jpu9ZHmaHDm6eW0JiInsZ/y+aAV6+Cc/5o83y1XArgWCOIW7W52oy42Qs6nU5MTk4UmM3NzMQ80SzLikRVvMyJJ05EyDcx7PK8AWMmjj396NLVRt/DPznSamFnvfvsDsnSGle0Wi3zMipy797tu1olxe7i4popXoClpSUKFsn/oEqnelVcKrWMScnLM9V7TYtT2w4eYDkj/Y0SduIGBAGsGIpAi184GqXqy1ZRKJWi98fn8FBKjPMmYQti6i4pk2v8IjAMsme1D6s3rkeeceVSJ4olk9aUrKpcR0ZARuBnEJBJ68+gl/7PEsGlngOG4m1wSPo3LreYJgRk0pom2L4+NNXTs/Faj6VHRo/7Q0Esgl9TOUh1JFsXhajPIVxENkXp5T9BWkl701evzrrfe+Ojx/f+tm/doQv69HcFzzBivJfoZRmvkH5VNA/vtcuxfuVSktPwC7EWxyV68cZzADQpuQ5xGYoYjkbnXgNBcTrQxkg0qF9PtCAJPI99+/ahX//+YgNZs2bFo0ePoN2zG4uXrMScRV7gKCU41gBaQUjPjwshE2J+SBJESw7AKhq9urXH++AgMX1NnvyF0av/CAg0ic+VaDA5kIr2PfK3KD7Ew3efFnf8LqNQiUJveq2YU3pUeaew5Pr+t38+a8eWCg/OXTr+9NkLe+ImLrqox7nwJvKAFS3+8axlEneTLPFxhFT6laRKnECd+IurNyFJJN6ZuIjHQq1Wo2PnDtsievfrkRaiF4f/vO3bc18/e/bs65eBRch4iNiTuPim8X7PXv9lWPHc4IkV/svYTelREq+zaK8lXsc8C0aM1+RRuXatbVnr1uuVVE7WlO6TmVs21rvqe+Kv0PAwDWsUwBl5MMokgnVNDUqx4mSehIBK60HeRvKaSiq58co3twViVmVRgMx12JBnz1reLvY9tejkSGt89+D4XS7Sas2o2Ojt2zdtbc1TDJRKpUiq46tHk2ERazuxmJarWO5yicZNGqdEJZl4jkTZ27e7cuy4j0GvV5H42e/FE0i5o7+GKUih9sRybtq6Il4kbp+0YAJK/CfhS8DRFDRm6rA27kPSTFqlpL7fOjXb5cvleXTdxhEp3StyPRkBGQEZgcQIyKQ1c+2JmfM84L11R+Ya1H98NDJp/ckNQFw1o2f/OcVandWdMbOmElsNxEMdBAQH/M2pS+Yt7dEnbe7B8Yfpfc63/JS+w46Ff4rMNnbqdFStVQ88bzrEJTjo0uBjo7Bv+wasWr4EjIIctpKPIvPx2QavtZswZcZczHefjKNHDkCjUYstx6nEnj59Gi9evEDDhg3h6OgokseWrdqhaNkqaNiiLVQ0DTaRK+n3oBYP6hAQ8fk9Jo0egg8hb0VrSfbcedFn4BAwaqsEjxIXVTHG0pTyJjz0I7w8ZhOjLO/UqW2X/StWaX9yWf81j7t5r6vy5Prtv57//cROYBSm1CFJiwGldlKJLZ0ixRJjGQWSI5Nr0LTJhhJDXAc7U9RP+824eXs7vvDzO/Xw4cPCRKSHuKSaDKupHXay9eN8AMg8iG9E3cYNNqoc8w1yd3Y2JPtwMhVmeq9pePv0pYOv34aYUQKJkJVckeOvSOqd5r/tVFwLsv8FHv1cB60Z1KrdoCT95gGkVIgpqakRi+v1Z0+3XTpzoSMvgBJTK5mEmRLMg4hZCSyce3cdP65HnwUpxdFl5h99nt954BUREaEhF1HxaOcXzNKCV1J4EzfjPA65w2qN7pom0uqzesMRcTVl0prS5ZXryQjICKQCAZm0pgKsDK769m0IOnTvi/cfPmRwT3LzqUFAJq2pQes7dd20WkuzUN0jnlM6JK4ikliexbFDu8Lr9u2ex93ZOSodusTyjetHz3WbMZtnFGqP5etgZZMbTCK1XnIIDP/wBjcunMD82TNEARqGCNEkUw4ePIhxU90xcLArfiuaD/Ub1JcsxnF5EkUrh3SUjLMsk3/PnjuPYWMmw3ONN1jRzTG5niSxYYoT8O51AKZNHo2wTyFiDHCuvAXRtbcLlGaWkh5UvCJZXsTewcZGY+3K5Qj/+AYN2rfSKho37brL2fmnSVTyI888NbwuHLY9s+XAjlcvgxqxppDfZF0uUzD8uFQ0ktiThDfx0Mydx+FjmZpVBrv3cdnzPaKUgua/qbLu8mW709t8tj1/8rSxFPwpWYFTsI1S1F2cBVZUpqYAh9y5PpeoWnn4h8pVtWvSMS3S0uOHilzee+RQ0IuAYqzkcS05qposg8lfG31/OsRFllg7RUsjLZC0WpH9/hhTrW+1hg+/95SndmvJrWu8/WmGoZIItUWcevD3nifiTNGXL285f/pMZ3JZRJN3/5sYV0CtVMDSwX7NX+u8XVK0IKZKC/fsrHNcu9fj84ePlSjiNQJazB0d9+J/R5D5h13E4U3WXEHR4mUbz+rh1KSR18KJk11Tu29F9+BV645QjII4eiQopI9s+R08fddtkC2tqVl4ua6MgIxAAgRk0pp5NsTWHbswe8ESMXxKLpkHAZm0psNaEGvEqxjurj5GKJW4OXKg0UWEYseeTX6zx4+v5pyOhGrA5LGTtCvXz8rpWJhatmoTuERWVHK4+vA2EH4XTmDpovkmA0HyR+Zp09xwye8eSpcuBc8FM1JknSUuglGREShUrCy27TsKWqmC0Zh8elRBMCI48AXGjRgK1hADlqeQLYcD+g0eDkZjIfadODZNYroCKI7FjatncfzwARQsW/TDmIUzS/Sq2jBN6szpsA3+6SaoeZvWee730fbUs7y1ubk59Hp9wtQuqRyhKPgjAJzRCCWjgFJBs0VKFfUr37BJk+HNmv10/tfvkqydW5fv2uTTg+IZa4PASe6npsppsbqJdDueQJKCErhS5co+qt2mYf2eNZukWkk2JTCSWN3Xe7Sbrp2/2jY2Vq+GgpGIWIrepu/3ECfwRCy4SprmnJo22jZn9LiePxqT9uLpYotmzntoMHA0EVaLXwgu1nZZxJQ3P2qDEFeLgOfe+7ZpuxJLNSGF8S9GiHsvsfpmK5h7zcHVG1JFWkm/K86cseRDXu/d66Otqdez5pxko5ZCB9Jwa/ElmpWsOygoFUpjlUbVFuap7jRzdI3UK4qvOrD3943LVvoaOZ5SkLRm8QpZk7zFCnru81olk9aUvBxyHRkBGYEkEZBJa+bZGANdR+PshUtJiipmnlH+90Yik9Z0WHMikMS9+vw6ItpgnfhWhhwKL545JjTv2nSSa7su89Khuy9NaP21qt1Lj2464LO7S4cu3dC9/7AEcWEkxlEX/hHbN62EdtvmFJNWp3oNUbRsZYQEB+HAzi2iGFJyhZwr9bExyJO3ELbu9YWg0KSAMAm4d/MqZrtPBMUZwPMMcuUtil79XcDRCtAMcRuWMrYmPGmTvJ48Ap78jc3rViB71iy6UbPdKo/u2vtBUuNccPeYBROtyiU5OEslXKMLn1yh2f+X34cgUG67Nuc1i+L2aLdsq0RiEBPHWCe3jok/JyRRRTEoWb7M4+yli3Qq072vf3q4AyczDupPHx9HRUysdvfWbZVplVJ0S/2qIpzaWXytX6JM6c8Vnar1/mRp/9fPxK+mZAQkdAC7thYMf/56/eUTZ2qDSewzkJJWEtaJI4p2tjZs1749Zz1Taf5Mbh6EQJ+cM/vV26DX2egvqam+tluwdLHZOxYvnZLcaEjKr6gXz3avWbGm5TfqyDzJTGRE24E9Okzt2ntPcm0l+bkgUJO3b8/OhIYuPH3wr64sxxLR558qxEpbpWZ1/wLlyjiPbNv2ERFgTkuD6/wv22lnLA38/OmzZVxu6rh2yDtWunrFHhtnzt6alrblZ2QEZARkBAgCMmnNHPvgc2goOvXoj4DA74ryZ46B/gdHIZPWdFj0xXv3tiuao/CuqOgYOuDFc/Ac8QlkRDfXmNAPOHzQ5133tasLjStXLjodukvQxMJD27Je2Lr/zvkTpxwmT5+PMhWrg6OVoriMQPFgBAMmj3LFjcvnxBsjRpGQAMad4HjOKCoBP3/+AlWq18LCpauxe+dWHD+8N0X5VomCcejnDyhcvAy27vMFoyTKtImVlAFO/BUFBXjs3LIR+7Q+4PlY0UpcoWpd/N6i3TckmRZo8GLYpAByihVoBgZdJFYuXQDeGMP2mDKyt8fQsT5xwKz2u+B4cffe4ce0+8rY2dhXCAuP0sRGRFmQXLaiuyARlFIqYosXKqILevvKv/+woX6OTtWX9C1T5VV6r88/0Z5W0DLmN/JX3b1/b20hUjfxzu3bNkq1BmZmZoiOjhaFlBhGsrixrFFUZSXWTGIZZ2hatKpKlknOkK9UsYXVqtc8G1qy7Dn30qV/qZ8Mse7VsLGosnXHzjpcRMT4ly9e2xiNHMWRvW1S1CVjFfc1SUwrzkdynSWuuMQiFhMViZw5shvqNqzvz6voSVz23Bent0yZwm16rR2ZR76Y8IpBz19MuXPnXq3AZ0G2ZubmonI3UQUm8eBk/HHu99ILJ4lhkbUxGowQBA5mZhp9jTq1XkXpYrzqNm2wr0u1eoEpdXNd9tf+JnuWrTwcFm1QkNsr8h1FMzSKFi0c0sq5dYPuDZt91704Pg5kLm/OnOr14PrtlSzLKcn4DXo9lAyQr0j+C227927dLQW5Z3+ELRFpMi9bJPfLe3934Az6kff8HjjwPK8gl2ccx0oCbAyJe5YwE/eu3iim5yLq2DFR0cieJ0d4nvwO2sIlSu6IrWB50b30T8YrCwI1euHcqZePHZ/BgwjuSfeDpE97uyzhRepXKri4/+gUpfxJr30ltyMjICPw/4WATFozx3revH0XI8dPQXDIu8wxIHkUXxCQSetPbgavw4dt927ZenfEkAl5FWoNgt++RUjwO/FAQ4Kf9vpsQMXaFRavmrdg9E929d3H52zfmN975sJ7EVFGqwXLVsE2e27RKkUUNxUCh93bNqBw/twYM3oYaDGNSeJCFFd5BAe/R+3adVGmUjUMGzURM6aNx9kTh1KUuoa442l37sSkP2Zivc9eGImYJ58wtJRYTImzb0x0KNav8sSZY4fFcSpU5mjYtBUq164Nnk/CqvslhpXkWiQ+gwZs3bQGr188QYsezit8PFe4khntv3yuhueiZSPszKzbWttmVdStW5/KkZ1kIJEEqJQaYnkkhAd4++YNbl69jDu3buC233UhZ66s0QVKFVnXbeKYxb0q1f6/uV5b/+iiVdSzD0WDHj5tfs/Pr6BAUZp8uXI1/BQRLioBE9Ih8CTfpwaWGvPYgKDAU1lyZHvToFFDP1Vu20sDqjXMFN/anld9rS1YRVH/834NH967VyyrrW1JBcMUio7VifHTJM6TEDxLM3OoNKoPr98EX7PNkSOkllPN63zurJdGVm3wPqUEL6PeUyLvPO/SQUurKKHqlXOXKoW8CCqWI6t9dT3LZY3RxSBKFyNeqGgUKtjb2CA0KuqyPjbms022bCHNmzZ9E2VG7Rpar9m7NM6DWvXX/qZ7t+xondM+W4P3nz4+Vptp3rbp3tmjj1OTVKfhWrBti/OVU2eGsUZjCQuNOXiG8q3VtunEYY1bp2tuZDfBjba5Ws0x5OrDDreuXy+ZNYttxViD3iEsJgocy4neHMSjIJetPWL1+gcxLHurZbvW/mFmlrsnNmpEXNjTZFlNag94PvVVB+7xm/Hp7cf2n8NDbdRKkiObutauV/eF3WrVO5Nh+0ZuWEZARuA/gYBMWjPHMh/+6zhmzvXAp8+//h6S/H+WxdpaNDDoYmMzByCZaBQyaf3Jxeg5ZtQIIZJf3K3vIErgBBAhkYCXgfj8LgRvgl7g3v2rr/otmlClT2mnDE30tOrogd/dB446ULJkOdW4adPBQQGaUoECJ4obDRvYE9rtW1Cndi0p36GpEGJJLBd/P3qE1m06gqJVWLJyHdRm1li3chFWLpkHO1ub76IUpyZMrFtt2raHbc586NRzgMk12BTDZxKPIa6J0eGhmDVjMp48vAua4qBUWaFz9wHIW7CImEojKW9AKaKR5JelSIAlLpw6hEvnTqN52xaH6g0d2v5txYrcrSEurSIDQza4uo6ytchiD9AK8bgqGUSIRearEM5XDRleVMJ9//YVPObOwvOnj5Azv0N0D5f+fbnipfYm53b5k1vnH3ucEIHvdf69tCn/2GC/0zGxxmH6dz6cDqQlZ+w/Mcdk1sKUEyd9R0b6dKfcf75t4o6O6eIr+8v2jeBGu30HDndMN8mQpS9eiVuLv/d+VZ8ZOyO5dRkBGYHMgIBMWjPDKgBEhGnx8lUID88w6Y4kJ5otqz3q1KqBYkUK4+Tps7h+83bmACQTjUImrT+xGMuvnbQ/NGfFs3ET3G0MggIMseLRJM0Fjfu3rsFjrhva9+o8yOvPOat/opsUPzpwysRlm5euch03ZTpqOjUBSV0o5dvg8fndawzp3xtlShbCpk0bkSdPHknVVBAwZ958LFy0FI4FimLduk2IMQowChQunT6MT29fYNWK5d8dA3EpJS5yb4ODUaJkOazYuA32ufKJsahf8n+aBGjUlBHdOraBUa9DrMEItcYcI8f+AaW5BXhT3CpFfZFQ+dKnlJeVATgWzx/fxd4dW1DJqcbtGkOHVbHX6RiLWJ3v/ZsPnZo2a05xvAKUgrhHf2tg4RMpnkopNnhRSVbgWNHq6jZ+FJQahdBtQL+Vq+bNc01rDFyKF02uKCMgIyAjICMgIyAj8J9HQCatmWMLrNu0FV5r1iMiMl2SfSQ7KaVSgRpVq6B500aoU7OGGOG0dMUabNOmTR4i2Q7/xRVk0voTi9eoffuN+XIX6t2+Sy8xhpWoZ5I0DTxvxKxpk2BuZ3ZtgNv0Os6/KBZwhVZruWrxwiPh78PqbNy2D0aOIu5r4gxJjGvYp/e4cu4ENm/2Bi8Q11CA5RhUrFwVXbp2R/6ChSBAAUmxiYYu6hMG9OqEyxdOo3CBglKMHYkHNVktTUlvEBT4EvUatUDnnr1Ru14TUIxaispjSPtEa1RAxKf3GDm4NwzRkSDxr9kcCqBn/8FQaQhhlYookZJIJyVOb5WMP/jlM2zasByFihaJcB4+oNykLn1ethrqMqlm8cqzy1SqKkbKErJKLLYCidNkWVF5lKJocMTeShOFUxI9y4ODShRzksyxxEAj5SMJC/uEKSOG4vPHYL5h66beuzdu7vsTW0R+VEZARkBGQEZARkBGQEYgWQRk0posRL+kwuoN3li1dhMiozKetJqZaTCoX280buiEwgULiGfRz6Fh8PRaI1p85ZIQAZm0pnFHzDuwvZLWY83Z6TMWWjBqCzBEEESkPRzevw2C68C+XM/Rg+p4TZ1+OY1dpOmxyauWNvCaPudY0+btmd79XUXX3/hFSTFiLCPHs+A5FmAUUKk1YFk2QT1KYKCAgKCgp5gybhg6dWgH16FDUahQAbEex/G4fOUqdu7UYsfOneg2YAiaNG8DhjGJlHzJscnj1cunmDZuBHSRYSB5K6vXqY+GzVqDJyTzG0HVhOOVdJtoRIe+w7oVi2GX3SZwyKI5tYY7NXvdedjQ4bZqm0VtO/RgBJYBR3MQaFYUa4pLlCOScIGFguIh8ArwFA+eYsAIUrwtiftNOHFAFxGG6ZPGIuTtS/2EP6dNtixXaZlLOubxTNPCyg/JCMgIyAjICMgIyAj83yIgk9bMsbS/krTWr1sbf7pNRvZsWb9MPpSQ1pVrsWW7NnMAkolGIZPWNCwGiWnaf/r01TbNO1auXqcBeDFHoSkXJM1j6YJZiNRFPpjkubhisyJF9GnoIs2PEOXYE2Ovbtnhvb3LWu+dyGIX9yLE2UUlUkgEiYgCJ0/icBPlXBR5Ik+yG0pWY4Y2YtP6Nbjldx2RYZ9FS6Uu1ohsOXOhdNmK6NytG8yz2ICi41KsEFOnpID6/s0LTBjjivDQdyKhbdi8HarUdIJArLlECEi06sYvceOTlFOJddeo02HD6kXgKeNLr83eo1pWrbF/zm6fgs/O37rWo/uArFEGFkqFAgwLGGmi3EwoK41HD+/gY8grKJVq2GbLiSJFioEXlZWJaI9CdI1OaNmVBKmI6rMuMhR/jBuO54EBQuU6VbxqNG20J1/dCjeGlnbK+Ku3NK++/KCMgIyAjICMgIyAjMC/EQGZtGaOVfuVpLVvz24YMXQgLMzNv5LWsHAsW7kWm7ftzByAZKJRyKQ1DYux6vC+gSume6yct9SLpkXLosnBlWLw6sVjjB0+wDB/14aag5ya+6Wh+Z9+ZIq3t8Oy8eNeDh89VVGzTn0wjBIcK5FB6oszrvSTkGTaQpP1kSj5Ev4oRtqTAAAgAElEQVQpWmsFaFQMjAY9OGMsVGpzMXZXVAmm6HgxrF8tlzTPYoRLb7wOfA6lhQV6DhiCXA75wYqKS1IO1m+ll0zjJPG2PA/OaIT3mmXgeV30KK/5NYfXb3mXqLDWa93umkv/YZVt7XNK5JPjIahU0EWFwhgTgSnDhyKEJGixzQPBJgcEjQU0b1+ibeOqaNa0KSxt7U0ht4mlnwhxZUALLD6EvMboAT3A8jyM2QoKlpbKmEbVy92yzJNzmtekaefleNef3qpyAzICMgIyAjICMgIyAnKe1kyzB34lae3fqzuGDRmQgLSGhRPSug7ePjsyDSaZZSAyaU3lSiw/udd+xfg/A/v3H2ZRonx10Q2VuJ8SN1NiNdywcilu3L54NeDe/eqpbDrdqnfUaplqYR+ueyxcVWG99zZwHMDQKhNBjHMDFgM/AWKZTJwVQmBM8Z7EuZgS8yFyRjJHkkKVEVNM6A0GMVg8rojKvnHav5LZGX+6TcC96xdgaZkF/YaNg5lNVjHul+JZUViJuOlKxDV++eoeTEjrjm0+CH/zmJ+ycE7HQR077yU151y4YLtzwvQ3cxesMOMpYrCNRUjgcyxeMg/vg94iTGWH4n2mQFm0AgxZHMDTaggGDixiYfbsOp54DkfHhvXQdeCwbzizILoWkzhcorss4PrF81gyZzwc+8yDukY73BvjBMXnIG7HiSMlWlar+zTdFk1uSEZARkBGQEZARkBG4D+LgGxpzRxL/ytJa99e3TBiSEJLa3hEJNZu3IxDvsdQumRxlC1TCnkdcsPMzAzEdfjilWviZ8QT8b9WZNKayhUfMGXioH0bd65ct20v1GqNSPwIXyMWTF4fjf69u6BJx1ZzNy3wmJTKptO1+uRta3NsnDgraNaCZaoceQqJsaNxWV/StSNTY8TqSsSSJMEjCrevnsNct4nIYp8DPfoNgpVtdjG+Ns5J+StbTPjSkTysAlFwogQc3rsNr54/MPYaP7ruDJehV4ll081fq7K48mHp0hkLBlWtXR+Bb9/haVg0HCo1Bp27APicRaDMWRSsUiO6Cce1Tvol/RNhKouPz/Fq7RQ4sCGYPXcViCYTSceTFD6U3gCX/s74zArIUb0tbIpWwL2lI4SDB7WVfq9T51ZGYCm3KSMgIyAjICMgIyAj8N9CQCatmWO9fyVp7dOjK0YOdYGFxVf3YIPRiHfvP8BMo4G9na1JKPQrNrfu3EOfQcMQHR2TOQD7haOQSWsqwN586Vj2NW4Lb5f7rXrulh26SrccJtJK4iQvnT2GdWuX6/7Yu7Xk4PLVX6ai6XSv6nbmjGLtwIFPBrmMKlCphpNoFc1I0vplAhSNyNCPGNSjHTTm1ug5YDCsbbODYki8qyR+lLAkEl4SJFfj08cP4dnje1GzPBcM7NKo2Y71V67YHly+bEUkb17rVQwc9FkcKHXRSjDLXxqMVVawlAYGIu2kUoDivrEdm+ZObKdEXoqHhf4zQrb9iZxv/TFx5gJYW6ihpxRQJr64YlhcPHMRq+ZMgmWTQcjSZiSeuFYW9ms3Vfq9QQOZtKb7zpUblBGQEZARkBGQEfjvISCT1syx5r+StPbu3hmjXAcnIK0/QoHlOBw/eQYjxk2WLa1p2C6JAwLT0MS/55HeU8c1O7JRe3jrjv2UkVJDwVAkvJJkuYHAGjBz2nhwjOH21ZOnKoJKMlj0l062epuWvvUq1Wtap0Fz0QU4I0krSTXDEisrJWD/dm/s3bEZA0dMgoWNHUBEj3j2WyYpCkCRP1L8KnE7NhgMOHP8CB7cu/Z2/MqFLcY06yBmVx4wZcLU7SvXzczfZgiEpgNBm+cAxTEwEhVkJcAINIircFz8LS0QIamvJW7uDIlPpUmsLgUFr0fwsuFolluFHoNGQWD14BkmwRqRdhUKAQN7tMd7lRVKTPDBnRF1hQNab5m0/tLdLHcmIyAjICMgIyAj8P+LgExaM8fa/krS2rNrJ4wZTkirRYomT6yry1atw7pNW1JU//+tkmxpTcWKVqpXd5+aNmvjPnsxjGJKFykek+J4qBUC+nTvCNvc9h63z18cm4pmM6yq68QJvpRg3rRpK2cx9WrGklbAyPOICfuEnt2cMWz0eGTNkRssJ0ChoGGbxRrWNjZQKJRfVIFJmp3IyAiEhYWJZJX8fPqvvXj88A47a+Xy7n2btfwinVamRQOPl/5vR2cpUBZvbl5Gzibtka/tAESa5QajsRb7EYWlBMkNmuRgTaxLDBKrS9y4aeIoTJSJWTggErdHNsSoIQNRuXJNUAoS+/u1sFCD4cOxwmMeTp44htK9Z+DRzoXCnu0bZNKaYTtXblhGQEZARkBGQEbgv4WATFozx3r/KtJqaWmBMcOHwLlda6jV6hRN/tPnULiOnoAbN0V7zn+uyKQ1hUt+xP/6b67telxu3raLWbNWHUERax3hRiJDEhD24TUG9e4i1O7YavChNRtXp7DZDK02YMxIXyu1fdMmrTpC4HkQGvc1yvP7XYuaSqksAktS6AjQbvPG27fvULtBYxQuXAQW5hZgFCQlkGQDja/eRLyrFRQFImxMXIKnTRiJZ0/vGl3/mNpgxuBhF+Or85Zq1sjj/cvo0fpSDQDBCIuwEHx6dBNK6yzIUr4WCnQYg0+UBWiVBgZjDGiFCgwnxbCScfECBZ4SoOSVYi5dBReLvBEvccVrEnSBj5HPVoP1O/YhMsoISVRKWlcSq0zGHfDsMUa79gUUSjIf1nv3Lsf2deoEpxImubqMgIyAjICMgIyAjICMwDcIyKQ1c2yKX0FabWyyoKtze3Tp2A45c2T/Jm71e0gEvAxEuy69ERn138y+KJPWFL4jo2b9MWKDx8rFqzdrKWv7nFJuU1G5S0obc/yQFmuXLxImz/+zw+RBw0WV23+6VGja+FjTmo0b13T6HQxFaCFxi00sfBRP9dc0YJ5KrOib/EwIHWYN0Zg790906dILjgUKQqGMy9sa9/y3Smc0JOvn9s3rcPHyyfA+U8bXm9Kx693E7tWlmjXxCHwYPFpdvSNYXgGKZkFzEWDC3iP2VSD0UR9gU7o67Bp0gmWpeogk4bOCAJXAIJZhQdyFlRQHTfhrhBzbhSj/C9AxgGP15sjyW13cd+uMMf16o26jpoA4JlIkZWXidswZ9ejcphkYLgYqKwv90P2r7aZXavnfi4JPfivINWQEZARkBGQEZARkBFKJgExaUwlYBlXPaNJqbWWFHl06okfXTkkKLX1vWkRHx/f4SYwYOzmDZp75m5VJawrXqFTtarv5cGP7Zes2w8CJiW6+kFbyw5RxQxEY+Fg3a9/2Qi6V/nkLHFHZXd18QsDIcdNy/1apBihiaRXT8gA8/zUXKsUL4g0PeRmI6i/5TCBBuqktAo2HD27jw7t3qN+wMYwcJ6bHSVikfqW+aHAcL6bT2bNtEy5cPPGs76xpv49v1vZ5Ul1Xa9/Gw//q36PNaneGkVaC51gxxRDh4GQ1lGwkDMGPwH4IgZAlF3I6tYNVpUZgbWygDPuE8NuXoPO/hJhPb6EqXAo56ziDzlkQnGkc+t3zoPA7gKVrtgCUwqQ8TGi+ZK2lBA7jRwzG84e3YZbFSu96cI1MWlO7R+T6MgIyAjICMgIyAjICSSIgk9bMsTEykrQSN+AObVpi+JCBsLO1SbGFNe7sPNV9Nnbu2Z85gPoHRiGT1hSATpR41w8a9KBksTJFR0+aDh6SyM9XSyuPXs5toNJw0dO2r3ZwqdQoPAXNZmiVeTs2dZs9bOKWtZt3UVa22UDzUsIZIpdEiGJERIQYQ0pyPj158hhv3wZDqVSgTZu2sLDKkvqxURQOH9yP9m3bw2DkQKy1JNdpUqSVkGTSN+HGJ3z342//m4E9Zk6u361slRff67jT4MEevvuPjbao1x06KEWySubzNYWOAJo3AygDlAgF+ykIEY9fQ2mnBPs5FtnqNkCBFr0QrswJTmUJgdaDpNdhKYWYL5a6ewIf5vfG5j0HodJYikSVUGxGIPZWKWvr1nUrcHD3NqitiaV11b+KtK7281O6VKpkTP3Cyk/ICMgIyAjICMgIyAhkNAIyac1ohFPWfkaRVnL2rVmtMubMmIZcOXP+cDBGoxGv37wV/5Dn8jvmReDrNxgwdJSoAfNfLTJpTcHKr/Y7n2tqux4vWrXuqGnfuZeohksojeRpS4ETWPTu3AZqNR89bceaf5y0evr6ZvOcMO5FvjyFLCe4zYERCih4ydVVSXPw9vbG34/+xswZMyHQRBiJAcdxYiA4kdMWNY1SWcgjxPpJCzQohoFAc6BEsar4JaGldcc2H9Dq6HMlGv7efFyTJtE/6nLS3Lkenh7LR1vU6Qaj0kJ02eVpiMST5gVwolWXg5pRQmfQQ80wiBWMYJ4/RJ62/cCWaghaTAIrZikS41aNNElxw4HhKJjFhuCmS1V4r12LHLkcwdOmvK2mOTAUj/Mnj2CFxxwoLDWZlrR63jpfsnjhCvMvP+fw4PUH6HmyU41MFrVFiQqFs/g7WoYefP3y6YGR1Rq+S+USy9VlBGQEZARkBGQEZAQyCAGZtGYQsKlsNqNIaz7HvJgxdQJqVq+a5IiiY2LwMjAI+w/54sTps3jzNuQ/mdbmR8slk9YUbOZxKzx6rpoy23vQyAmo17iFGPEoiIlPCfvhAY5Fny5twEEfM+PwzgKDy9V8n4JmM6SKp6+v+vbxv7bs2byj4yKvTXDIX1gUHiJurmdPHMPRQ4cw2HUY8hcqCoGipXlkVElEfimeA6VgwPJGHD28lze3VJzUVHdo7e7UJza5IbhvWtVl4Yg/tlk27w2dYP396iTOmKTR4RUicWYD7qPMiDn4YJ4bKjGdjWRBJX8TSy3hsYTJKngd/AeUw4TBLqjXtPUX4v5VcZnC2RNH4LVoFjSWZpmKtC557uf46X3+JVc/c+VDBau8BoFhOCIhRdynwYERSGZaySpNgxfMaU6fm/4U3L6sne87/v640Xlr6JLDX/5cRkBGQEZARkBGQEYg4xCQSWvGYZualjOCtBKjUL9e3TDKddA3LsEk5WNg0Cvs3L0fu/YdQHhEZGqG+5+qK5PWZJbbzc2NDomOOOWzZlO9GQs8Uax0BVHxlriPfiGtPIexwwbgTcAjoePIIe3Xus3a90/soo5aLZP/8d/LVnssG1ykRBnMWLgUDK2CMSYKmzatQVTEJwx2HQdzS2uTmi4hNakXXUrr3GiKgcDG4sjhXeytgEfTGhYvOd/d3T1FA+jrMaPc3j+X37Zt0pMKpWySH4KYp5UHF3gHhftNQ0yukiaC+vVR8jmxBhOLrYpica9feVTIlxN/Ll4hElqJzoocWBRnunrhJBbOmgJzK/NMQVo3Bty2+RCdd/H510KXQEMWtZ4iclgcFGJqH3KxAnCUNBNCzglRJ2CTvaugafAGHSpZhz37LRfTf3SJXOeSB1WuISMgIyAjICMgIyAjkBEIyKQ1I1BNfZsZQVpLFC+KdSuWIEf2bAkGRHRk/G7fwcIly3Hrzr3UD/Y/9oRMWlNAWg9dOX/j6bW7FVas90FWh/yS5UokrcSkJ1n29vhshHbzWqFCg9pLz+49OOof2EdUz4mj+xzbunuNSmnOrNq4DZRCA84Yg+VLFsA6izUGDHIFR6mIqK5ocxMtkhlIWgWBB8MwYvyq+K+exemTh2NuPrv557ntu+ekBiOXVR7ltk+efdumtjMVYe6Q7KMk3pjEHrPPb6BYvynQOfwWP9uOiZDGkVYKGprD/R5lUCCbBVZs3CqS+vikleR/fex/E3+MGwaN1T9vaV3/6JHVzWDL7dfCLZvHKCygEHiwNC2mD6LAQDDqYakgrtPE5kqBBLNGgYGSoUBzFHgSrEt+LzAoTb83lMse5TyjcpEDyQIrV5ARkBGQEZARkBGQEUh3BGTSmu6QpqnBjCCts6ZPQaf2bb4Zzz3/h3CfPR937z9I01j/aw/JpDWZFddevmw2uk/PZxHvQnN7aw9AbWknJWkR3WpNxIaiEPU5GAN7dET+gvk+9/WYUXx4nWYfftVmIiI7dOCz1ZOGjuphMHCK8VNm4LfKNWGmpDFr5nQ4FsqPzl17gCfWR8oUZxrnupuB3sFiuhj+q4owbdTpQuyE4ocfvnhT8sEDIaVWVoLjhPWe5VaM/eN21sptqDC7gqK6748KLXAwUkpwT66hZL/JiMlTUeTp8QuxQjKCZH9UsXr4u1REuXy5MHvpym8srRwnIDjoGUYN7g2zf5i0EmGwTyhy8lSEfV2KUYoe6qKbN6+DGcXz5RUfQxpXyhr8PvLDHwqOM5L9qjcqza2s7ScfvReW75lgnz0GatFPmtJQMOiMKKTkDS3yP3caWqLM5V+1b+V+ZARkBGQEZARkBGQEJARk0po5dkJ6k9aC+fNhl88GZLFOGNoWHhEB99kL8NfxUyDCS3JJHgGZtCaDkduKFZarZ88JiomOtd3le5o4X4KY7EQRJlPOU2K5JFlQRw7phTcBz4U2PTqv27J81cDk4f/5GgduXcy93nPdpgv7DzfkKIoiymKNW7QBb2SxaO50ZMuRG916DwalIIyNpIkxpaExkVaSfoZiSMobgBbdS2lwAkly+rUQ0SKSi/YLz42zMMerI31Ki22AM4LjDGA4Fhs3bcDjx/4wGowwsDpdWFREIBFJss5qF96iTatruerUXBx29GxQcgR25aVj2T2Hjn/25mOslaZ0TVC2jtBRalAcJ+ZfNdAKUZBJilUViK1R/B376CrK9J+GqLzlJZVgyijGefKCEgzPgFUYwRl5mEUG49GAahgzfhRqNWwORqEU2yEXE4TXE0vrPb/LmDVtFJQqFbfz1JGijX6gdvzzK5t0C+SCItSi5IXtz6kqBkFF0bQRUYIC5sZotM6te5HbRu9ipeIv9s6fX09RCZPyCoJALbz3zpxldbUDdLabz0dbZaNjAY4RwHAGFEBUWKvioUVcihX7mFHjl9uVEZARkBGQEZARkBH4FgGZtGaOXZHepHXM8CEYPKDPN5MjYkt/zluEN2+DM8fE/wWjkElrMos0xM3NcofXmiCjXm+7+9h50eVUIORMECAQE5cp7yiRpD538giWL5oHczNNxLIdm3p1qtMwI5MpUeMXL2y9b6P3zDcvgkoTkjV0+Bg4NW0FTqBw6aQvtvlsxpLla6A2txE9mUERMprQtErmQhgrTQngjAa8ffUaeQoWSoAKLZAY3q+klVgnyc/xSxzBA8tDFxWK1V6euHrpgqhMXLhIETg45IFVFksEBwfj6ZPHYj5XtUoBjZmazemQO6B45fI+5V2bLppQvPV3I9DHe8xqcO3EuU03/e7ngY0DLAuXB2+TB5FQQ03EpkxkmwgQkfVhGRoGQloHuiHaoZy4XjQRaCJWSXHtiAK0RHGZp2fxckZPLPZaAYf8xaV1FetIsbEEt6vnT2DxnClgjaxw9NypSnUqVb/1q9/xuTefttwbZLs/SmFNU+SCgeFhpY9Gq3xG79x5Pw/rl614iiL4Vz18XuR2sPlf52LtCxHFZ+IObSbw6FU4YseIEnZdExPeXz1PuT8ZARkBGQEZARmB/xICMmnNHKudnqRVqVTixKE9yOOQ65vJEcK6fdde6PX6zDHxf8EoZNKaAtK6c9XaIEOs3nb30XNgeQoUserFI61xTRA6O33KWNy/fQ25cubQD/ljsvPILj0OmfR80m077PO7VGjF/MVD71+64mqIjlGaW9liyMgxqFqzPoy8gHdvXmJov96YvcADJctWBCsxVpF8mUI1442FzIXFzRsXscprOebOWwDbHI6JSCtxhxa5rShCZdDrwKg1CeqQNDkKSkDEp3eYPG4MrK2t0LZLN1SoWBkqpQY8BxAjrygFJAj49PEDjh/1xc0rF/D82ROoFIxQsETh4LwVyo5oMHzsoeFFiiT5Fs857GN7fMMu9/uXbgyKNnJKZa5CsChUAax5dhAhIlIYgcSqUuBoCvrH11B84B8wOPwGTkz+wkHD0+LnxGLOwADu5R0Eb5wLvLyMHftPgWXUotoyqUJIvSjYRNE4c+wgVi76E7RaaVixZ1/ObrVrh6bboqagIc+rV639Yos+ux5jlY3hOLC0ChZcjNDR0bA7Z5bwnn0KFEhWhTl+N7P8zue6+KlEABFx4mkePCfAUanjB5bVlXR2cHicgiHJVWQEZARkBGQEZARkBNIBAZm0pgOI6dBEepLWCr+Vhc+G1VAqFQlGRtLbjJs8HcdPnUmHEf93mpBJawpIq8+yVUECx9lu2X8UCpUGFMltmgRpJbQw9EMIhg/pB11UOGxsbIxdXPp0qdyyzSHn0qV/KhswUTFWlyto+/DKzbbnDvguCXv3wUKgGBQuXBJ/zJwHC2t7cBQPhqKweslcnD51Cpu1+6DSWIqEM05BNs5CSizDxDWY1cfi4f1bCP0QDP+/H2HwsLGglQkJqaTcRMgbBdYQgz+nT4XbnIUJkOMJaQWLOdOn4MOHj1jmtQaxUJr4OnmekMD/sXcd4FUUbfdsuS03vSeEJKTSQ6hCQEBEOohIKKL0JogCUgTpTVAQ6SCK8AFKkSK9CUivoQQIBEhISEjvuXV3539mL8FQExAV+e9+D4+f7O7szDuz1z3znvccilotFF6L8QyBmudwYN9urP7pB2SlpwKiiTRu2/z3MtVDBywaOvEWHqG4Fj108Y5Nrb+fOmt6cnxixdxCM2cTWBlKn0owaJwhcWowMnBlYYw7g1CaafWoJFOXiZkASgnqwhzYpF3EjQ0rkX/5AOzFQqjdPbHshw1gFGo6Uvl+kVLB72da9/y2ET8umgWljdY4eNsy54k12+j+yZ+KGefTRm1I1Hylp+OTyd4EtZV5x1c3dan/tDiV1L/FsTk/LIhW9GJZhSzOJILDW+rYAYverrC0pHupWvWApk19rucx3NHLCciVM95AiIMDWlVSCvuT96dMqhxZqnVP63TffiPc19IC6M5jdgNHxwebAnOOH9cYXSp6XY5NBUXmHio1ale2l+KP7EueFPmEZxDCbEq95XY9QWF7Js0AepODGni7pgcKpJsp/b1rPnPuKA27YlBQWSpTT3dPou7eTSq+kUL7A9qfhFzk5ubCwUGF+iG+8FHlFjTz9Hxhy6sJ0euV3raNXeLyFJqEhCIrXTVq+7G2lcspU498vSi9JCr90+aN9tkjoKLX0dhcpKbmwqhWIcBe4ernrCmo7GHMPuHqlzqJuU8fKWnyHz/PbL9zxzHB4OC0PzYVAkcU5bSCv6ez+60aHozumKtryl9o+/l7Y73DGgFrBKwR+I9FwApaX40Je5mgtW+PDzFi6GCw7MOiKtk5ORg5dhIO/nH01Rj0f6QXVtBaEmhdOMF2w9QfEow6vdOc71fDx7ecTKV8ImiloEwiKMhIQbcu7aGgtYIcpLpNGsVEjh/ZoWfVejEvsi6+vnhRqzt0YOHir2e/ry8o1Cp4HmaBQe8Bn6BZ2/fkWk1ZqZdlkZOVid6d30VwxSqY8e0Smlu10GBl2xNK6/3TYUYURQz7uBd+WPIdxo0fj/HTvoWksIfZ+Oj3PM2OUposC2IqxOBBfbBg+f8eohpz4HD6xEHMmTUVa9dvAW/jDLPJ8KDul46bUquLwCqNHz0EqnVLqcaCATevX8XsaROQm5MFTqXUD58yftEXfQd9/rSYrSeEi9+0Oiz56u1lK+fNCxNEjjfbuMOhfE0ILgFUXglIuoTygycjXeUHtZKFnTEF97atQNL2FVAZs+Hk5mioFxGh375jl1ONsDoYO3WOLLLFkGKglbG4nK5duQybf14OZ1dXY8913/2joHUCmcBmnxxye0+Gk5+CSDCAwIPLJr0Ds97uVb787y+yrug9Ew4etL0oVE++KmrtJIlmqTn0D8m7OSzIPuRZQHji2YOuLtoa6/bFmRqk6MHqFbYwyZsSEmwZAQ4QpEoepsx6PobhXbx8fi4JVA/ZF9XvbI73IhsABgWLQK1uzcqmft1pH7ekpYz+9TKGXclTOps5DQijkDdI1ERHGpdh71Wwu9Pxo5CwU0UxmBcbq9IS5zUbbuhaZIv2qjyFEjyU4AQRakGHUEdj7gdV2AXvuLlNeFrchu2//MWJXKcparo2FQoEs9nzlrWqMIwC9ciIBl+uu0AGJ8LRSUcUMEsslDCDE3Uob2fSfxjGLWrh6jr6eSjWtN542Y0rEVfT3dedTicuek7DG+nmGKuQ67a1MMOV5JjbVLE97oB7vbuUqxBf2jmnQLiKU8Ox22/wg2KyiaOetYGBo5sDIjQcYViznriwBnNzf9UJDte7fFbljSK0XKpHTLy4x92eDZ9/4LauRRpjZ5PP2IBjeHAQOaXJJKq5LKFdRadzjrr4Tn3Dwu6WqlHrRdYIWCNgjcD/swhYQeurMeEvE7TO+Woy2rRs/pg3q8lkxuhxk7F9915Qn1brUboIWEFrCXFatWeP9ouBA+Jzs7JcPx89FRGNmkMgVOXrcdndP4WKBBgL8zF9yiRER50Gx3NQqVRme2fHBM8KQb+3b9s2Rh1Y9hf66IyIpg9lIKad3O9hL0icJiO3zS/rN1a/evpcFUGQKhpzsu0pSZXmM1u/2wHtO3aFnZOLTHEtOujCv3L+NKaPG4EuPfqibaePHhqdDF9lQEYzrIWYMuZzTB0/Chcvx+DC9Tj06DcYIn157gPKopupx6coM4wZ6HIzMKRfd6z8ZRvE+ylcKtJEwzHjy5HwCQhBj94DIdI2iCDbAvE0c2vWwWQWoLaxgclokDOYvFIFSbAoptE9KE5kYTIbsGPbr1i3+gcIZp1UMTzseo+hn7/Zv02bp4oDTSCEtfnlR88Th4+8k5+YPu3owcPeGtcyMDl6Q6u1ReUOg5Fm1iF5+88wxxyHna1aaNS88V5bN4dva7Zsljp38Od7EuOTvX5csRF27u4PxUy2zpEFqswY3PtDpN6NQ4PIdsd3fr/yheCZaTEAACAASURBVLObpXs1H75qUczF0F9u+l1NZexYSm0WWAnvOObedqvrHPxXM1gzTt/Zdoe4hLNmM0ycEtXsdcmDK7rWeRLQpADIlW08ZdMtZlAGsZWz/RTkUyVmui3By7+9LETqqETM0BCzGK4pvFnLM+G9AZXfuPq0sXfaeW3wBSlwPt1eUTIcynNpW/tWET85eIf7cV+G6q1CTs3yEgszJ4CVLNlYQoW3GBHeJNfU1Cv/3dG1gnatjEmsui2O3XlddPEWwVJHZVrtDFq3K0tq0WVJRKg5ndjDV784s4rnp0+KX7cdtyaeJv4TeIlS6kVUZRIXta+sXbD9Nll1rdC2uoGoWYmlAmWWEdFNGLohQ/+pACuGaFKjW1TgenYvUyaqpPlefPGY+9l0n18v6Fzr6Rgl7ahcf06ZEPS9KPISpk9QiRKcSEH+O+WMK41s9vBJJTA41t+5U2NXLL/5nNHBRxKVjER3e+UfqqKafFrTrYSCmCEQAjcUFnQIMK61T7/+ac/GjZ9JN58Xu1Nl0IeP2ZXAjkiDg8bM8DKtnpcsGz5yMQDDQuAs1kseMBXWc9ftVrJJH02s+exMd0kxs563RsAaAWsEXrcIWEHrqzGjLxO0blj9I6qFVXkCYgA2btmGxd+vQGLiXUiPfHe/GpF49XphBa0lzAnNcB3tEHXm9O9/VG/ZpiN69vsURFbifRJotfwdBToczXFKIs6cOIzNv27EzevXZJopBXP0u1mtUYlqpZLATn3XVq2lX6jQmU0MdAbvwvw8hdlopp/9rKWWlEUZXz+81eQdNGjYBJ5eZWASCRiWlT9six97t23GisXfYvDwUYho0upx0CpDCgl7tm1C6p2b+H7JAtSu1xAjxk2Dh48fKEAl7KNjo32mfydh+69rxXWrf+LWbNwl06TlT3XGUis7vF93fDryS/gGhFq0hIvEmhgGZ47/jt7dInHw4CHs2LEXlavVRvU69eVM7J8f/vQeBvS7+uqVS1i+ZB7ib11HaPmQxPd6d+vxRa+BJWYUV0QddLxz+OxHJ4+cHHb00B9lOEJ4SaEGxzNi1Yqht70DfdfUbdVybVbrDrcmAuSDQQM2/7ZmXbuKYTXx1TcLYKTFucUOCkIowBZ0uYh8twU4lpAZ3y8cMiTygwX/5Ou87GbulLmXuS9xn7rNMWa0cMubMqu2x/i/2g8K+nHo0APuSqVG6SSSiXxYQhrA0rNnbZJQdtnWJE1Xg0LNyH7FhAdPaM2zKANXeeXIatMcGGKSQZzIKhDCZhV+UJkZe235wvlPordaQGvQfLqeFSyPGnY5J2ylwtQjhU7vmohKBp10nVFSO0MYhgJJ+ZBYECWPqny68f3KylE/nReH3SEOviJES93y/TeS9pD2SV6XdI1DgK1gJC28sz6aUjtg9aMx7Lrj1sRzxH8CI4t7iWjqlX85v0DUni50CoDIye8Irc9mGEJkBgOhfAEKoilwZWBmJIRpcpKb+OreHxDsf+Jpc/TTzaSIHbcVP1822JdlGSoSRuNHcStty0RBH5EIS9n8UAoMzDyF3gQqs4686WY4Wdsro8sHARXvPKn9NWl3q62LYjbHiG7+asGipk0PllZ3y4LgPEX+jMjKIwEviSAsCy3RkdZeBYsm1Sgz+Gn9Xh170j4mO2jNbymaVnpewShE2qDlt4AGWY4xQ2BmeRloC5wAXlRAYozkDa3hdAu/3O6RAQHWuum/+vJa77dGwBqB1yYCVtD6akzlywKtlBK897cN8Pd7WCemaJQ6vR7bd+3FoSPHkJqajkJdIWgGlrIg6R+TyYSCQp1sh/Pot/6rEal/vhdW0FqKmI+e9/WIxeOnz3J298b3P/0MkVVDpNmEYllO+VvdkiKRnXBodaD86UkkOfuQmZqMdT+vwc3YGJnCm52VCY7qv1r0gOSPaUGw5IZEMLB3cISLmyt8/cqhQ8dIePuHgGGpXQ1HGcjyffdTJg9GQNv5bcMvWLN8Abr07Id2kR8+lImlF3Ici4yUJAwf3B+3b0Rj86bNmDJzDuYt/QlmSg+l0PoRzEo/xulHaHJiHNavWnr05PET1Rev3GDj6u4FUfYIpSRkCUP7foT5y36CAApmi4NWIOHWFYz9bDB+378PZXzKYMCgIUjNysXgIZ/DzsVNFjyioFgGADSGVESpMAfTJo3HlQunUSG8cnz7AT3f/LJLr8RSTBn6nV2qUJ4rLK/M0vWzU3JSoavDD8GVal/rX7PmAzOsH7b/2nhUn4/3mMyMYsrMbxFaOUy2til+yHMjivh9z29YtuBbSls29fxmUsjsD/o8ESiUpm8vck233Xc3nod3ByJQkC/CTtSTiXUMzVp5eOx7kfae9x5KXx1/ImnJ9lT7fvlKO/CiDizLwFctmT3E/Estw52iiMm812QijtfSpCa39EKj2EIbdwNRMjRbaeA5BDHZUgOX9Ppj6lR4DMRR0BolhcynoI+IEsraSEgrMJA8xobxVxQY/RX683X9+d1xaamHnBzK9jx719D2mtnJ2chxUAtmiESCnw1PEgwCI7Aq+LCC5InMKw2DteeTMxLXezj5dDp2R/dWjOBcRi8qGJoJ1DEsmtinZ9T1yAroXf5h1eXOO25NvCD5T6B5Wlof7aQwQycoIbI8XFiTFMLrTjUK1Z7PyMteGeBm33pPtK7BLUFZO96k0dKyUNo+3bqqZ5eeWNvrbvX+oTUfYwpMP7Xf5VJBpehovZMnIfS9lqBiCfyZjDvV3G0u1iiruZqSZdrKqRUfHI7NCk/kHGokFirULEffNyWUogHtvHSX09nNNZbV7P+QyRudrw/3pu2JMjk1pb9LtKTBkdeRCor0a9V8XY7rcpJ3ZhkNWZ6OAR9dTtfVuSPYlE81aDiRpspFBbwVOfpewQVvfxjk/5hvL2174rn0b7ck23xqYpVyxTftexmlIFRQF0bXCbI/K+Ubf+ZVqjqnk3OaJegUtWP1Wg2VPWPp5gbL4k11zpWqHulvDKpcueB516L1emsErBGwRuB1jIAVtL4as/qyQKtSqcSeretR1qfMMwdG61sT7yaD/lOvN0AQBBmoUlCblZWN5HspuHk7Dleuxcig9v/zYQWtpZj9Xy4fCxzd7qPLmZlZml4DP0Xz1pEAzbY+kuV8OEd3v+H7WROJZjEgQUEVazkG95LvIvryJVw4dx63bt+Ui7TL+ZdDzVo1UalKGNzdPeQPTdl0hVdCoPK7Mk6lmRZL1ulJx64tG7Fy6VyE1YrAmCmzHtudof3Yv2Mzos+dxLatv6JGrbqoUe9NdP6wDxjOoopM6Z4PHRSxmoHtm9YYJ08dG1y7StjB0VO+CfTxDbyfbaWdlDB2cD8MHTsRru4+csaIwm+aNaKovDAnFX0+6gKIRmzZtAH1GzTAydOn0TGyK6Z9sxCevgH3H2mhFTKSKCv20s2BsZ9/jFs3YlAprFL04BEjI7q1bJlXiml75iVj/rfUa9WMObEFaRnadu0/wId9B0MvmMAX+djev5tSrolowrfTJ+L08cNw8Pa6OefapPJPykT+1T496/6mW5M23eHc2/OEB2GN8DTmiK2crnl+3rjxP+Kpujkppfd359jvk1gnhloe0Wx4HU126tTGru97A8cerd+MJkR5NkFcvehCXoc81pFVwASBZfGOa0GKnxgTMKxePX3x8Xbddm3wGSZ0voKqGBNAI9K6XRaVbPPM7wWYG3b193gI6P5yK7rWwcyyB/an29mp6ZqlmU/JLNdeB7LZee+F5HRMCAraX5z62+/sWUWgbcDqNTdUkQKjAcsZQIxGMqmWufP7Pu7ri/en867YiRdFvwlmQmTFbEYSIDEKBIoZhTObenaqbIOdj445wUgqz76c9/vuVI2bxgwZqHOiAb2DjRuGVXSOLN7++uhoZbxU9uJPd5XliUQ3eVjwUh4m1bQ508BL8ZY7wzwG5i7qSYM5p1LWn8xx8aSvFctx0Jr1GFQxfUCvkHLLiu9iLYw+HrT2TpVrOZKapyBRY8glg6oI0xKTrkya1LixULwvtE63Vc2IVhtj8MtNyUNDYAZheLxrn314Zn23xo+Oc9HVq2+sifc5ki5peCVliBAGrV1y8ntXdX13ky0OPUq3TtKRsosv5x3YnKkMNtHqYlECD4L+wVlTPw71Gl9SvfPf+V5Z27ZGwBoBawRelQhYQeurMRMvC7RyHCdnWv18y77wwGiGNSc3D/F3EnD+wkVs2Pwbbt6Ke+H2/us3WkFr6WaQqVS//taE6CttbBycsWbdbzBLlGpngalF4kIWi5Si40+qsOUimnX981xxUVxL0tRyUiYPy+k9S6sWlV/6jCKQer9dy1n5niKQSYFE1MnjmDZ+OJw9fLFs1S9PoBQQfD1xNOrVqobhw4cjJLQCeg4ciobvtJYzZ5YRPOrlyoCHiB8XfHPl59U/hk2dOv16QnpeYJcPesMkUjAOcCyHnVvWIS0tBT36fgzCqiHRmlZRkv1YU+4mICX1LrZt24Jzp44jok4tbP/tN8TfiUOLlu+i96DPUKFKDXAqrey3WqTYSxgWjGjAiCEDcOd2LGnUrtnurT+tbvU8IjePTvG8gzt9lowcfywh9pZvYHBFzJqzCBKnpGlmmuyVY28pf6TgGSDmQnwU2Q4mQwG6D/9szfwJk7qVbtm8nKsoRT3x6ODEE3mO3jQTTLv3hjI92Z+PCZxUQt3hy+kB0O9IUtTBHLdqctYdPOqos4RhEa4Nw22YxzJxRc8khLA/3DIsWhBt6Cco7Rm686E2i+jsWzDq83CPWcX71mnn9cFRUtB82WuXtWTbXQviE4fUVbbs7Ot75Um2UeMvpg7cFGe/UKCLgaNSYAzKKE36Ju5JtUZXC6b3PHbMjDlq98edqjE3dEpvSl/mOSXe90yfOblO2dHFL+66K3bieSFgAmGply9d4xzKMAXSjPoOLes4MHueFteLeYbQ5RcNZ/fk29nyogiJ4+HHpuWGBJ73mB/c8oGN08jjF2ofzCh7vJB15FhRAK+Q0CfAPLNBqN2UMIYpfFr7+/OIy/w/4qOvS2U9CWehIgeSVFNz97veg+vUySy6b8m1rAVz4xSDOEkJkXBo55aTXKOMPiiybNmHNguKP2dG1LVGm5LLHsiTeJaROPgoc3RNKt7z+cKv6gMV5+OEaObtS7p52ejhTTekDAoJjRVpQp/qrjXecFZdelq/kwmxmXAw4cixQs/qtEJc5BlUFlMLWlcj/t19fB70+2WtV2s71ghYI2CNwH8tAlbQ+mrM2MsCrXQ0m9b+hKpVKr2UgVG68Omz5zFn/hJcin7iJ85Lec6r3IgVtJZydkYumV9z7czZR7OzslW+5Spg9rwlYHj1n+q4j2O9Urb8YpdZ6vIs+KoICys54OyJo5gxabSsnLt643YoNZoHD5DBJcdgcPeOWLZoPkSRoH2Hjhg98StUq90ALEupp/Qj/RHQSljcvnERS+Z+NSn6wvmJCxYs6PX1d4t/WLr8Z1lZVcZ4lA4pGTFv9kyElK+IVq3by8Iu9HlU+OZ/K1cisktX3EtKQvTFc9i7axvysjLQsvk7qFWrFiZNmY5PR45Ftdr1HwoIpTbS3qQm3sLnnw4Ex5hMw1Yuqjaq6XvXnjdyNNOm3r2t965fNk9OSUx28yrrh5nfzIeNvYusskwzwxQky9lhefNAAiNImDNzCk4e2Q9nFwfziDUrwgbVbfjcz37evha/ntac3j6am3k2z9ZRpmKCRVuXnOuz33Au/1faLe29S6JPVvw5rsLlNEYr172yohHDKzGzewXZPFXZuajt5DziOvZKXszxTFsXWktJad+1tbmnVrzpUrf4xgMFrbSmlZJqaewp4Pu4UuH6gUEunZ7Wz8MFBd2HHjCvyIeKUdL6aoZBHfW94z828an/rE2NfmfyY35PUYYqqQWSKKKBKnH5subBfR8CrTtuTTwv+U+QhcuoxrUooYOX8dyUWva1mRJsYTYkG/rPOI/FBsLR22CnMJH+5RLe6luhwiH6DEqvnXMla/f3d7TvgCjlGvNgVW7hggjn0LI2TFJJ87I/V/z4iz9M8/MZBSszI0gBepfLfW9EFf/NRfeOPJ2+dHuaXT8CHqwkoIu/8WZIFfvykVS56inH+ug021U3ChNvM44OtMTBW6E3Nw7K9R5TocIDUDn5zJXwHWm+p3KJSkEjY88YxBkR6mZvOSoOlNTvk0bS7vN9+b9mERuOUtxVooiu/jktRoZ57y7pXut5awSsEbBG4HWPgBW0vhoz/DJB6zfTJqFdmxaPlRO+6EgpdfiPo8fx5eQZSEv/R4h2L9rVv+U+K2gtZVipT+qF27EL/9i2Y4CZcKgT0RBDho+BUq0GWF4WS7JkT59IEi7lU0p/Gc243c+zyjDGaNBjy7rV2Lp5IyRTAXilFt8tWwVnd68HL4us7yqa0KX127h4/jSGDR+Bg4cOY/Ks+QipVF0GaU8ErRLww5I5pH7NsO5DPx38v7i4uGrVa9c9M2HqN3yFqjXk5CT9OKeIhtL+1v/8P+j1hQgMCoTGxhZXr13DGxFvIii4AgoLC3E95iogmXH+7GlEnzuFpORE2V9WoVBgzsLlcC/jB7Mo3c/8yh/5snjMwb07sGjuTJSvXCFjxKxvQiPr1csqTcQmHDyo1l88/c7tMxdn7N+1t7woMWzNOnUxduIMEFZpEbViirK7FtBKaPaLZ1CYm4le3boAkhEhtcJWndqzX7Zh+ScPGbQeyc08l2/nSDcAKBD5wL/w+rjKdv8IaJ1zPW3dD9dsI0GtlswEwco8zG7iWr68mimVkM7Xl/JGrU3WfqUzASwrwF8t6tu6RfkPDIt44Gf6ALTKel8i3EihqX3ZmNCh4XWfau2y4lqU/7LrvjfTGS2novRgwuKTkKyPB5b3WPys+fksKidmR4IqlPr2guFQHbeW/9wm9ImglWZ9qf2RvVmHuU0deta1ZX4qae7P5hHX8YdTb8cxrnYckSAwwLDg7P19Q9zfoWD6t6Rbvj9FaWKvMB5KuvkEYkJff3HnsCq2DyunPeVBhBBFxyP6+Ohc3lsWP2IJOrilL5xe0/sT2v769eu5y+WbnPs1wS5MrqhnRJQjBULrcgXVBlfye+b27Prbd943El6RoRcSfO3UAZduX/25GJ2Y+eZK2tbv4+zbUJ4Jtauqrsy5vbapewjzDDBcNAxCCP/hkZxrUTnaIIljZKXyd52Tps2KCPiypJhaz1sjYI2ANQKvewSeBFpbNW+K2TMmv+5Df6XG9zJBa8f2bTB1wlhQqvDLOmjt6+JlK/Dj/9a+rCb/M+2wLLvNzdOxz/G9ex98Pz5P5x+X0H2eu/9j1y46st1p3dTvjp0/caoCtXIICqmMcZOmwN7JDSaJ1vlZ3Cr+iYMqiykVCtm6JubKJcycMRWFuVlQaRQwG4zgWB6zFv6AsuVCZA8omWYMwGjQoWvbpjh2+ACavtMcJrOIWfOWwi+oMpinZFppNmf6xJGGbRvXlrW3t88ghKjLBQQkhdWMcB40dAxogZyFxmwRU2JEM3hIOHjwd7mAvGmz5nB2dQfHKUDFeaOjL8MsmGRKNLWSycnOxp4d25GccAssp8KSFWugtnWQ1dOoCjOlP9O+i8ZCDOnfAxnJCaRt/x4d1nwz70Fm6dGYz9u5U1WQftfvUtT5OvduxE06f/SkvygxjNbOAe937oZOXbvBaKJWPrI3i7zZYFE8tfwrzzLQF+ahd49I6PNyobWz1Y9a8V2NoS+Q4f2r64GC1rhj+ZlncrWOVBSI+t12D9Rd/6KC7d8OWmlWsM22+Ks3UaY8xxGYzCyGVWZuDgjkypcGqNCxr0wi9edfNv2RL7EMJwlQmwzoERJXaUjl6g8scIpAK/V5pSz1qg5CVvn6ardn2flQIaN996qn3uO1HMdwUIgm0sHjcuC4OnWeWfAxnILWZG0oI9H6WRZVcGf5xrZBTwatHAWtIsJtzNnfNdL4uTFMfknzSQjhxp3Jj/o1w6YKK0qgVjBv2aRktyoPnzbe3rqfEjLfWXCJ360jWlosCwfGSBY1sm0TrmV2lNR20fnI/WmbLhkc2lNQSt+pTh6Fd6vVcvAvyqSuuJu1ZE6Uor9cuwsRBpZFA62+MNA+p1tFJ+lURkZGRnFRstI89+uLe7SX0qumnDS42qoI1Wdm8WklYeuAAJt3S3M/vWbwkeQ1B3Ocu4qMEhwMqGWX88OKN736/hW6f2mfbb3OGgFrBKwReJUjULFGvW9MZvPHRCIyRY7nODRv1gRzZ057lbv92vXtZYJWO1tb7N++CS4uTi81TgcO/oFR4yYjJzf3pbb7qjfGMOxWXmPXO+b0gRcqK/qnMNorE8efDuwMnDd6/LXbcTcVkpmBQmOLL8ZPQZUatWHxB/5nQkJtdVJTkjBxzAhkZaTAbNAjqHyIftiUL2d/OXLMxzmJyc6fjpyIN5s0kzOV8p/7ir4dWzTCl6NHYNbX38AsiJj53bNBK80WUdB6cM/2MgzDyNnNWrWrX7h+Kynsx9VboXW0l2s/6dAlKhBDdZOpRStHQQGBnNGi9FtiuSgu/g4yc3LkOaViS7JyMDFDl5OGBbNnY9jIMahZ/y2ZrszRj2PZC5TWtppw+9p5jPrsE7zdsllytYEdQyc1jrQI1hDCfH16r395zq7u3t27O/++c3ed2HMXXR3s7VmdTgeO51G9zpsYPXY8wNuAUPsPWj8pG5VQiw5q0cJCYqlaLC1vJVizajk2rl8BVhTRtFPHb39d9sOwf2MhUtCaeDw383i2rSPdFqE54Q6euuvTa/79oHUpIYpd+3Nzbxg1GrOsC81hTg3yVnMvzcHSxuIWIbW6bU05VcC4MVTtVyUV4j336EqT3vjTt7U4PZiKhfnbCfv2NNY2exZ1gYLW/ckUtGo4gVHBleST93xjAkeElQRac2O2J2tDqXcoZSxUxZ3l69s+mR5MlbQp6Kvjxm/+qTbTobTgansuWTvqcF4XidXK68nbFK/vUknwoCrFA3+/2W+fsewStZlnBE5CJUdz1jf1NGXKMcwzfVGLx7vvHxlfnMy2nSayLCNyHMKRpn+vQmZAZLnKKfS6r6KP+B69F34jzqBW0YyokgX0kGAHA/GWCs1vVXRM9WETRl2Lvr51Yps2utLM5fHC7PCRu0zn0pRODMOZoZY4jA9jOnfwVa0rzf30mvFnskasT7edpRQAM8uiuZcuvZz90bJDitX7lrYt63XWCFgjYI3A6xSBCtXrTRXMwqcSkWzpuGgipFGDCCxbMOd1GuYrP5aXCVrpYDu82xrjR4+AVmvz0sZ+5WoMpnw1G2ejLry0Nv8LDbEstymoTFDPXbvWvJAg6z+D0F6xSK45vDd4+Tff/XL+6LHqVOkUjAIhIeXx2ahxoHWSZhNFbET+wflT45eGikIOWennoRHdd7d88HeWklJLaAXBDJVSZblHEiGaDdi3Zxf279yGuwlxsiy2u6eHqWGblnPffOutb+P9CrN+H7Ei/vzxk14R9Zvg87GTZNBHM6CU+kuziZ8N6AkPJy3OnT8LhlGWmGml2c6hg7obos+deQBalyxZNmzE6FGzK1SrgWmzFkAQKfiTFaPA0ayzxIJ+kD98WMadlJSEtLSizP6fS4hy9b+dMgYOjnZYunIdREYFDiY5s2jBpUSmQffu2Ip6wBKNg30OzymI0aSHSZQg6U0OVPxHFARGqVIiP78ADq5u6NGzD8Kr14Sje5n7FkD3nymLX/35fBm88hQcC/ht/VqsXrEUVDwoLKJe9AcDPm7cv02bf6eAgIDpsDf59FWDa026EUAYFRpoMzJCnc77jwhr9lTRnpfx2vQjRHFrb2FuilmpMRMG9goJc6oY679Zxv5YadtPI8S209a07ESlM68ULdn4dg7nKs1480/Q2nXb9cHnEDwfjAiOAK68bs0fLRyeKXhFQeuelPDUdMaWA8PDDjrS2v1qKTKtuXKmlZWoMZWEKiRh+cbHQOudieeJ9wSOYWWmQl119qIfm7oPKu2YbxKy9v1tBV0MnAq8xMHNlKxvXqnQY1T58vkf7bk94pyx7CxK8KfhqGhv2r6xgaZtaQEx7cPsGDJqxQ3dDEKUjIkH/A1J5ON6JKC9V7kHdOqlN1Jn/nKdH5HAOTIKkwieJRBYXhaOY4kAjoGk5pgCNyY/25PPv9C0gvbknbgbC0fVr//EbPKiOzk1lp8Tz+jV9gy1AlIICihZo4lIigKRvb9rVVKAGMbGRFh1keRbPceC9Goex6ygtaS4Wc9bI2CNwGsfgQrV6o4QRGG0RIiz/BXIMAivWgVrf1oGnn959NLXPpB/cYAvG7TSeRzcvzfeb98Wnh6UdfjX5/JuUjK+mbsQ23fv/Yuj/U/dTjiOW9Pl3eY9J02a9JALQmlH8f8StNLgLD++23nL4p+mnT9ysmd+Tr6KZgsVKh6169RFy9btUaFiNVlxVHqwNi2KwBai6yNQTqan/nlQyp9FUViQrV8S78TjQtRpXIu+jCvRl5CfmwMFx8I3sFyOX3DQ6uY9uy0c/E7r63I9G1nP/dJr+4E9m7Y39PD0weIf18AMDhxNZtI2RRFfTR6Dy2dPQpKoYTGPmfOWPJseLAkY1KezIfZq9APQGhsba9++/bvnEpJTg1q07oDu/T6h3jz3M6oWRWVab/fISGXgmZKSIv+xHPcrcyVKC2Ww5ZcVuHTxLKZ/PR/lq9aWP66LtyOJIr6dMQHH/9gPOwcnBAaVB8sxsNHaQ61WQa1Sw9bOFs4uHgitWBll/f0t9ba0b49ZFN1Xf5Z3CWSNIbnmctOG1Vjz03LwkoiA8iHpb/fq1HBW36H/qPjSo2uk5faEXxNYn/cEYgY1DPE33xPbuMb7flK/fnJpX9anXTch7qC6mVPVNjzHMYUGg85oMiQ38/aLouup31miuJKuz80UVTJdyR56YUpNLqSZp6bUmusUtHbbkZF9h7HnRfFjZwAAIABJREFUOYmXayzfdT1faUaxTGsRaKXnFARwKSVo3Z0SnprJ2HLUouV5QOvOJG0oZSuUBFrpm0iXcX1N1qKlb5UetN6ioHV7YRcdo5KZBx76ZH2LKhbQ2mHX7RHXzH6z5HeEJQhR6lZvecfhw+eZxxX3yKjZZwpmSIwNIzJmlDGkkU8ixIdB69mzinuic5dYvfO8qBxiL3C2sjE0ZU5QfgMVXJNYDmaZki3BRjIRbxsxNUilPxxeTprfo0yZhzYmRp9MrrErRXvGyNkwhHpMy1x6+huikGn+0kN2UaWr7Q/XGtPrljliBa3PM/nWa60RsEbgtYxAxer1epgE8zQiEe+iAYYEB2LlsgVwc3V9Lcf8Kg7qZYNWOkaq2fJ24zfxTpPGCCznDzc3V9jb28llfhTUPu+RlZ2NuQuXYu26X5/31v/s9QzDGHmWWxpz8eSnLzqI54/0iz7pFbyPijNp/X2ar1i4ZEJeWmaNwrxcjmU5WdjHydUDzVu2RkiFivDy8oGLqyt4TiEr6lJ/RYutDYEgiFByNINoQF5+ATIy0qDX6RAfdwvnzpzC3fibKCjIB6HIi0hQ26hFjYNtVJsuXXaXqV1l3piWkemPhqbeuy0nnNt7ZKKdgzNW/rIZrFJL0aqsj0ttQVYum4cdmymjj9KGGUz4ai4qVK319JpWSUSvrm0Nd+NvPQCt9Jk9enw0avOmrTOgUDHdevRHq/YdQVj6Aloyro+qEBdlmO/du/cYaJXHQAiy7sVh8fzZ6NVvCFq+10VuiwLdooP+//TkuxjQszP69P8YbTt8AEE0g2GVxcJAi1MpIKDL07JELSrED39I06yqKIggkiR7cWZnZWHpgm9w6vQR2eKnXGjohd7fTmw45I2/7gv7V5dv38OJy0/qvHoLtD6ZsLAV88nXjbk+De3tf/yrbY89ET/lZLbtWEGiUIYQN32q+EZIts+IsIg0ClovZepycwS1hs6nA9GZ+pTTevWpbKGJl+aIJsR28Pa07BTW0QJaYUI7t4v/CdBKM62iKKChbf6ipW+5ljrTep2QtR23FnQx8Rp5BXrpk/QfVNHL9ODWW2+MuImgWRwVPmMJKmr1qzc2tn8u0Do3loxadlU3Q2TUDM9JKGtKIf3fEB4CrUVzszD6tCej8O51JI5rm83ZVc40MjZ5EseI95WReYYHJynkt8TMU6VkIFRZaGrukz9kYCU/SjeQjyFHbtY4nO1+xgg1wzOAyDKwEwogMJwMhF9EhK6GjeGewhxVbn7LP+2ASrOmrNdYI2CNgDUCr1sEKteJaGrQmRcRIgUVja2sTxl8M30iaoRXe92G+8qO5+8ArXSwFJw6ONgjNCgIZcuWgauLM2y1WiiVCtk2UqFUwMHeHnTOA8r5yeeedlAm4fwl3+PHVf9/xJgYhs1W8PzMa1HHZ77o4vl/DVqLgkbBq3/jek1+/f7HGSf2HqjIMKzGbBYhiRIYnockESgUStjbO0GttYHWzu4BENPpCqHLzUF2ZiZEIkGpVMJkMkLJcaC1fbTuUm1jIzIco2v7foe4eu+2HtmrcfO996WKnzhv7Xv3HH9g8/ZJtF511frfoHVwk2nJNBssCWZEHT+Mb2ZMkD8yKb2ZWt6E127wVNDKSSI6tHnLdPzwgYpVqlS5VQxAKtu0anPmyPGjVVmFAs1av4+e/T6R6bxE1ha1ZC+LDjoeSotITk5+MmgFUJh5D3NnT0WnLj0Q+WE/mAmlNT7cDhEEfNihBVq3bY9OvQbJtjqUwln8kFVZHzmK/Gz/7D/toQRIJpw+eQwzZ0wGLwn0h4U0fuftqLe//LLhoMqVLTWz//KxJjlnzIwTzDRJrQFlYkogpI177oyZddzH/tWutd2RsuUG3NvRsZtZHuGqbLGG5qz3iIhmMmi9nqnPTTcrNdQrxYE14dsaqBfhYXOitM+9RkiV7r+lXyhgnWh+DhwxoL375YdqWl/VTCt9Qejaamift+j758i0nhLI2r57jF3MhNJxBQSYU/XtK1hAa8ddN0dcM5ebRd8/kSUIVBvXbH/b9rm8fwcczhh7ON9+iigShr5T4arUjAiv7HLPXK+EMF/t32/v6luucYHkNvLkHSE4QQ91vtLOhpoRcbLnsgISI8o04rLm1LzWfjlhQ8MryJTjGddyaqyLYc4YlFqGglQNMWL6m+Q3Q37696VdC49eZzKZE94PKP9Uf9cXbdd6nzUC1ghYI/Bfi0CdN5sGZ+bkrCMSCS/qu7OzE4YOHoAuHd/7rw3nP9vfvwu0Pikg9L/fPM/L5YQKBQ87rRaenh6oXTMc77Vtg3L+vk+MY0EBBa3L8cPKNf/ZOD9vxxmGSVAqVZ9fPXd0w/PeW3T9/3vQujT5rI0xIV+uPwD0eXcv37QXc/PbRx05NerMwT+8eZ5n6EcvBa5UkKgocyjRzATDgOd4EEmQQaxFgddSC2sWBeJfqWJO6/Ztf08XDdMCQ4MS6jr55jZu3LhEHnfjD7s2u7x7326jScLMeUvhH1LlPmil2U+C3PQU9PuoE1hWgkgYjBgzEdUjGsvPpaoxj2ZIOYgY0LMLKR/gP3Dnzm0PMi90xDt37gzvP6D/6by8Ap5q/VaqWhMTps6gn8BgeKX8wV8EOWUvVIYKMcXLisF/HkXjZpCZHIeF385Ci1btMWDYFzCYRSgeof9TGvEnPSNho7XDrIU/ynW9NMP98EFTvZbcjyXfysibCPRfWI61CFMZ9cjJzsT0KeOREBcrx8ho1JN+I0fODqpd58shr1D2Z97ls4E7EvxiEyRn2SaUClzVd869lVvPNXRDKexGnvaCTzx70PVEVq3Eu2YbNTHrIaps8IFn+rXx1dwq0cVKhZi27i3IvWNWaSjAotTdmdWM9Vs+R03r8jvmiIUXdUcKoGaUYKAV8tEr5E6lAcXUg1890Bo38TwpO0FeP5KIqrbiovVv2ZQq00oVl7+5lLXxh3j79yhjVmIJ2rsY8qtrE7wjK1cu6LYjZsRps/8sFaOAiSeo4yTcXVlXFcAwjLm0P8Td99777aTZrQ31YDWKSnxQLudulapOD9SDS2qHintVuntXdTPdYEsIX53j7SZvjTPUylW6M5JItxYooBbwRUXj+R1n9tXeEBkpbk7PqTHtsPlModaJoZLFSkZAG+e4plPrVtxf0vOs560RsEbAGgFrBJ4dgRYtWqhuJ2dvEUThnaKaJZqFe69ta0weN9ryjWY9/vYI/JOg9WmDsbPV4oNO76PnRx/Axflx5WGqGjxv0TKsWrv+b4/Hq/IAhmEuO9g6fHDuxP7LL9qn/3egdf35P9wuHzndc92q1XU5gYQX6nVaTiSOFIwZJSHH3t5WJ/H8xYYtm52pVK3q3e2/bnEW9ab6BTnZ9dJzcmHMybWX9EYV9SjUeLlnUsFdTydHuLu6SSn5OZvcnFwK7FydToVUqXI9tGpAYuyuUwWTJk16VNHomfPVcWDfhvt+3nBIkBhMmPEtKobVAcV0VIiJiLTSVkSfDzoiLzMN1Huz04c90b5zdxBq2UPB8yMKyCwEjB3+KbRK7Dp86PeWxR9OP9A3btxY94svxuxOz8yyEyUGji5uiOzcFc3avCfXkzIs/QS2gEdCJMRcvw6DXi83I9fFyerBFGSKOH1sH/Zs24LIrt3RuXt/C51apvkWg7gMwfABPWXP1+9Xb4RJEEr1Y06pnkQSQUHfveQk/PT9Yly+cB5GvU7OhtVr9OatBu1aDjL1HLDvWVYrL/qy/JX7Jhw8yMdzobtO5ru+zREWgijCleikj8MLO3Xz89n4om0vjM38ZWGMTScisOAUHAgxopVL6iez6gUsoG2uJ4T7ace9u/Fw9aTrh2NZTK3OnHjXg69X2md+dS5r0KoUmwVUk5mCHX+tITfQ96jH/GKKsa8kaJV8J4hEpIJFqOssJY6ppwoOZhhjSeOOJcR+7P57cZdNbs6UKW8iEiaFFZzsWta5Hs3if37sbqtdOS7bWFHBSKwEH65QnNfEsUaokrlYUtv0PLXU6XokL/FintaLvpsmRon3Pe4tml7DezDdaKDMD1WTJi62sv4kAJPSOOSNN56ptDcvNlblaecUsfqCecUts5OvrJnMsXhbk5ro0uhGwCSmsbD19m2PpdHq+FtwUXMMBbUs+vjnrh9Rya1TafpNr5l59KidaCOpi6435or6SY0bvxJshtKOwXqdNQLWCFgj8HdFoGJ4xHSTYBxCCB5wQ2vXrI4Zk76En2/Zv+ux1naLReBVAK20O6EhQZg6fgzCw6o8Nj8pqWmYM38RNm0ttVPeX55jVi2BCIz85184JJ7j9ns5adodOnSo1E4Lj/bzX+n5vxAsUN/Pswd2D4g6fHx00p1ED53eyKjUNvDx8YGDg4OcUUy5l4T0tFSLyhsjEVt7e6N/xZCNVRrWX+JRq8E5uKVLPpkOZdQised4nuTb6G8mq/UPMqeTKkeaXsbYvpg1veG8SdMOUc/Tz8dNRe2IJrQ/MmilWVRqPbN+1ffYuGaV/HcVq9XA9NkLYRQs2PjRSaXltysWz8epI3t1J44daeTl5XXm0X5evny53tChQ787dy6qhlmQGIbj4F3WH63atEedevXh5OYuU5GNRhOuXLlCkSwocJcFYej/WItS8twZ4yEaDPio90C0bB/5BDEn+bMd44Z+jPSMdCxf8ytonWfRUZStlsWXKNiVM9iWDDPPAidPHMGRwwdw9OB+KHgeRrORBJUPuVylXs0lDbv1Wdm/Zs1S2X+8jHl63ja+PHe3/2/J9ktMxBYcbwIEBuXt8qMqN3Kp+SIge/HFY+47EoJibxMXe5q9LmSp/UuK+K5flk/PyhbrFHr03B/3+4kCr8YMr5DrO+vaGw3fNLJzL6VnqXLkubwbm1Js/FSEQGJZ1HTIObc6wqVWcYr7qwpa5XeGWsWY88nc5s7dIzTM/0qat63JpprTzptP5EoMD5aHPSuRgcFxLXoFV9hD7/0t416tWUfZE+m8M6eg9dSSEUPDlUu7+6kHlNQ2PX/VTN7uvbdwd76o4kQG4BkjIr0zO46r7idvXsw4HV3rTJ734TyzxDKER1ku58KPzfzfKE3bKxPTPvkuynaunlFRWgjKFVyVBjd08Wzp5ZXe7+xZhaOp7Lkt6Q5VeI6BwPCozN5LdHVLCVxWs2aJWWK6wTXyRPKJ09k21aj3rRkKNHe6N3dcRPnRpemb9RprBKwRsEbgdY9A1bqNmusKClcSQtyLxurl6YHhQz7Gu20eyhm87qH418b3qoBWWtM6d9Y0NHoz4rFY3LwdhxnfzMXhI8f/9jgxHIFNgAmuDfTIu6JCznk1iPmfhX8MUKBUKOZcjTpBaxtf+Phne/3C3fxrNy7dttb11/9t/N/JvQebgVMyvoHBaNe+I2q/EQEbG+0DSi/9uM3OSMWBffuwf+9upCQngYUJrII3v9W21baIRg0n5n7Q48qLAIznGcGsZYsazhg19pBEWAwbS0HrWw+BVgkMLp06gpmTxoBIJjAqLVZv3A5WoZEtcSyWO8UOhkXcjWh8PqgPunZ6b/fy5T+0eFJ/CCHKfgP6Ddy5c9eovLw8Lxkgs1TSiIWPnz+aNm8JNw8vGE0iNFpb8EoliFmSqb2EiMjOycDiOdNk0akvJnyF8DoRMqh9tBaVUqy//OxjZGRmYNmq9XKG+NGaVipwZWNjg7ycbORmZeDUiWNY9/P/YDYaoGAlaLQqvZOH+9VOA/oudGjQZO2Q4OASM2jPMwd/x7XfRkU5nsrwjD9r9nBQi0YwRAUCA+kRnP+Lks/r+TxjWHo22SZbaXNxZYImiCMcZPDDmTEkOHdd3yDPzsX7vzU9fcLEo4qJZpUdTMQMpVnEyHDFRx/5KUsEcIcKSJdRv2etKWCcKKkAkArRy9c4Y3i4+5jiz3i1QSsBxzB420l3LKKuXcPIZ9CxaZb1l8vGg+vvsNXpZiRV5w0SMtKbVcgrWzQ/c44f1ySS4Fs7cx28WHoRw6C8IvPG0mbuNdwZ5plZx7OEKLZdKDyzIVEZRij3mGEQICWT7rW4ypFeXldpTCeciPPfm+oak80oVFDw8JEyct4NzA4aXKFCiWbcqxJjG86/4HmgEBrqXIXKwq3CD8KUPu3LlZONldcnJs+YfslplB5KWW/NFYXSx1VzunX19f25pDX/fczdt9bH2+6+I9grOMEMJVWR9slpMamG9+6S7rWet0bAGgFrBP4/RKBNm342MXcunJYkqVLReOlmPLVLGTPiM9g9oND8f4jGvzPGVwW0qtVqfPf1dDRp1OCxQJw9fwHjp36FG7EPZGZeerBoMol3EOBSTw+HKkZQvdO0gzbIPqmB9A+DVoC552xn9/6ZE7//JZT+2oPWmT/8YPfz8qXRNy/H+GrsHTF5+kyUC60Mwill91CTySSLC9FaA0GUZIVgSTDJdXB34m9i4uihshowpcWKkkRmLJ477w+FZjitEXvpK+x+g88GrRQ6cEi/extDencDgRESo8S4abMRVuMNGbTSj9Xih8SwUBAzxn0+GEl3buijoi4Gurm53Xta/5OTk21OnDo1/Iux4z6/l3zPjuVYRhIESJIJCoUKRrMIcArY2jnCwdYWKpVGFoHKykpFQU42tHZOWLVuG2iNLENNSR6y0qCJVgmjBveRFZlHTpgOItcKP9zpwuw0zJ39DS5GnaEpXChompVjxdBa4fc+7NHtZ6VPwFd96tUrtQLu3zVXz9vu1NPx9TaluB7RMzYstYehSrwahkHvkIJ1f0S5fbAhkmq/PvugVGMb10pbVie4tDJRQyRJCYk1IZTNM/Svr/FtaWf3kCL1hIMHba+w1ZOv5GntCC17ZoDa6jzd7MZOIa4Mk/S0p9HM2mcn807ty1TVogCH1k9XdQFpYn85uH+Vmg/90r7qoJUXRWgUEllQV7WgtiP76ZM8Vel41yTof5tyxtSa+gSbWSVY0YgufsJv48Ic2hWP08zLcUNWxTt9RxgtaH079ROaXItb29qD+1AuWn7KcTDFWHlMlHA+16RQEI6VhcNG1TScjvVyqFu0GbY/767L3GM28bGSrS1dDQpWwIDA5H6DKgSVKJg0/nzuos13lQMpIDayInqWNcVFxewJLvq9+jYuznHHZW3CPdbZjjIeTIRFU9u0gjDvvHL9Q0Of6mNM6cdn42xunBDcfZUCYOQ5NLXLzKjslPps8aiSFrP1vDUC1ghYI/CaRaBSjYjJBqORiiw+KGINDgzA6OFD8Gb9ei9kkfKahehvHc6rAlo93N3w9bSJqPdG7Ye/ySUJO/fux5jxU6G7X2r3UgNCkxi2EmyDTHCO0EHl/Ocnyb8EWgnP8Ye8nNTvHDp0qERdn2fF4rUGrb/+8YfXV2O/2B9z6UrFcqFVMXriNLg4u8o0V8hf7yWXmgpGHQ7s2YVlC78DDwG8kiN+lcsf7zd9UqeB9Zo89YP/ryzAvl+MaPjzoh8OUZ7v2IkzUfONRhAlASIrgZV4ud8mXT4iWzeFSsXKmcrILr3QqVtfCIzwmBATVR2mdL6Tf+zD19MmoF6Nmjf3HdxXlWEYS2HqEw76AX/9+nXbLVu2+KelZTZLTIzvd/iPI4H5efmsnGGVJJgFGg8FqOWGrGTMUEEqHn0GfopmbSPlVlkiPZZp5QjBx727IDAoAEM/H4tLF6/i9OkjSIi/jcz0VORlZ8ketDqDjpQLCSoIq117fzbIvKBKwTfebFwuI7JSR/Oz1Jf/Suz/7nvXR0crs9VlTs6/pg4XCA+eE2AiCmhgIqF85pWmwao55sLrWz6u2qC40pXcLQpWgwPKv7s9BpOvmRwqGBklqDK0oGDhKRiljoFpzQdXDNj3pDEsjEmfufiaaqRJYSPTZakgU01tQfzExk5f+jPMQ/J1dO4LAY+p53M377rL1zZxapYqNDMCgy7+uvFCuPO0R9kGHXdeG3xJDJkvcCI0AgdXVd6aQ82cnqmoO/3UfpcdadVSs4gjTRbDnuhIm7LXAseF1Xmmh+zQCzkxO5JtQjkRMDMSqkmJyze2De5bfNydd92aeEHwm0B3cUQwMjik3w/2jN7cypdZ06eK3URvhrlTdE8iIcGLTqUv3ZWualDIqHmeMDK1vZI6R9/UOz1sQMWKsQ+B1pgYu/M3bWMvim4eFnENBjakQOpeXrOuc7ByuBvDPLQpRAhhf88Rxs09lvNZLJwcOUEPM2+D8ly6/q3Q9HKfBVRJLWqfiixpozP2rLht/zaV0TczBF5Mprmdv6FnTlrcuklPEHPrd3apoo5Lm0ErLnMzM1kn2T9Kw4qkh39SjyEVg1YVtU3n9qf4zEULo1X9CxkVQze0qJdyQ9usmEYBwqedy5bdV/zdmhe7U+WvrT7w50vGz6LNXn40o08p11qzXurin9lueLXA7X/3O2Nt3xoBawSsEfgvRaBu3XfKZxRkH5MIuS/yCXAci66d3scn/fuAKgpbj78vAq8KaKW1zONHf47yocEPDTYvLx/LVqzCkuU/vfQgcFoJak8BTrX1sA2in8oPP+LfAK0MYNaq1b0vnj1aIruvpIC8tqCVCtBs7tvr+x0btvZ0dvPAzO8Ww97Z3aIC/BwKbhTfUuCVcOsG5s2ZhVs3r4FjJXh6e+e+0+Hdb906V5/xsmpZiyaryycDR+xdv3WW3mDA7PnL4RtQARwLiAwBS7/uGUst6Sf9PsS9xDhZJMnXPwRzFiwDofW4FJAXO+iipeNmBDMmjR2BmOjzGDx40Kopkyf2Ka3iaXR0tDIqKsr34uWrDY8ePRLiYGdXz2Q2V0hNu8dkpqU7GY1mhn7kq+2dsWT5SqjtLL/VLK2DfOStUTACunZsRU/qPcv46rQaLZS8glJXo3Nzc287OTkUuPl4RVeqXT060Cc49k6LFpl/NyW7pBflZZ7/es8ebYpdtZ0HsrRvGiWV/KNCwQMjmaFmTVKwBvnuNubUnELdHzxLRFpaKZiIo5HR1r5jYvwKoKZpZ1ARHwOjhD+TIzUuI3w5Lsz9q6eZba6Pi/Y8mOS2/lCmbQNWqQQtf6Z+sf5cgRjgYI6VRNORe3nktLNa5cFKUvU02LSK1XMq2T+XeuEqWbR2zrwTYJMa/nHVqo8B6k4UtAoh80XORLdI4MUY1xxs6VAiaN2WXi01m5aIMwS2xEg6uF8LHFHn2aD1swu5MbuSNaGsIMm06Mq4u3xTm6CHQeuOWxMvSBbQSjP5TgoB+TozRIUajLkQXirW4KYhiWolQ0wGMCkm+CWbWSUHFThihIFVwYs1Sy28ckZ+EeY550mbJFuSUtosuKhYmyzZ2xJqYsRw4EUDqjqTTI1g2KUkhqRsnRBvb6upZpBUETF6ZcVcSc1y1JqIY+HO6klnP930Typ6fvno+lp+Mzpo3S33M3fNzo4KUYJBwcATRjFEU3jSkRf2Vy1nF69QAjkGIDYht0aeZNPqQo7SL5/VsHRTiHoah6uzUsLcU4NGhIUVFm9/QnS0UlfoeXR3qk0tE6MCy5jlGPkqjOZAdcHtQoPpiJrnRLNIFLxC/fZVvcYnnahZ5r6SuJpIpKl77tqatd17RTLMS6njf5nvl7UtawSsEbBG4N+OQKWa9ZYaDKZ+xftRxtsLo4d/ircbvwmFgnprW4+/IwKvAmilNjg9P+yCAb17yN6uxY/bcfH4YvwUnLvw8tziWAWBykuAfQUj7KsawWue4BsJIO13G2Sf+mfpwRzHXfR18224f/+G3L86368taB373dftl838br0kEH7e0h/h4lEGFOpZaKhFk/ns4csJWfkTnFaRUuVeAat+WIx9u7fBZDAAokjqvN1w11stm0w3BlY+9aQMyPNO0Prog7ZLxsw5debIiYoqG3ssX7UOSrWtxYOVCh7JKr3Un1XCjl/X4n/LF8tjoj1s1a4DevYZDMLTzOefByHUu5SntyE7PRkD+3wIRhKkFi1aDF7zv5+WPIkqWVK/qQIqAMWECRM+WfHj8hl5+TqO4TSYt2wFPLx9QTmuD0JdDLRSqxpDQRZ6dnmPdB3Su2eFrg1+KXrWkagC4e+kXZc0pn/y/MLoaNv4PIdVRzJc2mUThbwXQQNK1xkFYqysyGwRoHrg0ctwIIwZNMMoQYRIOPgr8gxvlSWTv6jydMBaNK7vL9/2OJis2H5WdK3JC0pIMAMsA55hYKb1qgxPOJEwVGyJFSnYE+jfgq6mcE1aSgMP1O9fxfeJBRhdt0UPPovQ+XSTgmPMcOdNaw62KDnTujutUmoGceJAeNiQQtKpXEzgiBIyrZ+eyYzZlWQTKhAGGp5FGJu8fG0r/4dAa9cdcRPPS74TCEvfDKCJl/kyydfhUK6mCsMqQCQWDEtZAJD59PI2D0OZ6BI4noMXVyjVc84ewe5cMfdZ6t/fRacP23IHE5OIgx0vMZA4EyAp5HeSKmtT6TS6bSNvNElEVtMGz8GZmEyNXHKXhSce+yzyKaUGY44nTP49w3FMFlFzCogQOOoZy0AlCXTDgkjyJhYDM8MzIvVnJQJYTgQVb/JV6A1tfNPaDaoQvPdJ63p9fEy5w3cd1xzP0r6Ry2kYnm5qUfKJ7DNFf2cos4N68lLFbrOcJaAZaw0xktqa3C2e7I3Il/F790++c9ZnWSNgjYA1Av9UBGrUbVQ+X6f7XRQlr+LPfDOiLsaOHIaAcn5WmvDfNBmvAmgNCQrEF59/hvr16jw0z4IgYO+Bgxg1bjL0+hcW0f0zciygdBZgF2qCfUUTVB6C/N/yJx2igUHKLi3yr6pA6IfmP3AwDCPYaFQfXTp9tETdjNJ055/pdWl68hKvoRS4GhERB25dudH47Zbt0PeTYRAJC6qwKiM3GbTKOdQSn1oEb2UfVrCgGaH42zcwbdI45GSlQjTpYWOjET/s22d/ob3jR0tGjKD1hE/e4ijhadTqItmsG/TLgu+/Y3gF07FLd0R+2FvO4MhesHKN6P2mWQZ3b17D8EFGU+8WAAAgAElEQVR97lvRCGBVGqxctQXKR3Z1LNlO2ilCRZFx8/pVTBjxKRVPErt07bxg6KefjA8ODn6mpcbDIJgwBw4ccN+778C8JcsWd6Cf6mCU6N1/GJq2ea9YjIt8Vi3LrMjDdt+2DVi9alnhhB1ryz6JBlvipLwuFxDCzL10t9fuOHFWktLZySzZMhSIKCUKFilApeDBAlrF+79ClA5MeBZamKSqvC7p7QqGjl3Klj1d2jW3NSbGLqbA+8zmFGNQPhw5MytCcf/Hi/q40k0RClQkWkzJsnAUDEJDT+N1Lz6x8ZDq1R+qlS0+DR/tutH/nMFpqqixFRUC4MabNv3e3OHjZ03VtsTbtb+N1h5IMSoLWZWCd5QEprXHzfDRNWsmPOu+T85kHjt4TxUoQgIPFlVsctasfdtnePF7KGg9R3wn0LphBSEUhC7qGJA+ITXH6ccdqYoWOUobXhIV4AmFYqJFmVsUYccKoh+Xf69NJfOgbmXLbSvNhs6GhJTOa6+a5t4WXD2IyMnerRT+sdL9bQgKjmXwJ9G6WpTRJee8GajoPzqszIZn0twJYcafvjvzQJJqWLbSmTNLZvDUP1kW3mLAMgI4iW5yWEyuRAKoWBb+bE5eM/+CnoMq+G96VhxpxtWBd1m77pq5uZ731goyCKZrgJVLEaiFFQgHwjJgRTOczNn571Xgf85NuTrIClhflx8h6zisEbBG4O+KQKUa9b80GA2Ti5s6KJVKdOrwLoZ9MhB2dkW+Zn9XD/5/tvtvg1ZHBwf06NYZ3T/o/NgcU3/WMROnYe/+g395cji1BFsZrBrxf+2dB3hURdfH/3Pv3ZpeCAkJHQLSIdQQUgCpAlKCgigCgoogWFEsARWsKPIpCBaKIIjYUEFBJYqI+IJUQXrvNW2T3Vvme+YuImAwhRCScOZ5fN6yd2bO/GY23v+eM+c4ojTIV/CucgNwH1eQtslmZg/WMvPWPldt3PkBLFbLN5VC/W5btmzZJRFfhR2/TIrWKV993nz8sOE/+/uG2KbNnAdd3P0zX/pFCJ8IlTXMbKKmhmUMuu7NfSPqkYoXdW56HURGW6+fxOv/Em4vrzQwwzlVF775+gvMnDENFuHhkGRYHLaMuN7dFvcaNPjVXV8u2Vyg+qwpKdKz5cuNmTbu+fGqqls0LmHmgs/hExB8oeyLKZu58IAJZ4gE7s7CHb26wNBUM7mRpCgIC6+Et96da3rrhOgRocKm0BUlc8RKhPeHG9j0+2pMfP5pMK7y8qEhRz5e+HHfRo0arWN51LEUGYafGDt29Jw58x7PzMoKgSwCIyU8+dTzaNEyEarw1ZicxEvv3+pd/B/iJZtB82RjYHJX3D3s7u8nPT9BFOAulMAv7IEvcf042JQ1O/0yLNbuB7Osk9adYuVyrAHmXUNx9IR49dYw0mDnHME5Z3mHWo5dQbYzD7mZ8X1BMg7/vXZxrzbD5kw8es46bNUh3uMUd8oumxPCWydpKvz0TFS3ubQaEeyDCn7GbJZ2au29eZREef3Xg45dh3bJrnIwL9lb/fz0PMuocM5e3bS73J9nDqY7AaWyJYKNaV0rM6/7ykJs7T958sJfXesOP33GvZeWbPnb02owQ/ggEWHJmvp9x+AHVnCu/LJ2e/Wz2XJnZvUfdehYVgWPbqByOd9jEYHsdwsypysOY2VBuU7dtD/IJbPbjqZZx6w/hspn5ADkiKxoDLDpBgK0s2hS3nIwxOZ6zsdh+fyhulFn8yOIxT1m34CoZlwJ/fC7na4qJxR/WZdsEDG5sqR4/x5wAzYtEzVtbv2mMM+48EDP7Adq1DiYn7O+cOFC+UCNelHMHvjC5oN6j90um2+65A9VMuDLVDg8GWgQ4ZcRbDn7ZJidf3bik1knCvR3LT9G0DNEgAgQgTJIoE5M60qarn2oa3r8xcsTYvXewQNx75CB5G29Bvt+PUWr0+FA966dMOK+IQgvX/6S1YmX3Z9WrsKox8YiK+sqqjMywB6hIrh5DpxVVDPp0pW8q5qLIX2LDWmbbfCcVGB4ik/2yZJ0zO6w9Ny0ZtVvRbXNxWd9UVmcj3HuvH/Yoq/mL+rdMrEDRj/+rJm9VngkhDdFCD5FlpGZdhZT35yIv7Zv587w0NMR4eF6SHA5/67tb3FEVqwMVRMiVvhxTKV3YdZ/AotFbRkNhw7sw/vT3sLG9WthkRg01Y3wiAjNJzhoQ1KfHnOjE9rPHdGixRVLVYjyGSGnjw+bMenN+7b/uS3a4/FITLHhuVcmI7pOg39VXfWKaOEklqC7czC4/63IyUo3hbcQ4IxJeOyZiWgRlwARPmman4suFAJy68Z1mDj+GXhc6bBaJD0srPzByIpRy3r37PXnsGH3XAjb3bFjR+WpU6e2XbZ8eUu329Py5MlTov6YJIR6pehaePChx1Cpck2IfNoG/3fyW6/FEiRDx4lj+zHqnjv5I688F/v00OFFdpDzcSxK/CMLd+8OcClK1MEMZ3UpyxXrcqvmLwAqxzmNKZvrVXDC6VB3px05sisvEZmfxabwFKnKvuSwXUctcnp2hj1Ll7KdgJnVuVagpverWvVEfoRVfuYq7mcuFa1AuCVj6g8dgx+42I6FfKGs7G4SIkvZ7I/9p04jMdUYz8bnnZ3tPxaTsmWhNVRpGXrwlAunXN5/KYU6nahVyQlp9+4zg5KSChUPJMRrULlKFaxW//q7jrtZjuYOCJDVBjqUgw6b777wAP1smF3ds2nmzOOFEZUiyiO6d++AQ1qg46DLBWF6qBOm3UFSlrtXVN7ldop7j2k+IkAEiEBJJpCcnCxv3Xf0Zo/bM8cwjHIX2+rv54uHRtyPO/t7k1ZSKzoC10u02m029OvbC8MG34XQkJB//SChqioGDLkf69ZvLPRiJauBkFbZ8G/ohsXPwOXFOS4WK65DCk6vdCL7kALd7b1yVmyNMd1usz5WztcyLTU1tVDvPbnZWiZFa42bau88euh4jXEvTkLdmFZewcSFp9HrKhWVR0eNGAbGc47Ede34dK17uy1ISzukK1tzIrf9snZUpYhKd8W2TAiy2Jzn91hoh/OoLiQ5Er5XEVoorgUa+PnH7/HJgrk4dnA/uC7K6Aivrcz9Q0Kyatats8ojGT9WvSl6e3REFew4uA+H9u6umX02o7IrI73rnq07qlgUCxO1SX0DgzHkvpGIa9vBm+X4sva3aBUZg7VsF0becwfOnj6OBs1itqadORO5f8++AKd/EF6dPN28xyvJDIZh3jC9ZCRvuDNw7tQJTH1rEjauXWOW+RFeG1kkJGaSanP4wO32QFU9EmNMdruzmd3ugEczEFmxKrr16Imbu/YAE2tlslkySM4lyZVIfGWIckLMwIRxT/Ka9ap/0rTfHQOKQngV2xeQJipVBPIjWkvVgshYIkAEiAARKHUE6iQm+vL0nOGqqk/gorzCRU0kY3poxH0YOuhO8rgW4c5eD9FaMSoKTz02GgltYq+YZOuDOfPw0qQ3zSjOgjcOv2gPyrXPgjX4yp5VMa6hAid/cuLsWge4qMdamOkKbuAlPSxWZZ7NxsZsXL26SKuslDnRKspFzKhSeU+2S6s8e8FnsDgDvSGxZvlLIV6B9Wt+wsuvjVfvf+rRdi8Of3jl5Xvz6uKFVb+b9/kHyV16xVepXVvSNOFW9N5PE/e9vLdDvR7YC55XkYCGe/Dd0m/w9ReLcOr4UWRnu2C1iHuoDLrw9IrLtudFHTN0oQNNsafqOiw2B6pUqY6HHn8SYVGVvfcZczk0F0Sr+FzXMHLoHThx9BDK16w6q9/w+6Z/+OKry08cP+Ebm9ABj4x5FrpIJCX9e6QLocIwYJWBlSuWYdHH83Hs8GGo7hyA62b9WuHBFaJTrNTX3x8RERXRvc9taNk6CYYk7tpexiE3m01bDaxfuxoz3pl0tM9LL9Z6pUePjKv8TlB3InBFAiRa6XAQASJABIhASSDQsFXbyJwc1zhd1e4Wqfgutslms+H2Pj0x4r57EODvV6DqFiVhbSXRhqIWreJdOLx8OTNxktvjMfOzCEeW2LsG9erg1q6d0blje/OdObcmnv9z23YzR43HU8CE++cTLYW2yYZfbQ9EluDcJwEMjSFzlwUnlvtAPZe7LcWwX4Yiy6tlizRy69rV64t6vjInWt9YvyLw7duGHdclp/W9OfPh1kXiEnG1UzPvd4r6i5NeTkFG+uH0npOfqfBYw465Xg4W4XLZwf5Pchcbl5TQTmHMYiYl+TuTsDex0aX4zERPIumRqDGacQ5ffPoJli9ZjBxXpjcr53mxKxKyWC020zNpsTsRG5eAuwcNhk9ACHQzQ6wMmYvES0JsX7rl/3haGZimYfS9d+LwwX0Iqlpx1oGNmwd98NvPdZ4fMGjNiTNpvncNGY7uPW4Tl9/+dW5MJiKjqfDY6gasVrtXrOoaDh/Yi+NHj+LgwcPw8fFBZFQkqlSuAkdgIJgsQqbP309VVTMTqpnR2GzC3n9/ocQPBZqmYvSIYe6npj3X/e7WHXLNaFrUh5vGu3EJkGi9cfeeVk4EiAARKGkE6reKr+/Jdj+naXpnALaL7bNaLWjdqgWGDboLdWrXEsk9yfN6FRtY1KK1TeuWePv1lyGiIQ8eOgRXdg58fZyIjKwAP1/fPPfqwKHDePDRJ7Hlz20FXpU9UkX5DllwVjTTheTaxD1V9wkZZ/5nR8ZfNq939To0kSmYSWyzVZbH9unWYVlhrirlZfb1WVleVl3F50K0Tr3t3uOKzWn9v3fnQuXyRbVCRWZUhtnvT8X3P37mfu+bT+p3q9Ny55WmE47Rhya/1tKWhW/a39wtyOVWYbWIH8nOX3sTXlfxj8i0mUszM3oaOjzuHLizsyBSXQvxJuo3yYoNNrvd/KVG/Drz973P/C1dJD8S69Lw4D0DcPTQPoRVqzxrz4YNg0T/l2a/H7fonRnf7N17wD/luVdQq14TM/usWTJHpE3ihrf/+VmFULYrDKqmm1lOvQmqhKo9n2HZfN6b2MlMqcRFISBvM0uGXNTMTMXnkzEZIhcTkyAzjgnjHue1Y+q8Nn3iS4/nb430FBEoPIG+3+0et1GtkqIxHQ5dQbjtzNTvO4Zecqe18KNTTyJABIgAESACBSPQsFWb5jku9WnN0NuDc8fFvcWrVKVKUehza3e0TYxH1SqVYKVargUDfP7pohats999C61btiiULQcPH8Zrk982y9yoIllOAZvIDBzWPguWwH/rDJFCxnNWRuZ2K86tt5v//XqEAosliTyrjEkbZcUyMdzfsjg1NbXgi80HmzInWset/co56/bRh2TFFjTtg4+hM2+GTeP8nVThFTxz/BDuG9YfSbd0evnLmXOeyIvTi7NnNz528OiULm27xOlc1GA8HyJ8vnxO7oG8l4m582lyhRkSk6CKjL/nEyflt26sd0SxZeJ+rgSme/DAkP44ffIYwqpEzdr5h1e0ijbpww9i50x7940j+w43f/7lyahSszZ0UX/R/FT0Nt3P5/8XhyFb4Mk8i/X/+x2HDx2CwymhYaNWiKxeE9zQIf39rCgNcj4tsOk7vuwEeeWsYQpe4Xk2dB1T33wZPsHOL9sOHZpM91jzOm30eVEQuH3p7nGbtMopmuSBxGRUYllTl3W+NBFTUcxDYxABIkAEiAARyC+B+i3iYtxu9RFdN3qAc5H78JImSuI0a9IIt3TugPi4VigfJvJeUisIgaIUrSLTc+q3XyLA378gJpghxPsPHMS7Mz/E10uXIet8YsYCDQLAv+550RpwqWjVsiRk7bYgbYsNrv2W6+ZdPa9KNEmRf1UUZVKYr2XJtRKsfyuggjIs8c+HV4rapXl49ZkLvoRi87lItHoFl8KAh0cNw+mzJ850vjO593vPvJCa16JS3p9a7a9VG9f27XtXkK9/iFnmRYTXilqG3nuueTRxr9YUit4yO//Ui724X35+Q/CKVvOerDsTgwckw5WRhmpNGvzfxhU/PXjxaJO+mF9x8TsffLTxj22x4ye8LNWu3xiqSJYky2BMAXSReMmNP7duxPdff411W/4CuykWFTvcjswTp3Bg4QQ0rRCEvv3vQc0GTWEYnvNhEKa/1atYLwsHlhQLNFWFBB1qdhbemjIZOsv6ZeD9D/S+q2PHE3lhos+JQFEQ6P/NznHrjCopzDAgyToqWHLMkjdFMTaNQQSIABEgAkSgsAQaNo+LdnvUoZph3MMNHpjbOCHBQWjTuhU6d2hnhg6LzLTU8kegKEVri2YxmD3jbShK/u+ICsG6a/cevD97Hr77YQUyMjLzZ3guT10uWkUApGufgvQ/7cjcZYWWng/9UejZ8+4oQoIVRV5ktchTe3Zuv+pahAQXVCXlbXUJe6J+fGzq7g3bEp575S3UbdjEW8vQvG8pRKYovQKcPH4Qjz54PxSrfLb78IG9yz089qfxTDxw5bZo09raH7729vK777gnyukTDJHB1xCiNdeUSZeOc/lNz9zK0Fye4fdyS7xjiBBnA7qu4ci+nRj1wDAoCuPJo4fd/d6zE+dc3kfUYVy7a8fMOdPf733f8IecLVrHm6V8MoVX9Y91mP3RZzhr2FGxY18EtmiPdEcFcEkB5yr83Gew5+1H4dm0AtE1amDkY08gOCQM3qzKZt5kM9z44qbpGiyyjFNHDuC58U/p8Qlxm1rdlpwwJC6OEi+VsO9JWTbn7mX7xq7L9h2t2nw0iw5EKNmzl3UMfrIsr5nWRgSIABEgAqWDQPN27UIy0rK7GJr+oKbpTXOzWjg4qlauBHGnsmf3W1D3plp53p8sHau/tlYWpWgdPnQQRo+4r0AJsgzDwPxPPsMrr/9foT2sfxO6WLR6zsg4t9GGzB1WuE8qF24qXluaVx5dkuTDskV628fmWLju1x93F4cd+XHtFYcdRTrH4JQxYz95870Jie26Y8QjYwBZOBUN866mEH7c4JAZzDDhp8c+hrNnT2n3PzZ6TqNWcSP6xsZm/5cx4z6bE5Y698sv7+g1oGXlarXAJRm6EMUGF6VTvUmfcqFaFKJV2PV3qRoR3vvwA/fgwJ6/EBgS5H5s0ayKDzaJP5mr7ZyzMbPfrrNq7tepB/bvDc3WfZHpH46ayYNhrxYDlzMMORYLLAYzBb5uintxZ1aHoqmQ967DlmmPwXFmHwIDQzBi1ONo3DIWhq5C0yTTkyV+DGDcBofsxv9NfgVbtv+Z1nvY3aMqxbT8iEKCi/R402D5IDB97RHnztMn2Z/6Ya0GgGCHQx+flHRN7ljkwxx6hAgQASJABIjAJQQSExOV4xl6A2bo/VVDG2joRmhuiISXNTq6Brp2bI8et3Q2a4BSuzKBohSt70+djPi42AL9WCDe09+bNRcvvz7lqrfJr44boW1cyDmmIG2DDTlHLRCJl65nY4y5FUX+WgKbFhZgW5Oamlp4V3IBF3J9V15AY/P7+LQVS6u8fO9Dm3KyDb+Z8z4GrI4LYu+fMYSv0EBWRhree2cqVqcuQ7PE2G9ufW707Q/US/rPDUhZODN827LfPuYeFj/k3vvBYTXLyvxTACe/lhb8OeHVFbVU9+z4E4+OGAabAjSKj12Q8OXXd1zJUzz16y/avP3S5Cl6+brR1jptnJ6qMXCEhMMtWSFxBt2sOSxdSK5kimNvJRuAaTCgwOnOAHaswq7FM6DvXIPIcuXRum0n9Ey+HVabL7LOHMWC+e8jLfPsmSrVasxtlthq8tDuffcWfIXUgwgQASJABIgAESACNwQBFhPT3t/NspurmvaorhtJnHPL5SsXXldfHx80alAPQwbegebNYihR0xWOR1GJ1uCgQCyaNxOVKkYV+CB+MHseXnxt8lXnRZJ9DIh/9CwJust8Wb+uTZKlLRar8rrDLn+7rm3b4xg//j8jVIva2DIpWgWkNh07LFq/5n+9m7ZqgyeemmiGvF5+/9Kb51aGobox7c1X8fMPS9BzQN+3Zr/1zsi8QM9buTLokzmzUg5v2zWi/133yfUbNIR6PuGueWe1CJv41UaUpjHFJOfIOHsKYx99ECeP7IWkyFq/0SMTpj497tfcpkxZuNB33vPPb80OqF4x4v5JSAuMhFOXoYnarYYBbmY+9tagvbgJAS48xuJT4dWVDQZN4vDRXcjevArnfvgIWRu+g6+fqN0aCbeupyd2ajchqkf89DEx7dOZmX6YGhEgAkSACBABIkAEiEAeBFijxMQAT6Y6wONRH+eGUTG358X7pSiJ06tbVwwfNhjlyuXqnL2hYReVaK1RrSpmzXgL4eX/nQxLvIsfOnwER44eQ6MG9WGzWS9hPmvufLz42pvQdb1M7AWTWJpNUT70s9om/fZbwgGgeMXq3xCLVl2VoK1569N58a888fS3Z89mOh559BnEJtwMcXTEF14cNlMAegu4gHEDspGDIQOSEVY++Mywj6ZWu7d607S8lpPCuXT6lecGfvrO3MndbrnVv3uvPrA4/GDkFh+c12D/8bmwWRx803ZPNl596TmsW7PKTHbUc9CAWV0mTbmnL2O5fjMef3dK1Hsvz9hTc9BEy87vFqF69yE4V6cFJEPc7ZW9FXtMMpdf5v6bEcwSOaJ2LKDDYJKZhMpHzYZ+cCv2f/wq+I7VkFQXb90uaXuj2NYD2zdu/EcShWJexY5TVyJABIgAESACROBGJNA8rl10hsv1tEfVbgE3EzXl+q4eWSECD428D+2TEuB0OAp077Iscy0q0SreuZPiW5vhwZEREWbFj9Onz5hJltau34C/duxCu4Q4PP/sWPj7+12C9MOPFmLia5OhqmqpRs0YsiRJ/sPHaR3fvUPbFdc60VJesMqsaBUL7/fAsNHfLPj0dbdHZ6++OQM1b6rvDRP+2xPKvRmAReVVaCrGPHQfjh7b7x67eP6V74fmQvTdLz7t8+LTKTM8WVrQ0y9MROWq0ead0KJspsmc48nR92PXX5vNOqr1WjTbd/uo0Q0f7NIl/Upz3ZHyeNTidz7fEzFjncXPnY1db49B+ToN4NNpGDIlBbLEIAvxKga46DR4JavwRItpxWVdkXDKK1w1w4CsWCCp3EwKZT+3G5unj4Wy8zfImpvfft89C8o3aTZifHLyWW/BV2pEgAgQASJABIgAESAC+SGQkpIiLf5uxS1Z2e7HdcOoA86DrtQvIS4WwwbfhVrRNRHg71eg+5f5saW0PVNUojU/6xbZnV9IGfuvkjjzFiwyRavb7c7PMCXvGcayGdg+q9X6XlBk8LurFi8uEclUy7RoTZk50775t59npS5afJshWfHU+Ilo0LgpDDNUWIahi7wsMiRDh69Vwm09O8Fql90PL5xZINEq5N4Tb79e/ddlP765eeXqLhUqVceAwUPRtHkrqAYgyxaomvCUih9qvB5Ndt7be/FJ5eZnXqEoEiJpHKaoZLqKXdu3YsLz45B19pg5TuXoGjtuTXkgYXzXQcf+67SPnJISNffVj/ZUe32lxWUNhQIP2IZvse/rj1C933CotVsjmytQmApRw1bRZTMsWJeMf2qzXulnPm9FVggnr6RrsB/agiNfTsOZNd/x0ADnuaQeHRbHDOo7+qHGSedK3jeSLCICRIAIEAEiQASIQMklkJiYGHg80zNMdWvJAL+Jc+6Tm7VBgYHo3eMWdOnYHjWqVzNDiG/UVpyitdPNbTFh3FOXiFaRPXjORx/jlTfegsfjKVXbIErYgLE9kiIvD3Q6p/z+yw87StICyrRoFaAfnTPH5/dPF8zevGptL9liZ1269cDtA+4Ek21gTNx1FwpNxfSpb2D5N58jumHd75/4eVSnvqxvgQPRx331lXNP6vKha1N/HbN/596IiApRqF2nHpq2aI7GTVvC4fSBZobhilIxZh7jS86CSIYkxKz4TGyMLHFs+3MzPl24AOvWrBaVWSExjbdu3+6nAcPvGdQvqfO+vA7TuOnTQ9+e8Ore8Jd+9DX8wsG58JaqsGYcxekls5B1cBfK3ZwMW4P2UGUbjPOlV0WZEF2kWM6jGUzcd+VmBmVDYbCLzMP7/sCJ7xYg7ecveIUKvueq1a39RZ9hd064t13PYkmJnZfN9DkRIAJEgAgQASJABEoDAZFl+JQLjTRPTn/dMLpwzqtzzs0gwYubRVFQu1ZNdOvSEYnxcWYCIUUu2qi/0sCrOEVrh3ZJePG5py+IViFYDxw8hClT38VXS7+7cB2xFHDjEmPHmCylWiyW+Vk+yvJ9qak5Jc3uvFVJSbO4EPakLFxoXf3Fwpe2/PL78PS0TJvdxxfxCYmoU6chZEXGunW/4ecflyEkKNDTc9ig5NfHPLO4ENNc6DLl5yXllsyY88DOPzYOPH3keBXhVFWsNpSPqGDWja1eMxr+AUGIqFABoSGhsNnt5l0EVdWRnpaGo4cP4uCBA1i65EscOrAPXNPAdQ+qVK+amdit85vRA4c8/2DNmvmKORg5ZaRt3ktf7Asf82W4XqO+KXxlQ9SX9YpXef8GHJn/JgxPJqK6DYVSvy3cshWarMNi/CuB3WVYRCorkbJJhsx16BIHNB0WWYGSfQrq8ndwYMEMeCwyb9igxt7bJ7xY7+E8SgpdDXfqSwSIABEgAkSACBCBskigflxckJ5jxOuakazreifOea61bwL8/dE0phFE6GpSfBszZPhGasUpWm9um4iXnnsGAQH+yMnJwarVv+Prpd/h519/Q1raFW/ulaztYMwlS/JqSWYLFdmydEuXpMPFnRU4v0BuCNF6HgabvHB+t9lT3pp4dN/B6Iy0dIsZriszSLLE/f380u8f/9TgsXcN/Sy/8PJ6bspvv/mfWrPy4dlvThuUmZEeqXpUmTEFukhs5A0CBjcMOJxOiF/IMlzZZugvDB02RYGqey9w+/j5ZCR0bv99m9vvHP5AUtJ/hgNfbtOUJUtsTw0fujfq/rkRqJtw3r/LIIt6rJKQmxrsuo6M9Uuwf/5rkP1CUPue56CWqwnD6sxjiaKmq/T6vEAAABZfSURBVAZFt5rZhYUTl2VnQvtrKXbOfgUOTYdf8yTYXWk4sXa5Z8In06MejO+Sey3ZvGDS50SACBABIkAEiAARuIEJJCcnyzsPnqzocbvb6pwP0XS9xfkQukuoiNwtkRXC0bxpE/Tt3RMxjRrcMHddi1O0toltiddffh5Hjh7Hx59+gd9+X4v9Bw6WlqzBXJKkvZKifGCB/FWov7wjtQR6Vy8+2DeSaDXXPX36dMsOWa1wdP++bu6Dxx+yWS2ys2rFiZGN6y4a36nvmWvxt1DMeTbQt+03Cxc+tiX1l7aGprFLEkIJnWqGBTPzj4ohRK2hw698WHa3Af3frNyk7uSx3fudKEwZGc45q9Eu/hd7+2djWf0kaJJq1pWVufc+rwhHNmAIXylknoGzS9/HkfnT4F+zNuo+/DZOBFSCTdOhygZE6TDGcqAxBVaDA7oVukhaLOvgXEPE0a1Y8+rD4DkZCK7XHDn+kWYmZZ+sw8ha/63nufnTSLReiwNGYxIBIkAEiAARIAI3DIHExET70Uy1smTwPpqmP2wYenBui7dYLKgYWQHt2yXg7jv6IewGKJFTnKJVeLVbtojBnj37ceDQIbjdpeMOq7i7qsjyh0ySZziZY9u6dd/nWTGlJHy5bjjRejH0lBUrzDsB44upPMvCLVusvyz5vPL27durW1Uj8fTpM84szcOiw8J7SEy2bD9x5DOnxaJXq1zljH9g6K9NY2PXD+rc+VRhxOqFdXLOOt55e+rhmr3i0TQZqrhVy+Xzd2r/oWFWaxVlcOCB5cx2HP1mHk6v/gZhsTcj4raxSLOEQJJFaSBxJ1d4aXWIejnCY2s7sRsHPnoZabvWIqRmDNSgcKiKL2QuwpANlMs6iPQNyzxPz51KorUkfOvJBiJABIgAESACRKDUE4iJ6eZ0sYxqMDxPqaraJ7e7rmKRdrsd1SpXwj2D7kSnm9vBas3r+lfpRVOcolVQUhQZmlbgNDjXDbDFYllrs1qeYm7p9w0bUoVYLTVVPm5o0XrdTsxlE0/ZucR2+pCDjU9KuiaXnp+Y9sbgL7YZ77NOo8AMFeBWkb74Mis06Ew2o0wULiqxqsDeLTi9dDbS921GhQ4DEJB4G9KtDsgiZ7AhQ8nej7TFs3B63fewhkXCEl4HOmxm2DGHKJED6AwIO7cPOdt+8oyZ/RaJ1pJy6MgOIkAEiAARIAJEoEwQEJ7Xcy50yvFkv6Bqet0rLcpms0GUyBk1fBhqRdcoE2u/fBHFLVpLC0RJkk7bbZbXnJL/1DVrlooSNqVGrP7NmERraTltV2Hn7F9/iJz46IublC4jg9HwZhhMZC++LPEc955eSaRVMhg0M8kxh8I1sJ1rsHf+m2AKR+V+Y6CGVgD7cxX2LJgK33JhkCMbwCNbzFquYgSRgViMJsKdJQPw7PwZIZ5Dp4YvmlFtTO24ElHr6SpwUlciQASIABEgAkSACJQ4Ai1aJEZlap4RHlXrzw0jQuQBzc3I8PJhuKv/bWamYREyLJehLMMkWi/ZcYMxKc0iS8ttTvuLPW5O2DR+/HgRXFkqG4nWUrltBTd64tS3Jjz3zLgnw7s+yJx9R4HDx/SEXmiiOKsZ9su99VoNBkMBuEeDLmmwch3sf0ux7b0USGo2fGvWg1S1MXLggFUXmYMlUbAV4oaszJnpyDXMsQxkrP8O1UK1DTtW/d644JZTDyJABIgAESACRIAIEIH8EBAlcs7laHGubG2kYeitOedh3vqOlzaRQ6VZTGMMGtAPjRvVR2hIrsmI8zNliXqGRKu5HeJNPINJbKPVan0v0Bb8+apVi0u904hEa4n6ql07Y6avXWv5fe4HEz98b/6jzpotUWvMVJzxrQAZirf+q8GgS94irRZdZDeWYV5f9Z597987Ubvnzx+x94Mn4N+wK9yyzRSqFzedMcjmbzgcXOKQDI7M1V+iRa3gDb8sW06i9dptMY1MBIgAESACRIAIEAGTQFxc16C0nHN9czyefuBoanDukxsap9OJ7l06oFvXzqhbuxZ8fXN9rNRQveFFK2O6JLEtiiR95XQ4Z6379cfdpWbz8jCURGtZ2cl8rGPmihX29T8sGfrZ3M/fSJeD5Kh+j0Fu0RU5kgVWQwJnQm1KEDdaOdNNj+nFjXOGQOMc/jeyPULiuiFHs4HJl4bEiwBhkZxJiF+DifBghuxf5qN9y+gN3yz6nERrPvaJHiECRIAIEAEiQASIQFEQaNo6qVamK6e/ruvdOOf1r5SsqXKliujRtRPaJsab911FKcbS2G5k0SpJ0j4msWVOu2V+zYoRKz/55JPSkyEqH4eNRGs+IJWlR0QJnPeXfhb77oTXP9iya0/NoNh+rFyPEcgOrQgmSZA0M48wNJl7xedFTfz5knQXtg5vjcD4rlB1H3D58iMk+oswYWaW0rHpGrJ+/hBdO7besGj2XBKtZekw0VqIABEgAkSACBCBEk8gJibGki054w1V66kbenfDMCrmZrRI1NS4YX10ap+EdonxCA8vX+rqu96IopVJLE1m0veSJC8qH2D9NjU19VyJP5SFMJBEayGglYUur27c6LP8hZTZm35e1eO0HqDUvm8c5EYdkG0vBwkaDCZE64X4YO+SuQGHlo3ND7REQEIvqLoVyOXyvlnPFRrs7lPI2rMRtpM70K5Hl1c/njbj8bLAjtZABIgAESACRIAIEIFSRkCq16JdOUNzxesav1M39LY8l5Bhcdc1JDgYTZs0Qq/uXdGqRTM4HPZSs9QbSbSKeqsSkzbIijRLstm+qxNVbm9Z865efPBItJaar2HRG5qSkiK5Qv17znzh1Y9zslUZFRugzsOTkRZRD1YdUJnh9ZcyBTIX/8nhq7qw8YFWCIhPhsdQIDERSswgMR0GF/dYrfDV3dCPbMXpP1fBaWQYAx8ZNblSs7hnH+vYMavoV0EjEgEiQASIABEgAkSACOSHQJ06dayKb2ikpmq3aLo2QjcMUfvmMi8FzPDgsLBySIqPw+C7+qNiVNTlaUzyM12xP3OjiFbG2EnFosyWJMtHDh6wfd26r1zFDruYJyTRWszAS9x0nLM3P/qoyY/ffjsndcnXN2m2EBbW82E4Og+BxhRIXJTAAYTTVYhWp5aFzcNjEdimJzzcBkMWglaFDgWyqNJ6bh/StvwOOeMY6jeM3tW+T8+hDUY8urIvM+vhUCMCRIAIEAEiQASIABG4zgSqJCbaAzStkpqtP+Rxq0M4YMnNJKvVapbFuefuAbi9T08oJfyu6w0gWg1FUX6yOhzj9TS+buvWVOEQKnU1Vwtz/Em0FoZaGewzZecS24pXF43b+OOKkSfPun0Cknoj8vankW4LEtVWze+DITE4tUxsHt4KgW16wWNYAYWBGwx2zQ1t12rkHNqMsNCgrKZtWr4x8IF73+nWKPZwGcRFSyICRIAIEAEiQASIQJkg0KR1+5YuV+Y7qqo1/K8F1a9XBylPPopGDeqX2HWXZdEqS9Jpu9P5RM+OCR+U5nqrhT08JFoLS66M9nvy3Sltvpox950DO3fVYZXqosrgF6BVbwWNA5IMODSXKVoD4nrCY9gAmcGRdQqZm1bA7jqhVahR+feBI4Y/+Ogdd/9xo/zyU0aPAi2LCBABIkAEiAARuEEIJCYm2k+4tOFqjvsBw+CRAGy5LV2UxEnu2R39+/ZBZIVwCE9sSWplTbQykSQG7KzVYv0sxMd3/MqV3x0tSbyL0xYSrcVJu5TM9fqvvzoOrVn15ILXpzxyJps7o7oMg0+XoXD7h8CpCtEai4C4W6HrMixndiN98woeGep3ZujTYx4e03/wh4yxGyJMoZRsJ5lJBIgAESACRIAIEIE8CSQnJ8t7Dh2vk5XtGanpekdwHpFb2LAkSYiuWR0Dbk9Gm9iWKF8+DEouiTnznPAaPFCGRKvBwM5Isvyb3Wl/OzLQsWLp0qXua4Cs1AxJorXUbFWxG8peWzivyQ8LP39n1bLlTXNCqqJq30dQpVUCfhh+C6o0a4nD63+CknGSJw+688NytSIefPneJ9KK3UqakAgQASJABIgAESACRKDICLRo0dk/U0/roKraHQbncdzgIWY9w8uaj9OJNnGtzPquzWIaIzAgoMhsKOxAZUG0MoYsSZLXy7L0qd0hLVy/atWRwvIoS/1ItJal3bwGa5m+9ivn7x99N3zFt8vHndx/1MdSsxHU/TvBZM1IaBe3NbpZi/tviWnxW1JSknYNpqchiQARIAJEgAgQASJABK4DgQbN46uqmtpD141eumHEgnM5NzMiK0SgQ7tEdGiXZNZ5vZ7Jmkq5aOWyJO1gsvSFxWJfFOrEhtTUVHq/Pn/oSLRehz8CpW5KztmYt9+os/zDRcv37dgW7h8cmNGwXfysSrfe9vj/delyQ4cqlLq9JIOJABEgAkSACBABIpBPAjHDhlmy/9jWWNfVbtww7tB1o2puXUXIcN2baqN9Ujy6dLoZVStXyucMRftYaRWtTGJpsqx8KsvSIr9y/qvWLF2aXrRkSv9oJFpL/x4W2wqm7PzN37JhdxdnZNT2gbEJ64ttYpqICBABIkAEiAARIAJE4LoRECHDGZ5zzQzgTl3Texnc8MvNGF8fHzRqUA/dunTEze0S4e+X62PXbB2lTrQypiuSnCpJ0ntWu33lxtU/UtWNK5wOEq3X7GtDAxMBIkAEiAARIAJEgAgQgTJDgMW0aROek60naJr+oKbpLQCzLuIlTZYkBAcHo2XzGNzV/zY0qFcHcjElaipNolWWpb2yxTKNS+zLcKeyh0KB//t7QqK1zPwdoYUQASJABIgAESACRIAIEIFrSyAmJsZi2AIquN3uwR5VvY8bRlhuM4q7reVCQ5Dcqwfu7JeMoMDAa2sYgNIgWiXGsmRF+dJqUya5gnz/3LV0qYfKROZ9NEi05s2IniACRIAIEAEiQASIABEgAkTgMgJNWiTFuNw5EzVNTeBXqO0qutSqWQNPPvYQWjWPuaZe1xItWhnTZUnabrdbnw3u1PbL1PHjKclSAb5RJFoLAIseJQJEgAgQASJABIgAESACROAfAsnJydZtB44O8GR7Htc5rwjOnbnxEcmaunfpiHuHDERUZAU4HI4ix1gSRStjTAVwwma1zA0OC5i0cunSk0W+8BtgQBKtN8Am0xKJABEgAkSACBABIkAEiMC1JNCmY8eI06cyHvGoajcYvAoHrLnNVz6sHAb2v81M1CTK5VituT5WKFPfmz0XU6d/gPSMjEL1L+JOBmPSUVmWVzuczlc2/PrD/4p4/BtqOBKtN9R202KJABEgAkSACBABIkAEiMC1ISDuu6qSMz7H4xloGEYi5zwyt2RNNqsVTRo3QK/ut6Bl86YQQlZ4Yq+2zV/4KSZNmYZzaWlXO9RV9ZcYOwOJ/c+qWOZHhvgsWrZsWdZVDUidQaKVDgERIAJEgAgQASJABIgAESACRUWA1WvRLsxQs7tomt7HMIw4Du6f2+AiUVN8XCw639wWzZrGwMd5dSHDy75fgZQJL+PkqdNFtZYCjcMAtyRLmyQmf26zyp9GV47Y/cknn+gFGoQezpUAiVY6GESACBABIkAEiAARIAJEgAgUKQHhddUke7RH17vqGh+gc6MOOJcvn0SUw6lWtQoS4mLRq3sXRNesUWg7tv21A/eNehSHjxwt9BiF7MgliR2VJGWhLEmfKaE+f2wi72ohUebejURrkeKkwYgAESACRIAIEAEiQASIABH4m0Dr1q39zmSjLud6P03T7+FXSNQkEjPVrFENt3TqgD49u8Hfz6/AEF3Z2bhj0L3YsvUvcM4L3L+QHbjVYlnMmfye1W78vunXX0WipWKbvJA2l7puJFpL3ZaRwUSACBABIkAEiAARIAJEoFQRYLWbtwtWDHd9TdPGqprWHsj9mmJAgD/q3lQbQwb2R1yrlgUukfPia5Mxe97H0LRrX1FGkeWdis3yguLWf4iOjjpGocDX7kySaL12bGlkIkAEiAARIAJEgAgQASJABC4QSJFqN/8lyIKcPjk56ljDMCrlBkckZQoMDEDH9kkYOuguVIoS+Zzy1/7asRPJA4YgOzs7fx0K8ZTEpEyrRX5XttheD3bgWGpq6rVXyIWwsyx1IdFalnaT1kIEiAARIAJEgAgQASJABEoBgZjYttWzXK6nNF3vzTkXscC56pIqlSri/qF3o0O7JPj6+oKxvOXL0+Mn4uNPvyjqEGHOAFVW5FU2qz0l2MlWk1gtvoOW964Xny00ExEgAkSACBABIkAEiAARIAI3CIHOnTvbDp3I7JyjukdzgzfmyF28KoqMhDatMeSuOxBdozr8A/wh/Yd4PZeWjruHjcDWv7bDMIwioMlyZAk7LVbrTJ8A+5zff/jh+qQnLoKVlNYhSLSW1p0ju4kAESACRIAIEAEiQASIQBkgENOmY4QrK2Owpqm9ucHrcsCa27L8/HzRqX1bdO7Y3gwZLhcaCqePM1cX7c5dezB+4ivY9Oc2uFyuwlLiEmN7ZEX53uFjn7b+lxUbCzsQ9bs6AiRar44f9SYCRIAIEAEiQASIABEgAkSgCAg0bNW2eY7LNUjnRjtuGKL2Ta5aRWQabhbTCE0aNUSNalVRPqwcgoMC4efnB6fTAavFYlqze88+zJo3Hz//shrHjp8oULiwJEknGGO/2GzWD6NCfJcuXbrUXQRLpCEKSYBEayHBUTciQASIABEgAkSACBABIkAEipZAq1bJjnT1cBdV1ftwbrQ3DB56pRlEwqYAf39UjKqA8PJhCA4Ogp+vL+w2GxiToKoenDx9Bn9s2Ih9+w/mK1SYMZYtSdJqWZE/9Q90fLrmhx+OF+0KabTCECDRWhhq1IcIEAEiQASIABEgAkSACBCBa0MgJUVqvHxlxeyc7E7c4P10TW/Bwe3XZrLzozKmSxLbLkvyxzbZ8pXCs7asW7dOvaZz0uD5JkCiNd+o6EEiQASIABEgAkSACBABIkAEiotAq1atHJke1FB1dOSGcafOjTqcc6WI5+eSJB2SFfljCdJiB3NsWrfu+3QAvIjnoeGuggCJ1quAR12JABEgAkSACBABIkAEiAARuKYEWIMGHZzc6ipvGEY73TDu0HS9DedcutpZFVn5S1KUeZKMryweZf+GHgnpGD++KNINX61p1P8yAiRa6UgQASJABIgAESACRIAIEAEiUOIJJCYmKhkZGVbmX66iKy2jt86NTtwwGuu67psf4yVJUiUm/aVYlOU+Np8vcjL4HxbLac+6des08qzmh+D1e4ZE6/VjTzMTASJABIgAESACRIAIEAEiQASIQB4ESLTSESECRIAIEAEiQASIABEgAkSACBCBEkuARGuJ3RoyjAgQASJABIgAESACRIAIEAEiQARItNIZIAJEgAgQASJABIgAESACRIAIEIESS4BEa4ndGjKMCBABIkAEiAARIAJEgAgQASJABEi00hkgAkSACBABIkAEiAARIAJEgAgQgRJLgERrid0aMowIEAEiQASIABEgAkSACBABIkAESLTSGSACRIAIEAEiQASIABEgAkSACBCBEkuARGuJ3RoyjAgQASJABIgAESACRIAIEAEiQARItNIZIAJEgAgQASJABIgAESACRIAIEIESS4BEa4ndGjKMCBABIkAEiAARIAJEgAgQASJABP4fPqDniLsogvwAAAAASUVORK5CYII=;" vertex="1" parent="1">
          <mxGeometry x="100" y="210" width="941" height="400" as="geometry" />
        </mxCell>
      </root>
    </mxGraphModel>
  </diagram>
</mxfile>
